SplineFontDB: 3.2
FontName: BesleyCondensed-Fatface
FullName: Besley Condensed Fatface
FamilyName: Besley Condensed
Weight: Book
Version: 002.100
ItalicAngle: 0
UnderlinePosition: -200
UnderlineWidth: 100
Ascent: 1600
Descent: 400
InvalidEm: 0
LayerCount: 2
Layer: 0 0 "Back" 1
Layer: 1 0 "Fore" 0
XUID: [1021 31 -699969567 16487490]
FSType: 0
OS2Version: 0
OS2_WeightWidthSlopeOnly: 0
OS2_UseTypoMetrics: 1
CreationTime: 1460762150
PfmFamily: 17
TTFWeight: 900
TTFWidth: 3
LineGap: 0
VLineGap: 0
OS2TypoAscent: 2500
OS2TypoAOffset: 0
OS2TypoDescent: -850
OS2TypoDOffset: 0
OS2TypoLinegap: 0
OS2WinAscent: 2500
OS2WinAOffset: 0
OS2WinDescent: 850
OS2WinDOffset: 0
HheadAscent: 2500
HheadAOffset: 0
HheadDescent: -850
HheadDOffset: 0
OS2CapHeight: 1500
OS2XHeight: 1040
OS2FamilyClass: 1024
OS2Vendor: 'it* '
OS2UnicodeRanges: 00000001.00000000.00000000.00000000
Lookup: 1 0 0 "'smcp' Lowercase to Small Capitals in Latin lookup 0" { "'smcp' Lowercase to Small Capitals in Latin lookup 0 subtable"  } ['smcp' ('latn' <'dflt' > ) ]
Lookup: 1 0 0 "'c2sc' Capitals to Small Capitals in Latin lookup 1" { "'c2sc' Capitals to Small Capitals in Latin lookup 1 subtable"  } ['c2sc' ('latn' <'dflt' > ) ]
Lookup: 1 0 0 "'ss01' Style Set 1 lookup 2" { "'ss01' Style Set 1 lookup 2 subtable"  } ['ss01' ('DFLT' <'dflt' > 'grek' <'dflt' > 'latn' <'dflt' > ) ]
Lookup: 6 0 0 "'calt' Contextual Alternates lookup 3" { "'calt' Contextual Alternates lookup 3 subtable"  } ['calt' ('DFLT' <'dflt' > 'grek' <'dflt' > 'latn' <'dflt' > ) ]
Lookup: 4 0 1 "'liga' Standard Ligatures lookup 4" { "'liga' Standard Ligatures lookup 4 subtable"  } ['liga' ('DFLT' <'dflt' > 'grek' <'dflt' > 'latn' <'dflt' > ) ]
Lookup: 1 0 0 "'onum' Oldstyle Figures lookup 5" { "'onum' Oldstyle Figures lookup 5 subtable" ("oldstyle") } ['onum' ('DFLT' <'dflt' > 'grek' <'dflt' > 'latn' <'dflt' > ) ]

StartChar: ampersand
Encoding: 38 38 0
Width: 1840
Flags: MW
Fore
SplineSet
1219 920 m 2
 1676 920 l 2
 1704 920 1710 915 1710 885 c 2
 1710 722 l 2
 1710 694 1703 690 1674 690 c 2
 1576 690 l 2
 1542 690 1535 682 1526 658 c 0
 1490 562 1439 468 1373 381 c 0
 1346 345 1339 344 1367 306 c 2
 1402 259 l 2
 1422 232 1431 230 1480 230 c 2
 1681 230 l 2
 1717 230 1720 222 1720 185 c 2
 1720 50 l 2
 1720 6 1715 0 1672 0 c 2
 1150 0 l 2
 1095 0 1086 12 1062 42 c 2
 1054 52 l 2
 1038 72 1028 79 994 62 c 0
 866 -2 720 -40 560 -40 c 0
 214 -40 2 114 2 400 c 0
 2 674 207 781 424 861 c 0
 475 880 457 887 430 924 c 2
 390 980 l 1
 340 1058 298 1136 298 1206 c 0
 298 1426 528 1540 840 1540 c 0
 1134 1540 1332 1430 1332 1250 c 0
 1332 1048 1178 947 999 866 c 0
 962 849 968 849 990 819 c 2
 1180 560 l 2
 1211 517 1213 520 1241 566 c 0
 1260 596 1276 627 1290 659 c 0
 1302 686 1289 690 1269 690 c 2
 1212 690 l 2
 1178 690 1170 695 1170 732 c 2
 1170 862 l 2
 1170 905 1177 920 1219 920 c 2
544 631 m 0
 493 581 462 519 462 440 c 0
 462 296 542 216 670 216 c 0
 739 216 805 228 867 250 c 0
 913 266 894 275 871 308 c 2
 634 640 l 2
 598 690 585 672 544 631 c 0
924 1230 m 0
 924 1284 908 1360 828 1360 c 0
 774 1360 734 1316 734 1250 c 0
 734 1170 781 1103 820 1050 c 0
 831 1036 833 1042 845 1053 c 0
 894 1098 924 1155 924 1230 c 0
EndSplineSet
EndChar

StartChar: period
Encoding: 46 46 1
Width: 640
Flags: MW
Fore
SplineSet
80 200 m 0
 80 332 188 440 320 440 c 0
 452 440 560 332 560 200 c 0
 560 68 452 -40 320 -40 c 0
 188 -40 80 68 80 200 c 0
EndSplineSet
EndChar

StartChar: zero
Encoding: 48 48 2
Width: 1120
Flags: MW
Fore
SplineSet
50 750 m 0
 50 1316 214 1520 560 1520 c 0
 926 1520 1070 1316 1070 750 c 0
 1070 184 886 -20 560 -20 c 0
 214 -20 50 184 50 750 c 0
470 750 m 0
 470 266 492 190 560 190 c 0
 638 190 650 266 650 750 c 0
 650 1234 638 1310 560 1310 c 0
 492 1310 470 1234 470 750 c 0
EndSplineSet
Substitution2: "'onum' Oldstyle Figures lookup 5 subtable" zero.oldstyle
Substitution2: "'tnum' Tabular Numbers lookup 6 subtable" uniFF10
EndChar

StartChar: one
Encoding: 49 49 3
Width: 920
Flags: MW
Fore
SplineSet
70 65 m 2
 70 166 l 2
 70 208 80 210 123 210 c 2
 215 210 l 2
 264 210 270 217 270 264 c 2
 270 1023 l 2
 270 1063 261 1070 223 1070 c 2
 149 1070 l 2
 116 1070 104 1073 104 1109 c 2
 104 1229 l 2
 104 1283 136.04296875 1278.76367188 183 1281 c 0
 267 1285 356 1310 449 1485 c 0
 466 1517 471 1530 523 1530 c 2
 609 1530 l 2
 652 1530 660 1525 660 1484 c 2
 660 266 l 2
 660 212 670 210 725 210 c 2
 797 210 l 2
 830 210 850 206 850 170 c 2
 850 59 l 2
 850 10 848 0 799 0 c 2
 135 0 l 2
 77 0 70 5 70 65 c 2
EndSplineSet
Substitution2: "'onum' Oldstyle Figures lookup 5 subtable" one.oldstyle
Substitution2: "'tnum' Tabular Numbers lookup 6 subtable" uniFF11
EndChar

StartChar: two
Encoding: 50 50 4
Width: 1094
Flags: MW
Fore
SplineSet
1053.95703125 510 m 0
 1042.95703125 141 972.95703125 -20 724.95703125 -20 c 0
 540.95703125 -20 500.95703125 100 414.95703125 100 c 0
 357.95703125 100 320.95703125 74 297.95703125 34 c 0
 281.95703125 7 287.95703125 0 242.95703125 0 c 2
 100.95703125 0 l 2
 61.95703125 0 55.95703125 4 55.95703125 42 c 0
 56.95703125 320 147.546875 625.5234375 428.95703125 808 c 0
 556.95703125 891 588.95703125 972 588.95703125 1150 c 0
 588.95703125 1288 566.95703125 1336 498.95703125 1336 c 0
 450.95703125 1336 406.95703125 1302 406.95703125 1274 c 0
 406.95703125 1238 538.95703125 1228 538.95703125 1056 c 0
 538.95703125 922 433.95703125 850 319.95703125 850 c 0
 201.95703125 850 86.95703125 946 86.95703125 1102 c 0
 86.95703125 1376 264.95703125 1520 558.95703125 1520 c 0
 830.95703125 1520 1010.95703125 1360 1010.95703125 1140 c 0
 1010.95703125 900 761.549804688 767.614257812 598.95703125 670 c 0
 433.4296875 570.624023438 386.95703125 516 353.95703125 441 c 0
 325.080078125 375.37109375 289.95703125 301 311.95703125 301 c 0
 334.95703125 301 323.95703125 356 385.95703125 414 c 0
 432.95703125 458 478.95703125 469 514.95703125 469 c 0
 624.95703125 469 654.95703125 381 746.95703125 381 c 0
 823.95703125 381 844.95703125 431 857.95703125 510 c 0
 863.95703125 552 858.95703125 554 906.95703125 554 c 2
 1012.95703125 554 l 2
 1056.95703125 554 1053.95703125 552 1053.95703125 510 c 0
EndSplineSet
Substitution2: "'onum' Oldstyle Figures lookup 5 subtable" two.oldstyle
Substitution2: "'tnum' Tabular Numbers lookup 6 subtable" uniFF12
EndChar

StartChar: three
Encoding: 51 51 5
Width: 960
Flags: MW
Fore
SplineSet
50 348 m 0
 50 484 140 590 288 590 c 0
 422 590 492 518 492 424 c 0
 492 272 357 262 357 216 c 0
 357 182 394 164 422 164 c 0
 500 164 528 212 528 420 c 0
 528 556 479 655 406 670 c 0
 368.662109375 677.671875 354 663 354 707 c 2
 354 838 l 2
 354 877 363.33203125 866.388671875 397 872 c 0
 481 886 508 995 508 1142 c 0
 508 1290 470 1346 402 1346 c 0
 374 1346 338 1330 338 1296 c 0
 338 1250 472 1260 472 1118 c 0
 472 1034 392 952 268 952 c 0
 150 952 30 1028 30 1174 c 0
 30 1368 188 1520 492 1520 c 0
 764 1520 910 1372 910 1142 c 0
 910 998 835 888 734 818 c 0
 696.049804688 791.698242188 660 789 660 775 c 0
 660 758 683.934570312 758.729492188 734 732 c 0
 852 669 930 561 930 400 c 0
 930 100 734 -20 432 -20 c 0
 148 -20 50 154 50 348 c 0
EndSplineSet
Substitution2: "'onum' Oldstyle Figures lookup 5 subtable" three.oldstyle
Substitution2: "'tnum' Tabular Numbers lookup 6 subtable" uniFF13
EndChar

StartChar: four
Encoding: 52 52 6
Width: 984
Flags: MW
Fore
SplineSet
936 164 m 2
 936 36 l 2
 936 3 928 0 894 0 c 2
 362 0 l 2
 315 0 306 1 306 48 c 2
 306 165 l 2
 306 201 313 210 350 210 c 2
 399 210 l 2
 443 210 446 217 446 262 c 2
 446 356 l 2
 446 410 446 410 392 410 c 2
 94 410 l 2
 51 410 51 418 37 444 c 2
 6 502 l 2
 -6 523 1 532 12 554 c 0
 169 868 381 1048 484 1444 c 0
 495 1486 496 1500 552 1500 c 2
 822 1500 l 2
 875 1500 884 1495 876 1448 c 0
 812 1062 533 911 337 692 c 0
 310 662 285 620 363 620 c 2
 408 620 l 2
 443 620 446 628 446 664 c 2
 446 710 l 2
 446 757 457 754 488 771 c 0
 554 806 643 854 684 940 c 0
 693 960 699 970 730 970 c 2
 796 970 l 2
 827 970 836 969 836 938 c 2
 836 678 l 2
 836 645 845 620 882 620 c 2
 930 620 l 2
 962 620 966 612 966 582 c 2
 966 466 l 2
 966 420 966 410 920 410 c 2
 890 410 l 2
 849 410 836 406 836 362 c 2
 836 262 l 2
 836 217 841 210 888 210 c 2
 892 210 l 2
 931 210 936 204 936 164 c 2
EndSplineSet
Substitution2: "'onum' Oldstyle Figures lookup 5 subtable" four.oldstyle
Substitution2: "'tnum' Tabular Numbers lookup 6 subtable" uniFF14
EndChar

StartChar: five
Encoding: 53 53 7
Width: 930
Flags: MW
Fore
SplineSet
30 318 m 0
 30 464 130 550 258 550 c 0
 382 550 462 468 462 364 c 0
 462 232 378 242 378 196 c 0
 378 162 404 144 422 144 c 0
 470 144 498 302 498 510 c 0
 498 728 480 782 442 782 c 0
 413 782 391 763 305 655 c 0
 289 634 278 624 239 624 c 2
 175 624 l 2
 121 624 126 642 131 686 c 2
 183 1460 l 2
 187 1498 197 1500 239 1500 c 2
 294 1500 l 2
 495 1500 597 1468 663 1543 c 0
 676 1558 686 1564 717 1564 c 2
 822 1564 l 2
 848 1564 859 1557 854 1534 c 2
 851 1500 l 2
 836.36328125 1334.11523438 844 1120 510 1120 c 2
 355 1120 l 2
 317 1120 305.802734375 1110.51367188 308 1078 c 2
 303 930 l 2
 305.528320312 892.576171875 296 850 304 846 c 0
 319 837 336.127929688 863.18359375 359 896 c 0
 405 962 475 1000 586 1000 c 0
 878 1000 900 780 900 500 c 0
 900 160 804 -20 462 -20 c 0
 158 -20 30 114 30 318 c 0
EndSplineSet
Substitution2: "'onum' Oldstyle Figures lookup 5 subtable" five.oldstyle
Substitution2: "'tnum' Tabular Numbers lookup 6 subtable" uniFF15
EndChar

StartChar: six
Encoding: 54 54 8
Width: 1010
Flags: MW
Fore
SplineSet
586 1342 m 0
 586 1358 576 1366 558 1366 c 0
 460 1366 454 1197 434 864 c 0
 432 829 427 815 434 811 c 0
 443 806 453.00390625 817.421875 467 842 c 0
 508 914 572 960 662 960 c 0
 884 960 980 810 980 500 c 0
 980 130 810 -20 508 -20 c 0
 186 -20 30 170 30 740 c 0
 30 1220 186 1520 558 1520 c 0
 832 1520 930 1376 930 1222 c 0
 930 1086 851 990 712 990 c 0
 578 990 488 1062 488 1176 c 0
 488 1288 586 1316 586 1342 c 0
580 470 m 0
 580 658 546 722 508 722 c 0
 472 722 430 620 430 460 c 0
 430 302 450 210 508 210 c 0
 556 210 580 292 580 470 c 0
EndSplineSet
Substitution2: "'tnum' Tabular Numbers lookup 6 subtable" uniFF16
EndChar

StartChar: seven
Encoding: 55 55 9
Width: 1027
Flags: MW
Fore
SplineSet
0.462890625 982 m 0
 10.462890625 1347 119.462890625 1520 320.462890625 1520 c 0
 514.462890625 1520 534.462890625 1400 700.462890625 1400 c 0
 768.462890625 1400 801.462890625 1427 821.462890625 1471 c 0
 829.462890625 1489 832.462890625 1500 860.462890625 1500 c 2
 989.462890625 1500 l 2
 1024.46289062 1500 1030.46289062 1493 1025.46289062 1460 c 0
 1002.46289062 1305 841.462890625 993 696.462890625 756 c 0
 592.696289062 586.395507812 548.462890625 532 548.462890625 464 c 0
 548.462890625 368 724.462890625 368 724.462890625 216 c 0
 724.462890625 102 654.462890625 -20 496.462890625 -20 c 0
 348.462890625 -20 234.462890625 74 234.462890625 252 c 0
 234.462890625 430 331.145507812 540.103515625 458.462890625 762 c 0
 528.462890625 884 568.462890625 965 664.462890625 1100 c 0
 693.462890625 1141 718.462890625 1176 708.462890625 1186 c 0
 693.462890625 1201 663.060546875 1165.31542969 640.462890625 1136 c 0
 603.462890625 1088 564.462890625 1076 510.462890625 1076 c 0
 420.462890625 1076 420.462890625 1134 338.462890625 1134 c 0
 271.462890625 1134 186.462890625 1082 176.462890625 980 c 0
 174.462890625 957 181.462890625 946 153.462890625 946 c 2
 37.462890625 946 l 2
 7.462890625 946 -0.537109375 954 0.462890625 982 c 0
EndSplineSet
Substitution2: "'onum' Oldstyle Figures lookup 5 subtable" seven.oldstyle
Substitution2: "'tnum' Tabular Numbers lookup 6 subtable" uniFF17
EndChar

StartChar: eight
Encoding: 56 56 10
Width: 1050
Flags: MW
Fore
SplineSet
430 444 m 0
 430 216 472 170 520 170 c 0
 568 170 600 216 600 444 c 0
 600 662 568 720 520 720 c 0
 472 720 430 662 430 444 c 0
60 1150 m 0
 60 1370 198 1520 520 1520 c 0
 852 1520 990 1370 990 1150 c 0
 990 1004 888 897 765 842 c 0
 734 828 709 824 709 810 c 0
 709 798 735 792 764 780 c 0
 918 716 1020 591 1020 420 c 0
 1020 160 882 -20 520 -20 c 0
 158 -20 30 160 30 420 c 0
 30 600 134 731 302 790 c 0
 323 797 336 797 336 812 c 0
 336 826 313 827 299 832 c 0
 164 884 60 994 60 1150 c 0
450 1105 m 0
 450 957 482 900 520 900 c 0
 578 900 590 957 590 1105 c 0
 590 1253 574 1330 526 1330 c 0
 478 1330 450 1253 450 1105 c 0
EndSplineSet
Substitution2: "'tnum' Tabular Numbers lookup 6 subtable" uniFF18
EndChar

StartChar: nine
Encoding: 57 57 11
Width: 1010
Flags: MW
Fore
SplineSet
424 158 m 0
 424 142 434 134 452 134 c 0
 550 134 556 303 576 636 c 0
 578 671 583 685 576 689 c 0
 567 694 556.99609375 682.578125 543 658 c 0
 502 586 438 540 348 540 c 0
 126 540 30 690 30 1000 c 0
 30 1370 200 1520 502 1520 c 0
 824 1520 980 1330 980 760 c 0
 980 280 824 -20 452 -20 c 0
 178 -20 80 124 80 278 c 0
 80 414 159 510 298 510 c 0
 432 510 522 438 522 324 c 0
 522 212 424 184 424 158 c 0
430 1030 m 0
 430 842 464 778 502 778 c 0
 538 778 580 880 580 1040 c 0
 580 1198 560 1290 502 1290 c 0
 454 1290 430 1208 430 1030 c 0
EndSplineSet
Substitution2: "'onum' Oldstyle Figures lookup 5 subtable" nine.oldstyle
Substitution2: "'tnum' Tabular Numbers lookup 6 subtable" uniFF19
EndChar

StartChar: A
Encoding: 65 65 12
Width: 1390
Flags: MW
AnchorPoint: "Anchor-0" 704 1500 basechar 0
AnchorPoint: "Anchor-1" 536 0 basechar 0
AnchorPoint: "Anchor-2" 536 0 basechar 0
AnchorPoint: "Anchor-3" 1076 0 basechar 0
Fore
SplineSet
569 999 m 2
 518 735 l 2
 511.9453125 703.658203125 491 670 545 670 c 2
 626 670 l 2
 672 670 658.2421875 702.153320312 654 731 c 2
 614 1003 l 2
 607.040039062 1050.32910156 575.205078125 1031.11914062 569 999 c 2
0 57 m 2
 0 221 l 2
 0 255 8 270 46 270 c 2
 111 270 l 2
 144 270 142 285 151 307 c 2
 428 1477 l 2
 441 1509 445 1510 491 1510 c 2
 891 1510 l 2
 938 1510 944 1499 957 1467 c 2
 1238 331 l 2
 1253 293 1248 270 1305 270 c 2
 1337 270 l 2
 1372 270 1390 270 1390 231 c 2
 1390 45 l 2
 1390 5 1384 0 1345 0 c 2
 651 0 l 2
 611 0 610 9 610 49 c 2
 610 227 l 2
 610 265 616 270 653 270 c 2
 667 270 l 2
 715 270 720.716796875 278.908203125 716 319 c 2
 708 387 l 2
 704.73046875 414.791992188 700 420 661 420 c 2
 514 420 l 2
 475 420 457.150390625 425.168945312 452 395 c 2
 438 313 l 2
 432.323242188 279.75 437 270 463 270 c 2
 467 270 l 2
 499 270 500 261 500 229 c 2
 500 37 l 2
 500 4 490 0 459 0 c 2
 66 0 l 2
 10 0 0 1 0 57 c 2
EndSplineSet
Substitution2: "'c2sc' Capitals to Small Capitals in Latin lookup 1 subtable" a.sc
EndChar

StartChar: B
Encoding: 66 66 13
Width: 1210
Flags: MW
AnchorPoint: "Anchor-0" 654 1500 basechar 0
AnchorPoint: "Anchor-1" 686 0 basechar 0
AnchorPoint: "Anchor-2" 686 0 basechar 0
Fore
SplineSet
630 270 m 2
 692 270 720 352 720 470 c 0
 720 588 672 640 630 640 c 2
 601 640 l 2
 575 640 560 624 560 596 c 2
 560 326 l 2
 560 285 566 270 605 270 c 2
 630 270 l 2
587 910 m 2
 600 910 l 2
 652 910 670 962 670 1080 c 0
 670 1198 642 1230 600 1230 c 2
 591 1230 l 2
 560 1230 560 1229 560 1198 c 2
 560 969 l 2
 560 919 563 910 587 910 c 2
730 0 m 2
 57 0 l 2
 11 0 10 19 10 66 c 2
 10 240 l 2
 10 266 21 270 45 270 c 2
 83 270 l 2
 127 270 130 287 130 332 c 2
 130 1178 l 2
 130 1214 124 1230 89 1230 c 2
 53 1230 l 2
 16 1230 10 1236 10 1272 c 2
 10 1448 l 2
 10 1488 19 1500 57 1500 c 2
 690 1500 l 2
 1002 1500 1150 1380 1150 1150 c 0
 1150 945 1034 859 905 805 c 0
 868.5078125 789.724609375 865.71875 772.110351562 911 760 c 0
 1083 714 1210 623 1210 390 c 0
 1210 120 1062 -4.06582737317e-14 730 0 c 2
EndSplineSet
Substitution2: "'c2sc' Capitals to Small Capitals in Latin lookup 1 subtable" b.sc
EndChar

StartChar: C
Encoding: 67 67 14
Width: 1208
Flags: MW
AnchorPoint: "Anchor-0" 676.398 1500 basechar 0
AnchorPoint: "Anchor-1" 677.398 0 basechar 0
AnchorPoint: "Anchor-2" 677.398 0 basechar 0
Fore
SplineSet
30.3984375 750 m 0
 30.3984375 1196 184.3984375 1540 580.3984375 1540 c 0
 720.3984375 1540 791.3984375 1487 826.3984375 1431 c 0
 853.640625 1387.41210938 855.3984375 1401 889.3984375 1444 c 2
 922.3984375 1488 l 2
 937.3984375 1507 943.3984375 1510 980.3984375 1510 c 2
 1120.3984375 1510 l 2
 1169.3984375 1510 1170.3984375 1501 1170.3984375 1452 c 2
 1170.3984375 974 l 2
 1170.3984375 936 1165.3984375 930 1125.3984375 930 c 2
 912.3984375 930 l 2
 864.3984375 930 858.3984375 941 849.3984375 977 c 0
 804.3984375 1157 810.3984375 1284 700.3984375 1284 c 0
 592.3984375 1284 550.3984375 1094 550.3984375 750 c 0
 550.3984375 406 592.3984375 228 720.3984375 228 c 0
 806.3984375 228 850.3984375 338 890.3984375 522 c 0
 902.3984375 577 909.3984375 590 958.3984375 590 c 2
 1154.3984375 590 l 2
 1207.3984375 590 1211.3984375 579 1206.3984375 542 c 0
 1164.3984375 202 1025.3984375 -40 680.3984375 -40 c 0
 194.3984375 -40 30.3984375 264 30.3984375 750 c 0
EndSplineSet
Substitution2: "'c2sc' Capitals to Small Capitals in Latin lookup 1 subtable" c.sc
EndChar

StartChar: D
Encoding: 68 68 15
Width: 1320
Flags: MW
AnchorPoint: "Anchor-0" 694 1500 basechar 0
AnchorPoint: "Anchor-1" 693 0 basechar 0
AnchorPoint: "Anchor-2" 693 0 basechar 0
Fore
SplineSet
10 34 m 2
 10 230 l 2
 10 263 18 270 49 270 c 2
 93 270 l 2
 129 270 130 279 130 316 c 2
 130 1179 l 2
 130 1222 124 1230 83 1230 c 2
 59 1230 l 2
 15 1230 10 1236 10 1278 c 2
 10 1447 l 2
 10 1492 20 1500 63 1500 c 2
 670 1500 l 2
 1216 1500 1300 1176 1300 750 c 0
 1300 324 1196 -6.44164216352e-14 670 0 c 2
 58 0 l 2
 25 0 10 1 10 34 c 2
648 270 m 2
 650 270 l 2
 778 270 810 426 810 750 c 0
 810 1074 758 1230 650 1230 c 2
 639 1230 l 2
 612 1230 600 1222 600 1174 c 2
 600 316 l 2
 600 272 603 270 648 270 c 2
EndSplineSet
Substitution2: "'c2sc' Capitals to Small Capitals in Latin lookup 1 subtable" d.sc
EndChar

StartChar: E
Encoding: 69 69 16
Width: 1170
Flags: MW
AnchorPoint: "Anchor-0" 703.835 1500 basechar 0
AnchorPoint: "Anchor-1" 675.835 0 basechar 0
AnchorPoint: "Anchor-2" 675.835 0 basechar 0
AnchorPoint: "Anchor-3" 985.835 50 basechar 0
Fore
SplineSet
85.8349609375 1230 m 2
 55.8349609375 1230 l 2
 13.8349609375 1230 9.8349609375 1238 9.8349609375 1278 c 2
 9.8349609375 1454 l 2
 9.8349609375 1499 23.8349609375 1500 65.8349609375 1500 c 2
 1097.83496094 1500 l 2
 1136.83496094 1500 1139.83496094 1489 1139.83496094 1452 c 2
 1139.83496094 948 l 2
 1139.83496094 910 1139.83496094 910 1101.83496094 910 c 2
 941.834960938 910 l 2
 911.834960938 910 909.834960938 924 908.834960938 950 c 0
 902.834960938 1154 869.834960938 1230 699.834960938 1230 c 2
 657.834960938 1230 l 2
 618.834960938 1230 599.834960938 1226 599.834960938 1183 c 2
 599.834960938 918 l 2
 599.834960938 870 605.834960938 860 617.834960938 860 c 2
 618.834960938 860 l 2
 641.834960938 860 659.834960938 945 665.834960938 1038 c 0
 667.856445312 1069.3359375 672.834960938 1086 700.834960938 1086 c 2
 811.834960938 1086 l 2
 854.834960938 1086 859.834960938 1080 859.834960938 1038 c 2
 859.834960938 458 l 2
 859.834960938 423 854.834960938 416 817.834960938 416 c 2
 709.834960938 416 l 2
 668.834960938 416 667.041992188 434.53125 664.834960938 468 c 0
 658.834960938 559 648.834960938 650 621.834960938 650 c 2
 620.834960938 650 l 2
 603.834960938 650 599.834960938 633 599.834960938 592 c 2
 599.834960938 310 l 2
 599.834960938 263 608.834960938 270 653.834960938 270 c 2
 679.834960938 270 l 2
 883.834960938 270 921.834960938 361 928.834960938 592 c 0
 930.834960938 643 924.834960938 650 979.834960938 650 c 2
 1119.83496094 650 l 2
 1164.83496094 650 1159.83496094 644 1159.83496094 600 c 2
 1159.83496094 40 l 2
 1159.83496094 -2 1157.83496094 0 1115.83496094 0 c 2
 59.8349609375 0 l 2
 19.8349609375 0 9.8349609375 -7 9.8349609375 36 c 2
 9.8349609375 238 l 2
 9.8349609375 272 12.8349609375 270 45.8349609375 270 c 2
 85.8349609375 270 l 2
 128.834960938 270 129.834960938 269 129.834960938 312 c 2
 129.834960938 1192 l 2
 129.834960938 1227 121.834960938 1230 85.8349609375 1230 c 2
EndSplineSet
Substitution2: "'c2sc' Capitals to Small Capitals in Latin lookup 1 subtable" e.sc
EndChar

StartChar: F
Encoding: 70 70 17
Width: 1150
Flags: MW
AnchorPoint: "Anchor-0" 684 1500 basechar 0
AnchorPoint: "Anchor-1" 376 0 basechar 0
AnchorPoint: "Anchor-2" 376 0 basechar 0
Fore
SplineSet
94 1230 m 2
 35 1230 l 2
 12 1230 10 1238 10 1262 c 2
 10 1474 l 2
 10 1499 19 1500 44 1500 c 2
 1104 1500 l 2
 1136 1500 1140 1493 1140 1460 c 2
 1140 921 l 2
 1140 893 1133 890 1104 890 c 2
 956 890 l 2
 920 890 911 890 910 925 c 0
 905 1135 902 1230 680 1230 c 2
 642 1230 l 2
 610 1230 600 1229 600 1197 c 2
 600 851 l 2
 600 841 603 837 609 837 c 2
 611 837 l 2
 654 837 661 929 669 1049 c 0
 670 1064 678 1066 694 1066 c 2
 837 1066 l 2
 858 1066 860 1058 860 1036 c 2
 860 406 l 2
 860 382 854 376 828 376 c 2
 708 376 l 2
 679 376 672 377 669 403 c 0
 657 521 646 615 614 615 c 2
 613 615 l 2
 601 615 600 607 600 603 c 2
 600 317 l 2
 600 277 605 270 647 270 c 2
 723 270 l 2
 760 270 760 270 760 233 c 2
 760 47 l 2
 760 5 754 0 713 0 c 2
 51 0 l 2
 18 0 10 3 10 35 c 2
 10 241 l 2
 10 269 19 270 48 270 c 2
 87 270 l 2
 127 270 130 277 130 318 c 2
 130 1195 l 2
 130 1225 122 1230 94 1230 c 2
EndSplineSet
Substitution2: "'c2sc' Capitals to Small Capitals in Latin lookup 1 subtable" f.sc
EndChar

StartChar: G
Encoding: 71 71 18
Width: 1310
Flags: MW
AnchorPoint: "Anchor-0" 666 1500 basechar 0
AnchorPoint: "Anchor-1" 637 0 basechar 0
AnchorPoint: "Anchor-2" 637 0 basechar 0
Fore
SplineSet
717 860 m 2
 1249 860 l 2
 1294 860 1300 855 1300 808 c 2
 1300 626 l 2
 1300 592 1292 590 1257 590 c 2
 1237 590 l 2
 1206 590 1200 586 1200 556 c 2
 1200 334 l 2
 1200 288 1189.11035156 277.836914062 1172 251 c 0
 1077 102 1007 -40 670 -40 c 0
 174 -40 20 264 20 750 c 0
 20 1196 164 1540 620 1540 c 0
 746 1540 823 1454 837 1425 c 0
 853.526367188 1390.76757812 868 1402 893 1434 c 2
 936 1492 l 2
 946 1505 958 1510 983 1510 c 2
 1133 1510 l 2
 1167 1510 1180 1507 1180 1474 c 2
 1180 1029 l 2
 1180 985 1179 970 1135 970 c 2
 939 970 l 2
 882 970 885.092773438 982.596679688 869 1020 c 0
 795 1192 780 1284 690 1284 c 0
 582 1284 540 1094 540 750 c 0
 540 406 572 210 660 210 c 0
 718 210 727 285 742 384 c 0
 746.563476562 414.119140625 750 431 750 474 c 2
 750 544 l 2
 750 583 747 590 709 590 c 2
 705 590 l 2
 659 590 660 610 660 652 c 2
 660 810 l 2
 660 858 672 860 717 860 c 2
EndSplineSet
Substitution2: "'c2sc' Capitals to Small Capitals in Latin lookup 1 subtable" g.sc
EndChar

StartChar: H
Encoding: 72 72 19
Width: 1440
Flags: MW
AnchorPoint: "Anchor-0" 721 1500 basechar 0
AnchorPoint: "Anchor-1" 716 0 basechar 0
AnchorPoint: "Anchor-2" 716 0 basechar 0
Fore
SplineSet
600 1188 m 2
 600 950 l 2
 600 901 612 900 662 900 c 2
 787 900 l 2
 837 900 840 911 840 962 c 2
 840 1196 l 2
 840 1228 838 1230 805 1230 c 2
 797 1230 l 2
 747 1230 740 1233 740 1282 c 2
 740 1439 l 2
 740 1493 748 1500 800 1500 c 2
 1370 1500 l 2
 1408 1500 1430 1493 1430 1451 c 2
 1430 1278 l 2
 1430 1239 1422 1230 1380 1230 c 2
 1351 1230 l 2
 1313 1230 1310 1218 1310 1179 c 2
 1310 320 l 2
 1310 282 1311 270 1349 270 c 2
 1379 270 l 2
 1424 270 1430 260 1430 213 c 2
 1430 81 l 2
 1430 8 1421 0 1350 0 c 2
 820 0 l 2
 761 0 740 7 740 70 c 2
 740 225 l 2
 740 263 753 270 789 270 c 2
 798 270 l 2
 825 270 840 271 840 318 c 2
 840 599 l 2
 840 642 831 650 791 650 c 2
 647 650 l 2
 606 650 600 640 600 597 c 2
 600 329 l 2
 600 285 601 270 645 270 c 2
 647 270 l 2
 687 270 700 267 700 228 c 2
 700 65 l 2
 700 6 674 0 620 0 c 2
 80 0 l 2
 22 0 10 6 10 67 c 2
 10 206 l 2
 10 251 12 270 57 270 c 2
 65 270 l 2
 114 270 130 271 130 320 c 2
 130 1184 l 2
 130 1225 119 1230 76 1230 c 2
 75 1230 l 2
 23 1230 10 1235 10 1290 c 2
 10 1444 l 2
 10 1493 35 1500 80 1500 c 2
 620 1500 l 2
 677 1500 700 1494 700 1432 c 2
 700 1278 l 2
 700 1235 694 1230 653 1230 c 2
 643 1230 l 2
 607 1230 600 1225 600 1188 c 2
EndSplineSet
Substitution2: "'c2sc' Capitals to Small Capitals in Latin lookup 1 subtable" h.sc
EndChar

StartChar: I
Encoding: 73 73 20
Width: 770
Flags: MW
AnchorPoint: "Anchor-0" 382 1500 basechar 0
AnchorPoint: "Anchor-1" 378 0 basechar 0
AnchorPoint: "Anchor-2" 378 0 basechar 0
AnchorPoint: "Anchor-3" 378 0 basechar 0
Fore
SplineSet
620 1178 m 2
 620 314 l 2
 620 271 630 270 674 270 c 2
 712 270 l 2
 745 270 760 269 760 236 c 2
 760 50 l 2
 760 5 754 0 710 0 c 2
 60 0 l 2
 14 0 10 9 10 56 c 2
 10 221 l 2
 10 266 23 270 65 270 c 2
 103 270 l 2
 141 270 150 276 150 317 c 2
 150 1176 l 2
 150 1219 148 1230 105 1230 c 2
 63 1230 l 2
 22 1230 10 1234 10 1278 c 2
 10 1443 l 2
 10 1491 12 1500 60 1500 c 2
 706 1500 l 2
 754 1500 760 1489 760 1444 c 2
 760 1284 l 2
 760 1236 753 1230 707 1230 c 2
 670 1230 l 2
 626 1230 620 1220 620 1178 c 2
EndSplineSet
Substitution2: "'c2sc' Capitals to Small Capitals in Latin lookup 1 subtable" i.sc
EndChar

StartChar: J
Encoding: 74 74 21
Width: 1112
Flags: MW
AnchorPoint: "Anchor-0" 636 1500 basechar 0
AnchorPoint: "Anchor-1" 448 0 basechar 0
AnchorPoint: "Anchor-2" 448 0 basechar 0
Fore
SplineSet
0 390 m 0
 0 594 88 740 268 740 c 0
 422 740 496 648 496 522 c 0
 496 342 390 304 390 248 c 0
 390 214 418 190 452 190 c 0
 504 190 522 260 522 480 c 2
 522 1172 l 2
 522 1228 509 1230 453 1230 c 2
 360 1230 l 2
 316 1230 302 1231 302 1278 c 2
 302 1442 l 2
 302 1491 303 1500 352 1500 c 2
 1062 1500 l 2
 1104 1500 1112 1493 1112 1449 c 2
 1112 1272 l 2
 1112 1231 1100 1230 1059 1230 c 2
 1010 1230 l 2
 975 1230 972 1217 972 1181 c 2
 972 540 l 2
 972 160 794 -40 432 -40 c 0
 118 -40 0 170 0 390 c 0
EndSplineSet
Substitution2: "'c2sc' Capitals to Small Capitals in Latin lookup 1 subtable" j.sc
EndChar

StartChar: K
Encoding: 75 75 22
Width: 1510
Flags: MW
AnchorPoint: "Anchor-0" 856 1500 basechar 0
AnchorPoint: "Anchor-1" 730 0 basechar 0
AnchorPoint: "Anchor-2" 730 0 basechar 0
Fore
SplineSet
10 54 m 2
 10 224 l 2
 10 262 15 270 52 270 c 2
 78 270 l 2
 126 270 130 278 130 324 c 2
 130 1194 l 2
 130 1229 118 1230 83 1230 c 2
 50 1230 l 2
 11 1230 10 1242 10 1281 c 2
 10 1454 l 2
 10 1495 24 1500 62 1500 c 2
 690 1500 l 2
 726 1500 740 1495 740 1456 c 2
 740 1290 l 2
 740 1241 736 1230 688 1230 c 2
 648 1230 l 2
 608 1230 600 1222 600 1180 c 2
 600 942 l 2
 600 870 634.4375 865.517578125 652 896 c 2
 846 1198 l 2
 861.787109375 1225.40039062 862 1230 830 1230 c 2
 823 1230 l 2
 771 1230 770 1232 770 1284 c 2
 770 1458 l 2
 770 1490 775 1500 806 1500 c 2
 1408 1500 l 2
 1439 1500 1440 1481 1440 1450 c 2
 1440 1287 l 2
 1440 1242 1439 1230 1394 1230 c 2
 1334 1230 l 2
 1277 1230 1274.96777344 1221.10839844 1258 1190 c 2
 1122 989 l 2
 1098.95507812 946.751953125 1090.52441406 930.104492188 1107 880 c 2
 1346 314 l 2
 1373 276 1379 270 1446 270 c 2
 1460 270 l 2
 1490 270 1500 263 1500 231 c 2
 1500 40 l 2
 1500 5 1484 0 1448 0 c 2
 802 0 l 2
 765 0 760 8 760 46 c 2
 760 223 l 2
 760 266 769 270 808 270 c 2
 812 270 l 2
 866 270 860.380859375 293.75390625 860 321 c 2
 764 580 l 2
 751.440429688 613.884765625 728.1171875 613.919921875 704 582 c 2
 636 472 l 2
 619.224609375 444.39453125 600 427 600 376 c 2
 600 310 l 2
 600 273 608 270 646 270 c 2
 680 270 l 2
 715 270 720 262 720 226 c 2
 720 56 l 2
 720 5 708 0 660 0 c 2
 56 0 l 2
 12 0 10 10 10 54 c 2
EndSplineSet
Substitution2: "'c2sc' Capitals to Small Capitals in Latin lookup 1 subtable" k.sc
EndChar

StartChar: L
Encoding: 76 76 23
Width: 1100
Flags: MW
AnchorPoint: "Anchor-0" 304 1500 basechar 0
AnchorPoint: "Anchor-1" 879 943 basechar 0
AnchorPoint: "Anchor-2" 646 0 basechar 0
AnchorPoint: "Anchor-3" 879 943 basechar 0
Fore
SplineSet
87 1230 m 2
 45 1230 l 2
 15 1230 10 1236 10 1268 c 2
 10 1446 l 2
 10 1491 12 1500 57 1500 c 2
 711 1500 l 2
 751 1500 760 1495 760 1452 c 2
 760 1278 l 2
 760 1234 748 1230 707 1230 c 2
 649 1230 l 2
 610 1230 600 1229 600 1190 c 2
 600 326 l 2
 600 279 602 270 649 270 c 2
 670 270 l 2
 793 270 818 348 829 646 c 0
 831 687 828 690 871 690 c 2
 1029 690 l 2
 1062 690 1070 686 1070 654 c 2
 1070 52 l 2
 1070 9 1067 0 1025 0 c 2
 55 0 l 2
 15 0 10 6 10 48 c 2
 10 234 l 2
 10 261 13 270 39 270 c 2
 77 270 l 2
 121 270 130 277 130 323 c 2
 130 1180 l 2
 130 1221 127 1230 87 1230 c 2
EndSplineSet
Substitution2: "'c2sc' Capitals to Small Capitals in Latin lookup 1 subtable" l.sc
EndChar

StartChar: M
Encoding: 77 77 24
Width: 1830
Flags: MW
AnchorPoint: "Anchor-0" 946 1500 basechar 0
AnchorPoint: "Anchor-1" 845 0 basechar 0
AnchorPoint: "Anchor-2" 845 0 basechar 0
Fore
SplineSet
142 1230 m 2
 128 1230 l 2
 81 1230 80 1229 80 1277 c 2
 80 1469 l 2
 80 1510 98 1500 136 1500 c 2
 766 1500 l 2
 845 1500 836 1473 855 1417 c 2
 916 989 l 2
 920.465820312 923.866210938 928 853 948 853 c 0
 970 853 982.27734375 886.606445312 996 957 c 2
 1087 1459 l 2
 1101 1496 1102 1500 1154 1500 c 2
 1700 1500 l 2
 1751 1500 1770 1512 1770 1457 c 2
 1770 1281 l 2
 1770 1232 1772 1230 1722 1230 c 2
 1700 1230 l 2
 1657 1230 1659 1228 1660 1187 c 2
 1690 311 l 2
 1691 276 1686 270 1724 270 c 2
 1784 270 l 2
 1817 270 1820 263 1820 229 c 2
 1820 55 l 2
 1820 12 1818 0 1772 0 c 2
 1196 0 l 2
 1152 0 1150 8 1150 53 c 2
 1150 223 l 2
 1150 268 1162 270 1204 270 c 2
 1210 270 l 2
 1252 270 1263 280 1262 322 c 2
 1250 683 l 2
 1246 822 1277 957 1240 957 c 0
 1215 957 1222.15527344 925.520507812 1204 833 c 2
 1027 21 l 2
 1012 -22 1005 -30 946 -30 c 2
 706 -30 l 2
 647 -30 639 -22 624 21 c 2
 507 887 l 2
 491.283104117 963.897354998 492 1097 466 1097 c 0
 449 1097 450 1063 446 973 c 2
 416 341 l 2
 414 293 409 270 464 270 c 2
 496 270 l 2
 533 270 540 263 540 225 c 2
 540 51 l 2
 540 2 528 0 482 0 c 2
 62 0 l 2
 15 0 10 6 10 55 c 2
 10 235 l 2
 10 263 13 270 40 270 c 2
 98 270 l 2
 158 270 145 294 148 347 c 2
 194 1195 l 2
 196 1238 184 1230 142 1230 c 2
EndSplineSet
Substitution2: "'c2sc' Capitals to Small Capitals in Latin lookup 1 subtable" m.sc
EndChar

StartChar: N
Encoding: 78 78 25
Width: 1250
Flags: MW
AnchorPoint: "Anchor-0" 806 1500 basechar 0
AnchorPoint: "Anchor-1" 606 0 basechar 0
AnchorPoint: "Anchor-2" 606 0 basechar 0
Fore
SplineSet
69 1230 m 2
 55 1230 l 2
 20 1230 10 1233 10 1267 c 2
 10 1436 l 2
 10 1494 19 1500 75 1500 c 2
 457 1500 l 2
 530 1500 545 1495 578 1459 c 2
 820 899 l 2
 834.78125 858.686523438 860 838 860 927 c 2
 860 1191 l 2
 860 1220 857 1230 829 1230 c 2
 785 1230 l 2
 741 1230 740 1241 740 1285 c 2
 740 1449 l 2
 740 1497 754 1500 799 1500 c 2
 1203 1500 l 2
 1230 1500 1240 1494 1240 1465 c 2
 1240 1293 l 2
 1240 1234 1231 1230 1191 1230 c 2
 1175 1230 l 2
 1138 1230 1130 1217 1130 1181 c 2
 1130 10 l 2
 1130 -27 1121 -30 1083 -30 c 2
 790 -30 l 2
 730 -30 716 -13 689 17 c 2
 439 693 l 2
 405 732 390 724 390 631 c 2
 390 325 l 2
 390 278 395 270 441 270 c 2
 485 270 l 2
 513 270 520 262 520 232 c 2
 520 50 l 2
 520 1 493 0 449 0 c 2
 77 0 l 2
 19 0 10 5 10 65 c 2
 10 219 l 2
 10 269 21 270 71 270 c 2
 69 270 l 2
 115 270 120 279 120 326 c 2
 120 1179 l 2
 120 1230 120 1230 69 1230 c 2
EndSplineSet
Substitution2: "'c2sc' Capitals to Small Capitals in Latin lookup 1 subtable" n.sc
EndChar

StartChar: O
Encoding: 79 79 26
Width: 1240
Flags: MW
AnchorPoint: "Anchor-0" 616 1500 basechar 0
AnchorPoint: "Anchor-1" 616 0 basechar 0
AnchorPoint: "Anchor-2" 616 0 basechar 0
Fore
SplineSet
30 750 m 0
 30 1316 164 1540 620 1540 c 0
 1076 1540 1210 1316 1210 750 c 0
 1210 184 1056 -40 620 -40 c 0
 164 -40 30 184 30 750 c 0
515 750 m 0
 515 326 542 220 620 220 c 0
 718 220 725 326 725 750 c 0
 725 1174 698 1280 620 1280 c 0
 542 1280 515 1174 515 750 c 0
EndSplineSet
Substitution2: "'c2sc' Capitals to Small Capitals in Latin lookup 1 subtable" o.sc
EndChar

StartChar: P
Encoding: 80 80 27
Width: 1230
Flags: MW
AnchorPoint: "Anchor-0" 606 1500 basechar 0
AnchorPoint: "Anchor-1" 322 0 basechar 0
AnchorPoint: "Anchor-2" 322 0 basechar 0
Fore
SplineSet
74 1230 m 2
 64 1230 l 2
 18 1230 10 1232 10 1278 c 2
 10 1448 l 2
 10 1496 21 1500 66 1500 c 2
 680 1500 l 2
 1042 1500 1220 1380 1220 1040 c 0
 1220 700 1042 560 680 560 c 2
 644 560 l 2
 601 560 600 551 600 508 c 2
 600 318 l 2
 600 274 607 270 652 270 c 2
 716 270 l 2
 758 270 760 262 760 220 c 2
 760 56 l 2
 760 10 760 0 714 0 c 2
 58 0 l 2
 18 0 10 4 10 46 c 2
 10 220 l 2
 10 263 14 270 56 270 c 2
 72 270 l 2
 128 270 130 280 130 334 c 2
 130 1182 l 2
 130 1229 121 1230 74 1230 c 2
632 830 m 2
 650 830 l 2
 702 830 720 902 720 1040 c 0
 720 1178 702 1230 650 1230 c 2
 626 1230 l 2
 591 1230 600 1221 600 1186 c 2
 600 874 l 2
 600 836 595 830 632 830 c 2
EndSplineSet
Substitution2: "'c2sc' Capitals to Small Capitals in Latin lookup 1 subtable" p.sc
EndChar

StartChar: Q
Encoding: 81 81 28
Width: 1240
Flags: MW
AnchorPoint: "Anchor-0" 666 1500 basechar 0
Fore
SplineSet
30 750 m 0
 30 1316 164 1540 620 1540 c 0
 1076 1540 1210 1316 1210 750 c 0
 1210 465 1163 233 1013 96 c 0
 972.44921875 58.9638671875 980.80859375 54.69921875 1002 35 c 0
 1018.45898438 19.7001953125 1033 6 1066 6 c 0
 1110 6 1118 42 1132 128 c 0
 1135.81933594 151.4609375 1132 164 1164 164 c 2
 1294 164 l 2
 1347 164 1354.85449219 156.381835938 1354 110 c 0
 1350 -107 1304 -350 1080 -350 c 0
 878 -350 843 -209 798 -60 c 0
 788.546875 -28.701171875 786 -21 750 -27 c 0
 696.97265625 -35.837890625 678 -40 620 -40 c 0
 164 -40 30 184 30 750 c 0
531 285 m 0
 550 244 574 220 620 220 c 0
 644 220 687.9609375 230.698242188 699 246 c 0
 715.825195312 269.321289062 709.716796875 275.8515625 693 308 c 0
 680 333 645 370 608 370 c 0
 575 370 547.747070312 362.298828125 522 343 c 0
 513.381835938 336.540039062 514.30859375 321.01953125 531 285 c 0
751 554 m 0
 754 630 755 649 755 750 c 0
 755 1074 728 1280 620 1280 c 0
 512 1280 485 1074 485 750 c 0
 485 692 485 638 487 588 c 0
 488.662109375 546.440429688 494.921875 530.168945312 505 582 c 0
 519 654 567 706 614 706 c 0
 676 706 709.733398438 639.47265625 725 579 c 0
 737.83203125 528.170898438 749.104492188 505.985351562 751 554 c 0
EndSplineSet
Substitution2: "'c2sc' Capitals to Small Capitals in Latin lookup 1 subtable" q.sc
EndChar

StartChar: R
Encoding: 82 82 29
Width: 1356
Flags: MW
AnchorPoint: "Anchor-0" 686 1500 basechar 0
AnchorPoint: "Anchor-1" 676 0 basechar 0
AnchorPoint: "Anchor-2" 676 0 basechar 0
Fore
SplineSet
1386 273 m 0
 1344 95 1260 -40 1050 -40 c 0
 554 -40 883 620 650 620 c 2
 638 620 l 2
 600 620 600 610 600 572 c 2
 600 310 l 2
 600 279 601 270 632 270 c 2
 674 270 l 2
 710 270 720 263 720 224 c 2
 720 72 l 2
 720 13 719 0 660 0 c 2
 53 0 l 2
 19 0 10 5 10 38 c 2
 10 226 l 2
 10 263 16 270 52 270 c 2
 73 270 l 2
 120 270 130 276 130 322 c 2
 130 1179 l 2
 130 1225 119 1230 76 1230 c 2
 56 1230 l 2
 14 1230 10 1242 10 1282 c 2
 10 1462 l 2
 10 1496 20 1500 55 1500 c 2
 720 1500 l 2
 1062 1500 1190 1300 1190 1110 c 0
 1190 949 1168 835 1083 742 c 0
 1046.91433886 702.518041337 1014 707 1066 678 c 0
 1308 545 1103 308 1218 308 c 0
 1244 308 1246.28931379 323.091857449 1256 358 c 0
 1263.34863281 384.416992188 1282.64941406 388.471679688 1321 374 c 2
 1374 354 l 2
 1405.67800705 342.046035077 1395.93616488 315.110413057 1386 273 c 0
641 880 m 2
 649 880 l 2
 711 880 720 952 720 1050 c 0
 720 1148 711 1230 649 1230 c 2
 631 1230 l 2
 593 1230 600 1221 600 1182 c 2
 600 926 l 2
 600 877 593 880 641 880 c 2
EndSplineSet
Substitution2: "'c2sc' Capitals to Small Capitals in Latin lookup 1 subtable" r.sc
Substitution2: "'ss01' Style Set 1 lookup 2 subtable" R.alt
EndChar

StartChar: S
Encoding: 83 83 30
Width: 1070
Flags: MW
AnchorPoint: "Anchor-0" 626 1500 basechar 0
AnchorPoint: "Anchor-1" 615 0 basechar 0
AnchorPoint: "Anchor-2" 615 0 basechar 0
Fore
SplineSet
774 1017 m 0
 726 1173 661 1228 590 1228 c 0
 528 1228 502 1204 502 1156 c 0
 502 916 1060 940 1060 380 c 0
 1060 80 872 -40 670 -40 c 0
 450 -40 400 34 362 87 c 0
 327.779737251 134.728261202 324 103 294 51 c 2
 276 17 l 2
 263 -6 246 -10 209 -10 c 2
 84 -10 l 2
 45 -10 30 -3 30 35 c 2
 30 537 l 2
 30 579 33 590 74 590 c 2
 220 590 l 2
 267 590 256.278320312 581.887695312 263 541 c 0
 287 395 363 252 480 252 c 0
 572 252 610 292 610 370 c 0
 610 680 60 628 60 1128 c 0
 60 1398 228 1530 430 1530 c 0
 552 1530 619 1473 676 1415 c 0
 710.065573539 1380.33678482 709 1383 738 1430 c 2
 763 1473 l 2
 775 1492 775 1500 808 1500 c 2
 962 1500 l 2
 997 1500 1010 1491 1010 1454 c 2
 1010 1005 l 2
 1010 957 1003 950 953 950 c 2
 844 950 l 2
 778 950 789.630877273 966.199648863 774 1017 c 0
EndSplineSet
Substitution2: "'c2sc' Capitals to Small Capitals in Latin lookup 1 subtable" s.sc
EndChar

StartChar: T
Encoding: 84 84 31
Width: 1250
Flags: MW
AnchorPoint: "Anchor-0" 620 1500 basechar 0
AnchorPoint: "Anchor-1" 621 0 basechar 0
AnchorPoint: "Anchor-2" 621 0 basechar 0
Fore
SplineSet
270 51 m 2
 270 220 l 2
 270 260 277 270 316 270 c 2
 348 270 l 2
 401 270 410 282 410 335 c 2
 410 1202 l 2
 410 1226 411 1240 386 1240 c 2
 380 1240 l 2
 331 1240 277 1174 271 927 c 0
 270 879 256 870 204 870 c 2
 83 870 l 2
 44 870 30 872 30 911 c 2
 30 1442 l 2
 30 1485 31 1500 74 1500 c 2
 1180 1500 l 2
 1212 1500 1220 1487 1220 1452 c 2
 1220 927 l 2
 1220 876 1211 870 1158 870 c 2
 1040 870 l 2
 988 870 980 876 979 925 c 0
 973 1174 940 1240 880 1240 c 2
 868 1240 l 2
 838 1240 840 1226 840 1197 c 2
 840 350 l 2
 840 287 843 270 906 270 c 2
 923 270 l 2
 969 270 980 258 980 215 c 2
 980 55 l 2
 980 7 970 0 924 0 c 2
 324 0 l 2
 282 0 270 6 270 51 c 2
EndSplineSet
Substitution2: "'c2sc' Capitals to Small Capitals in Latin lookup 1 subtable" t.sc
EndChar

StartChar: U
Encoding: 85 85 32
Width: 1340
Flags: MW
AnchorPoint: "Anchor-0" 791 1500 basechar 0
AnchorPoint: "Anchor-1" 761 0 basechar 0
AnchorPoint: "Anchor-2" 761 0 basechar 0
AnchorPoint: "Anchor-3" 1156 190 basechar 0
Fore
SplineSet
876 1230 m 2
 850 1230 l 2
 802 1230 790 1242 790 1287 c 2
 790 1427 l 2
 790 1481 792 1500 846 1500 c 2
 1282 1500 l 2
 1325 1500 1330 1491 1330 1446 c 2
 1330 1285 l 2
 1330 1237 1323 1230 1283 1230 c 2
 1272 1230 l 2
 1220 1230 1210 1223 1210 1169 c 2
 1210 600 l 2
 1210 170 1066 -40 690 -40 c 0
 164 -40 130 254 130 620 c 2
 130 1179 l 2
 130 1225 120 1230 76 1230 c 2
 70 1230 l 2
 21 1230 10 1232 10 1281 c 2
 10 1437 l 2
 10 1486 17 1500 64 1500 c 2
 688 1500 l 2
 725 1500 730 1491 730 1452 c 2
 730 1279 l 2
 730 1239 724 1230 681 1230 c 2
 656 1230 l 2
 602 1230 600 1219 600 1164 c 2
 600 660 l 2
 600 376 612 254 770 254 c 0
 888 254 930 336 930 600 c 2
 930 1179 l 2
 930 1224 918 1230 876 1230 c 2
EndSplineSet
Substitution2: "'c2sc' Capitals to Small Capitals in Latin lookup 1 subtable" u.sc
EndChar

StartChar: V
Encoding: 86 86 33
Width: 1390
Flags: MW
AnchorPoint: "Anchor-0" 845 1500 basechar 0
AnchorPoint: "Anchor-1" 721 0 basechar 0
AnchorPoint: "Anchor-2" 721 0 basechar 0
Fore
SplineSet
821 501 m 2
 952 1187 l 2
 965 1219 963 1230 927 1230 c 2
 923 1230 l 2
 891 1230 890 1239 890 1271 c 2
 890 1463 l 2
 890 1496 900 1500 931 1500 c 2
 1324 1500 l 2
 1380 1500 1390 1499 1390 1443 c 2
 1390 1279 l 2
 1390 1245 1382 1230 1344 1230 c 2
 1279 1230 l 2
 1246 1230 1248 1215 1239 1193 c 2
 962 23 l 2
 949 -9 945 -10 899 -10 c 2
 499 -10 l 2
 452 -10 446 1 433 33 c 2
 152 1169 l 2
 137 1207 142 1230 85 1230 c 2
 53 1230 l 2
 18 1230 0 1230 0 1269 c 2
 0 1455 l 2
 0 1495 6 1500 45 1500 c 2
 739 1500 l 2
 779 1500 780 1491 780 1451 c 2
 780 1273 l 2
 780 1235 774 1230 737 1230 c 2
 723 1230 l 2
 665 1230 660 1220 674 1181 c 2
 776 497 l 2
 792 451 808 470 821 501 c 2
EndSplineSet
Substitution2: "'c2sc' Capitals to Small Capitals in Latin lookup 1 subtable" v.sc
EndChar

StartChar: W
Encoding: 87 87 34
Width: 1920
Flags: MW
AnchorPoint: "Anchor-0" 1056 1500 basechar 0
AnchorPoint: "Anchor-1" 966 0 basechar 0
AnchorPoint: "Anchor-2" 966 0 basechar 0
Fore
SplineSet
804 936 m 2
 853 1092 l 2
 865.194335938 1130.82324219 871.021484375 1137.86816406 867 1162 c 2
 859 1210 l 2
 856.081054688 1227.51367188 848 1230 825 1230 c 2
 809 1230 l 2
 771 1230 770 1239 770 1278 c 2
 770 1435 l 2
 770 1489 771 1500 825 1500 c 2
 1293 1500 l 2
 1327 1500 1370 1498 1370 1460 c 2
 1370 1294 l 2
 1370 1251 1369 1230 1352 1230 c 2
 1330 1230 l 2
 1313 1230 1307.0390625 1220.85546875 1314 1188 c 2
 1339 1070 l 2
 1352.67578125 1005.44824219 1373 903 1399 903 c 0
 1408 903 1420.89355469 920.262695312 1430 956 c 2
 1483 1164 l 2
 1495.76074219 1214.08007812 1503 1230 1469 1230 c 2
 1457 1230 l 2
 1432 1230 1420 1236 1420 1284 c 2
 1420 1442 l 2
 1420 1494 1427 1500 1477 1500 c 2
 1859 1500 l 2
 1900 1500 1920 1498 1920 1453 c 2
 1920 1272 l 2
 1920 1233 1911 1230 1871 1230 c 2
 1853 1230 l 2
 1793 1230 1783.09375 1216.12207031 1773 1172 c 2
 1509 18 l 2
 1500.30957031 -19.986328125 1485 -20 1436 -20 c 2
 1204 -20 l 2
 1147.73535156 -20 1143.67089844 -11.1728515625 1137 32 c 2
 1048 608 l 2
 1039.97949219 659.908203125 1045 693 1003 693 c 0
 973 693 968.108398438 664.856445312 960 628 c 2
 828 28 l 2
 819.405273438 -11.0693359375 812 -20 754 -20 c 2
 542 -20 l 2
 479 -20 470.771484375 -19.8984375 458 26 c 2
 138 1176 l 2
 121 1224 121 1230 53 1230 c 2
 47 1230 l 2
 7 1230 0 1235 0 1276 c 2
 0 1448 l 2
 0 1498 16 1500 63 1500 c 2
 631 1500 l 2
 684 1500 700 1499 700 1442 c 2
 700 1290 l 2
 700 1239 688 1230 667 1230 c 2
 663 1230 l 2
 655 1230 644 1230 655 1196 c 2
 701 1024 l 2
 720 965 732 882 756 882 c 0
 777 882 793.12890625 901.388671875 804 936 c 2
EndSplineSet
Substitution2: "'c2sc' Capitals to Small Capitals in Latin lookup 1 subtable" w.sc
EndChar

StartChar: X
Encoding: 88 88 35
Width: 1370
Flags: MW
AnchorPoint: "Anchor-0" 776 1500 basechar 0
AnchorPoint: "Anchor-1" 626 0 basechar 0
AnchorPoint: "Anchor-2" 626 0 basechar 0
Fore
SplineSet
0 59 m 2
 0 211 l 2
 0 258 1 270 48 270 c 2
 60 270 l 2
 115 270 129.198242188 274.5546875 148 305 c 2
 366 658 l 2
 399.869140625 712.842773438 392.419921875 736.828125 362 791 c 2
 143 1181 l 2
 122.813476562 1216.94921875 110 1230 76 1230 c 2
 66 1230 l 2
 16 1230 10 1236 10 1288 c 2
 10 1431 l 2
 10 1489 12 1500 70 1500 c 2
 692 1500 l 2
 737 1500 750 1496 750 1448 c 2
 750 1280 l 2
 750 1240 748 1230 708 1230 c 2
 706 1230 l 2
 663 1230 671.575195312 1208.22460938 683 1181 c 2
 730 1069 l 2
 750.493164062 1020.16601562 771.185546875 1037.46289062 791 1087 c 2
 831 1187 l 2
 846.38671875 1225.46679688 831 1230 818 1230 c 2
 810 1230 l 2
 787 1230 780 1233 780 1275 c 2
 780 1446 l 2
 780 1492 783 1500 828 1500 c 2
 1296 1500 l 2
 1325 1500 1330 1492 1330 1461 c 2
 1330 1275 l 2
 1330 1232 1322 1230 1278 1230 c 2
 1270 1230 l 2
 1222 1230 1203.74414062 1230.33789062 1188 1204 c 2
 974 846 l 2
 949.655273438 805.2734375 968.376953125 789.666992188 1002 731 c 2
 1245 307 l 2
 1262.15039062 277.07421875 1283 270 1316 270 c 2
 1326 270 l 2
 1355 270 1370 263 1370 225 c 2
 1370 43 l 2
 1370 2 1362 0 1320 0 c 2
 686 0 l 2
 642 0 630 1 630 45 c 2
 630 222 l 2
 630 260 632 270 650 270 c 2
 664 270 l 2
 700 270 693.977539062 292.755859375 676 329 c 2
 614 454 l 2
 603.299804688 475.573242188 593.186523438 475.864257812 584 461 c 2
 495 317 l 2
 474.532226562 283.883789062 478 270 504 270 c 2
 522 270 l 2
 544 270 560 260 560 215 c 2
 560 79 l 2
 560 18 543 0 486 0 c 2
 48 0 l 2
 1 0 0 11 0 59 c 2
EndSplineSet
Substitution2: "'c2sc' Capitals to Small Capitals in Latin lookup 1 subtable" x.sc
EndChar

StartChar: Y
Encoding: 89 89 36
Width: 1380
Flags: MW
AnchorPoint: "Anchor-0" 786 1500 basechar 0
AnchorPoint: "Anchor-1" 701 0 basechar 0
AnchorPoint: "Anchor-2" 701 0 basechar 0
Fore
SplineSet
350 36 m 2
 350 224 l 2
 350 262 353 270 390 270 c 2
 426 270 l 2
 466 270 470 278 470 319 c 2
 470 463 l 2
 470 517 456.802734375 528.931640625 441 561 c 2
 134 1184 l 2
 116.025390625 1220.4765625 109 1230 49 1230 c 2
 43 1230 l 2
 1 1230 0 1239 0 1281 c 2
 0 1430 l 2
 0 1492 19 1500 77 1500 c 2
 671 1500 l 2
 722 1500 740 1497 740 1442 c 2
 740 1277 l 2
 740 1237 729 1230 704 1230 c 2
 699 1230 l 2
 659 1230 659.955078125 1220.54394531 680 1176 c 2
 752 1016 l 2
 789.020507812 933.733398438 787.650390625 942.522460938 823 1020 c 2
 896 1180 l 2
 916.361328125 1224.62792969 899 1230 877 1230 c 2
 870 1230 l 2
 849 1230 830 1232 830 1283 c 2
 830 1450 l 2
 830 1495 836 1500 880 1500 c 2
 1331 1500 l 2
 1365 1500 1380 1499 1380 1461 c 2
 1380 1257 l 2
 1380 1232 1369 1230 1343 1230 c 2
 1307 1230 l 2
 1288 1230 1277.25976562 1222.62109375 1259 1188 c 2
 980 659 l 2
 960.698242188 622.40234375 940 616 940 553 c 2
 940 317 l 2
 940 279 943 270 980 270 c 2
 1039 270 l 2
 1078 270 1080 261 1080 221 c 2
 1080 39 l 2
 1080 8 1076 0 1046 0 c 2
 382 0 l 2
 355 0 350 7 350 36 c 2
EndSplineSet
Substitution2: "'c2sc' Capitals to Small Capitals in Latin lookup 1 subtable" y.sc
EndChar

StartChar: Z
Encoding: 90 90 37
Width: 1190
Flags: MW
AnchorPoint: "Anchor-0" 406 1500 basechar 0
AnchorPoint: "Anchor-1" 436 0 basechar 0
AnchorPoint: "Anchor-2" 436 0 basechar 0
Fore
SplineSet
70 1500 m 2
 1036 1500 l 2
 1085 1500 1100 1490 1100 1438 c 2
 1100 1172 l 2
 1100 1102 1076.34082031 1061.60449219 1052 1024 c 2
 632 367 l 2
 613.665039062 333.952148438 597 308 597 288 c 0
 597 277 602 270 650 270 c 2
 690 270 l 2
 890 270 908 386 919 626 c 0
 921 681 924 690 980 690 c 2
 1108 690 l 2
 1155 690 1160 656 1160 614 c 2
 1160 62 l 2
 1160 4 1150 0 1094 0 c 2
 78 0 l 2
 20 0 10 2 10 60 c 2
 10 240 l 2
 10 307 31.9189453125 337.741210938 56 374 c 2
 532 1166 l 2
 546.572265625 1187.94042969 562 1198 562 1208 c 0
 562 1224 545 1230 520 1230 c 2
 500 1230 l 2
 350 1230 270 1103 261 896 c 0
 259 850 260 850 212 850 c 2
 56 850 l 2
 20 850 20 850 20 886 c 2
 20 1456 l 2
 20 1498 28 1500 70 1500 c 2
EndSplineSet
Substitution2: "'c2sc' Capitals to Small Capitals in Latin lookup 1 subtable" z.sc
EndChar

StartChar: a
Encoding: 97 97 38
Width: 1087
Flags: MW
AnchorPoint: "Anchor-0" 476.656 1040 basechar 0
AnchorPoint: "Anchor-1" 489.656 0 basechar 0
AnchorPoint: "Anchor-2" 489.656 0 basechar 0
AnchorPoint: "Anchor-3" 1009.66 90 basechar 0
Fore
SplineSet
9.65625 256 m 0
 9.65625 484 193.65625 588 467.65625 588 c 2
 515.65625 588 l 2
 538.65625 588 541.65625 590 541.65625 614 c 2
 541.65625 664 l 2
 541.65625 768 582.65625 898 502.65625 898 c 0
 472.65625 898 440.65625 880 440.65625 868 c 0
 440.65625 845 487.65625 844 487.65625 756 c 0
 487.65625 658 395.65625 600 287.65625 600 c 0
 165.65625 600 69.65625 678 69.65625 786 c 0
 69.65625 940 223.65625 1070 515.65625 1070 c 0
 795.65625 1070 951.65625 946 951.65625 694 c 2
 951.65625 232 l 2
 951.65625 192 965.65625 184 973.65625 184 c 0
 981.65625 184 997.65625 194 1001.65625 297 c 0
 1002.1953125 310.8828125 1013.65625 317 1024.65625 314 c 1
 1128.65625 294 l 2
 1140.37695312 291.74609375 1135.15917969 284.309570312 1134.65625 270 c 0
 1127.65625 71 1036.65625 -20 825.65625 -20 c 0
 824.65625 -20 l 0
 673.65625 -20 590.365234375 21.0341796875 538.65625 88 c 0
 522.748046875 108.6015625 523.6953125 117.032226562 506.65625 91 c 0
 470.65625 36 450.65625 -20 279.65625 -20 c 0
 111.65625 -20 9.65625 78 9.65625 256 c 0
463.65625 316 m 0
 463.65625 232 489.65625 199 509.65625 199 c 0
 531.65625 199 551.65625 250 551.65625 342 c 2
 551.65625 410 l 2
 551.65625 427 545.65625 437 533.65625 437 c 2
 520.65625 437 l 2
 498.65625 437 463.65625 420 463.65625 316 c 0
EndSplineSet
Substitution2: "'smcp' Lowercase to Small Capitals in Latin lookup 0 subtable" a.sc
EndChar

StartChar: b
Encoding: 98 98 39
Width: 1116
Flags: MW
AnchorPoint: "Anchor-0" 737 1040 basechar 0
AnchorPoint: "Anchor-1" 550 0 basechar 0
AnchorPoint: "Anchor-2" 550 0 basechar 0
Fore
SplineSet
510 520 m 0
 510 262 534 204 576 204 c 0
 614 204 646 262 646 520 c 0
 646 778 614 836 576 836 c 0
 524 836 510 778 510 520 c 0
46 1350 m 2
 15 1350 10 1354 10 1384 c 2
 10 1529 l 2
 10 1556 21 1560 46 1560 c 2
 462 1560 l 2
 494 1560 510 1559 510 1524 c 2
 510 943 l 2
 510 902 517.556640625 898.74609375 526 916 c 0
 572 1010 608 1078 772 1078 c 0
 1010 1078 1086 880 1086 520 c 0
 1086 160 1000 -40 742 -40 c 0
 608 -40 566 8 533 103 c 0
 523.989257812 128.938476562 510 123 510 84 c 2
 510 36 l 2
 510 2 497 0 466 0 c 2
 44 0 l 2
 17 0 10 5 10 34 c 2
 10 178 l 2
 10 207 23 210 50 210 c 2
 52 210 l 2
 86 210 90 217 90 252 c 2
 90 1323 l 2
 90 1343 87 1350 68 1350 c 2
 46 1350 l 2
EndSplineSet
Substitution2: "'smcp' Lowercase to Small Capitals in Latin lookup 0 subtable" b.sc
EndChar

StartChar: c
Encoding: 99 99 40
Width: 988
Flags: MW
AnchorPoint: "Anchor-0" 566 1040 basechar 0
AnchorPoint: "Anchor-1" 564 0 basechar 0
AnchorPoint: "Anchor-2" 564 0 basechar 0
Fore
SplineSet
30 510 m 0
 30 810 146 1080 558 1080 c 0
 882 1080 958 918 958 744 c 0
 958 588 830 500 692 500 c 0
 558 500 508 552 508 666 c 0
 508 788 590 788 590 852 c 0
 590 878 574 898 548 898 c 0
 478 898 470 788 470 510 c 0
 470 212 492 166 560 166 c 0
 608 166 625 238 633 321 c 0
 635.104492188 342.831054688 651 346 682 346 c 2
 928 346 l 2
 962 346 959.22265625 342.891601562 959 315 c 0
 957 64 828 -40 526 -40 c 0
 114 -40 30 230 30 510 c 0
EndSplineSet
Substitution2: "'smcp' Lowercase to Small Capitals in Latin lookup 0 subtable" c.sc
EndChar

StartChar: d
Encoding: 100 100 41
Width: 1116
Flags: MW
AnchorPoint: "Anchor-0" 401 1040 basechar 0
AnchorPoint: "Anchor-1" 1289 1040 basechar 0
AnchorPoint: "Anchor-2" 522 0 basechar 0
AnchorPoint: "Anchor-3" 1289 1040 basechar 0
Fore
SplineSet
470 518 m 0
 470 250 492 202 540 202 c 0
 582 202 606 250 606 518 c 0
 606 786 582 834 540 834 c 0
 502 834 470 786 470 518 c 0
30 518 m 0
 30 878 116.001953125 1079.11425781 374 1078 c 0
 483 1077.52929688 553 1020.96972656 587 935 c 0
 599.552734375 903.259765625 606 918 606 973 c 2
 606 1324 l 2
 606 1345 598 1350 579 1350 c 2
 561 1350 l 2
 530 1350 526 1351 526 1382 c 2
 526 1522 l 2
 526 1557 534 1560 570 1560 c 2
 991 1560 l 2
 1016 1560 1026 1556 1026 1529 c 2
 1026 255 l 2
 1026 216 1030 210 1068 210 c 2
 1083 210 l 2
 1105 210 1106 201 1106 178 c 2
 1106 35 l 2
 1106 4 1100 0 1068 0 c 2
 637 0 l 2
 609 0 606 7 606 36 c 2
 606 87 l 2
 606 111 594.373046875 129.083007812 581 98 c 0
 544 12 480 -40 354 -40 c 0
 96 -40 30 158 30 518 c 0
EndSplineSet
Substitution2: "'smcp' Lowercase to Small Capitals in Latin lookup 0 subtable" d.sc
EndChar

StartChar: e
Encoding: 101 101 42
Width: 968
Flags: MW
AnchorPoint: "Anchor-0" 535 1040 basechar 0
AnchorPoint: "Anchor-1" 567 0 basechar 0
AnchorPoint: "Anchor-2" 567 0 basechar 0
AnchorPoint: "Anchor-3" 798 102 basechar 0
Fore
SplineSet
30 500 m 0
 30 820 128 1080 530 1080 c 0
 860 1080 938 816 938 490 c 0
 938 459 934 452 904 452 c 2
 478 452 l 2
 450 452 454.823242188 447.079101562 455 422 c 0
 456 280 457 166 530 166 c 0
 599 166 606 218 614 322 c 0
 615.26953125 338.50390625 626 346 650 346 c 2
 902 346 l 2
 930 346 931.763671875 342.4921875 930 320 c 0
 910 65 780 -40 496 -40 c 0
 124 -40 30 220 30 500 c 0
486 658 m 2
 522 658 l 2
 550 658 547.016601562 657.944335938 548 685 c 0
 552 795 546 882 508 882 c 0
 462 882 464 806 460 695 c 0
 458.9453125 665.744140625 451 658 486 658 c 2
EndSplineSet
Substitution2: "'smcp' Lowercase to Small Capitals in Latin lookup 0 subtable" e.sc
EndChar

StartChar: f
Encoding: 102 102 43
Width: 700
Flags: MW
AnchorPoint: "Anchor-0" 539 1692 basechar 0
AnchorPoint: "Anchor-1" 321 0 basechar 0
AnchorPoint: "Anchor-2" 321 0 basechar 0
Fore
SplineSet
510 787 m 2
 510 248 l 2
 510 215 516 210 551 210 c 2
 593 210 l 2
 632 210 650 206 650 163 c 2
 650 46 l 2
 650 3 643 0 599 0 c 2
 67 0 l 2
 25 0 10 6 10 51 c 2
 10 155 l 2
 10 196 12 210 43 210 c 2
 51 210 l 2
 71 210 90 212 90 252 c 2
 90 796 l 2
 90 822 88 830 63 830 c 2
 51 830 l 2
 20 830 10 831 10 862 c 2
 10 1000 l 2
 10 1031 14 1040 47 1040 c 2
 51 1040 l 2
 84 1040 90 1046 90 1078 c 2
 90 1144 l 2
 90 1366 194 1600 554 1600 c 0
 856 1600 950 1462 950 1308 c 0
 950 1148 840 1086 716 1086 c 0
 592 1086 526 1162 526 1272 c 0
 526 1366 578 1380 578 1402 c 0
 578 1416 560 1426 540 1426 c 0
 430 1426 510 1234 510 1100 c 2
 510 1063 l 2
 510 1042 515 1040 535 1040 c 2
 616 1040 l 2
 649 1040 650 1036 650 1004 c 2
 650 867 l 2
 650 834 648 830 615 830 c 2
 557 830 l 2
 520 830 510 824 510 787 c 2
EndSplineSet
Substitution2: "'smcp' Lowercase to Small Capitals in Latin lookup 0 subtable" f.sc
EndChar

StartChar: g
Encoding: 103 103 44
Width: 879
Flags: MW
AnchorPoint: "Anchor-0" 582 1040 basechar 0
AnchorPoint: "Anchor-1" 506 -565 basechar 0
AnchorPoint: "Anchor-2" 506 -565 basechar 0
Fore
SplineSet
385 710 m 0
 385 542 395 520 423 520 c 0
 451 520 461 542 461 710 c 0
 461 878 451 900 423 900 c 0
 395 900 385 878 385 710 c 0
25 710 m 0
 25 950 211 1080 373 1080 c 0
 375.147460938 1080 377.143554688 1080.00097656 379 1080.00976562 c 0
 405.233398438 1080.140625 403.5703125 1082.02539062 408.379882812 1109 c 0
 431.639648438 1239.47265625 483.1015625 1382.00488281 692.228515625 1382.00488281 c 0
 820.853515625 1382.00488281 903.518554688 1296.45507812 903.518554688 1196.10839844 c 0
 903.518554688 1113.4453125 854.260742188 1015.13476562 768.647460938 1015.13476562 c 0
 704.6015625 1015.13476562 640.395507812 1068.76074219 640.395507812 1125.58789062 c 0
 640.395507812 1133.03515625 641.051757812 1139.59960938 641.051757812 1145.17382812 c 0
 641.051757812 1153.03808594 638.373046875 1163.12890625 630.817382812 1163.12890625 c 0
 605.2734375 1163.12890625 594.616210938 1101.9375 592.325195312 1080 c 0
 589.796875 1055.78710938 589.142578125 1050.57128906 606.78125 1043 c 0
 737.545898438 986.872070312 831 870.611328125 831 720 c 0
 831 480 655 340 423 340 c 0
 418 340 404 341 391 342 c 0
 381.989257812 342.693359375 373.51171875 340.51171875 363 330 c 0
 354 321 345 312 345 294 c 0
 345 266 359 238 429 238 c 0
 479 238 545 240 611 240 c 0
 811 240 905 108 905 -124 c 0
 905 -406 735 -530 425 -530 c 0
 119 -530 -5 -420 -5 -270 c 0
 -5 -169 38 -100 129 -55 c 0
 156.802734375 -41.251953125 156 -37 133 -21 c 0
 65 26 19 87 19 168 c 0
 19 275 83 343 186 391 c 0
 213 404 212 413 191 426 c 0
 91 489 25 584 25 710 c 0
597 -202 m 0
 597 -134 575 -104 535 -104 c 0
 513 -104 499 -104 485 -104 c 0
 463 -104 443 -104 421 -102 c 0
 399.874023438 -100.079101562 384 -97 371 -110 c 0
 346 -135 335 -174 335 -204 c 0
 335 -300 395 -326 457 -326 c 0
 535 -326 597 -276 597 -202 c 0
EndSplineSet
Substitution2: "'smcp' Lowercase to Small Capitals in Latin lookup 0 subtable" g.sc
EndChar

StartChar: h
Encoding: 104 104 45
Width: 1120
Flags: MW
AnchorPoint: "Anchor-0" 818 1039 basechar 0
AnchorPoint: "Anchor-1" 559 0 basechar 0
AnchorPoint: "Anchor-2" 559 0 basechar 0
Fore
SplineSet
54 1350 m 2
 50 1350 l 2
 15 1350 10 1357 10 1401 c 2
 10 1507 l 2
 10 1553 15 1560 56 1560 c 2
 414 1560 l 2
 445 1560 470 1552 470 1510 c 2
 470 954 l 2
 470 905 475.541992188 882.388671875 491 922 c 0
 523 1004 587 1060 716 1060 c 0
 940 1060 1030 952 1030 738 c 2
 1030 253 l 2
 1030 213 1037 210 1068 210 c 2
 1074 210 l 2
 1100 210 1110 201 1110 173 c 2
 1110 52 l 2
 1110 2 1109 0 1062 0 c 2
 611 0 l 2
 574 0 571 8 571 46 c 2
 571 164 l 2
 571 192 571 210 593 210 c 2
 594 210 l 2
 610 210 610 214 610 249 c 2
 610 676 l 2
 610 784 599 816 557 816 c 0
 521 816 510 782 510 626 c 2
 510 249 l 2
 510 219 513 210 529 210 c 2
 531 210 l 2
 549 210 551 206 551 173 c 2
 551 37 l 2
 551 2 533 0 501 0 c 2
 42 0 l 2
 11 0 10 9 10 41 c 2
 10 168 l 2
 10 204 15 210 50 210 c 2
 60 210 l 2
 86 210 90 211 90 252 c 2
 90 1304 l 2
 90 1345 84 1350 54 1350 c 2
EndSplineSet
Substitution2: "'smcp' Lowercase to Small Capitals in Latin lookup 0 subtable" h.sc
EndChar

StartChar: i
Encoding: 105 105 46
Width: 600
Flags: MW
AnchorPoint: "Anchor-1" 292 0 basechar 0
AnchorPoint: "Anchor-2" 292 0 basechar 0
Fore
SplineSet
50 1380 m 0
 50 1516 158 1590 290 1590 c 0
 422 1590 530 1516 530 1380 c 0
 530 1244 422 1170 290 1170 c 0
 158 1170 50 1244 50 1380 c 0
71 830 m 2
 36 830 l 2
 18 830 10 833 10 850 c 2
 10 1012 l 2
 10 1035 18 1040 40 1040 c 2
 485 1040 l 2
 504 1040 510 1039 510 1020 c 2
 510 235 l 2
 510 215 511 210 531 210 c 2
 562 210 l 2
 585 210 590 209 590 186 c 2
 590 31 l 2
 590 2 582 0 552 0 c 2
 34 0 l 2
 14 0 10 4 10 25 c 2
 10 181 l 2
 10 206 13 210 37 210 c 2
 64 210 l 2
 85 210 90 211 90 232 c 2
 90 804 l 2
 90 821 87 830 71 830 c 2
EndSplineSet
Substitution2: "'smcp' Lowercase to Small Capitals in Latin lookup 0 subtable" i.sc
EndChar

StartChar: j
Encoding: 106 106 47
Width: 600
Flags: MW
AnchorPoint: "Anchor-1" 142 -565 basechar 0
AnchorPoint: "Anchor-2" 142 -565 basechar 0
Fore
SplineSet
80 1380 m 0
 80 1516 188 1590 320 1590 c 0
 452 1590 560 1516 560 1380 c 0
 560 1244 452 1170 320 1170 c 0
 188 1170 80 1244 80 1380 c 0
96 830 m 2
 82 830 l 2
 45 830 40 836 40 875 c 2
 40 989 l 2
 40 1035 46 1040 90 1040 c 2
 504 1040 l 2
 537 1040 540 1033 540 999 c 2
 540 -64 l 2
 540 -386 406 -520 106 -520 c 0
 -136 -520 -330 -422 -330 -228 c 0
 -330 -108 -230 -16 -106 -16 c 0
 38 -16 134 -102 134 -192 c 0
 134 -306 54 -302 54 -324 c 0
 54 -340 76 -350 112 -350 c 0
 312 -350 120 -84 120 190 c 2
 120 797 l 2
 120 820 119 830 96 830 c 2
EndSplineSet
Substitution2: "'smcp' Lowercase to Small Capitals in Latin lookup 0 subtable" j.sc
EndChar

StartChar: k
Encoding: 107 107 48
Width: 1192
Flags: MW
AnchorPoint: "Anchor-0" 895 1040 basechar 0
AnchorPoint: "Anchor-1" 561 0 basechar 0
AnchorPoint: "Anchor-2" 561 0 basechar 0
Fore
SplineSet
63 1350 m 2
 51 1350 l 2
 14 1350 10 1358 10 1392 c 2
 10 1516 l 2
 10 1553 23 1560 59 1560 c 2
 455 1560 l 2
 500 1560 510 1559 510 1514 c 2
 510 671 l 2
 510 612 557.395694785 624.957472874 571 651 c 2
 671 785 l 2
 681.002929688 804.147460938 669 810 653 810 c 2
 644 810 l 2
 606 810 598 813 598 850 c 2
 598 1000 l 2
 598 1038 610 1040 645 1040 c 2
 1117 1040 l 2
 1151 1040 1154 1033 1154 998 c 2
 1154 853 l 2
 1154 823 1152 810 1123 810 c 2
 1085 810 l 2
 1069 810 1048.70703125 806.953125 1039 787 c 2
 937 639 l 2
 917.171293562 598.240992321 927.273969047 589.632932973 938 560 c 2
 1056 234 l 2
 1063.35599496 213.67750546 1083 210 1117 210 c 2
 1161 210 l 2
 1193 210 1202 208 1202 176 c 2
 1202 36 l 2
 1202 3 1195 0 1161 0 c 2
 608 0 l 2
 579 0 571 2 571 30 c 2
 571 172 l 2
 571 205 577 210 602 210 c 2
 607 210 l 2
 621 210 627.287386601 211.777137494 620 236 c 2
 549 472 l 2
 539.283484532 504.297150007 510 527 510 468 c 2
 510 252 l 2
 510 218 515 210 532 210 c 2
 534 210 l 2
 548 210 550 204 550 178 c 2
 550 36 l 2
 550 2 542 0 507 0 c 2
 63 0 l 2
 26 0 10 4 10 40 c 2
 10 168 l 2
 10 201 14 210 49 210 c 2
 61 210 l 2
 89 210 90 219 90 268 c 2
 90 1302 l 2
 90 1339 81 1350 63 1350 c 2
EndSplineSet
Substitution2: "'smcp' Lowercase to Small Capitals in Latin lookup 0 subtable" k.sc
EndChar

StartChar: l
Encoding: 108 108 49
Width: 600
Flags: MW
AnchorPoint: "Anchor-0" 298 1696 basechar 0
AnchorPoint: "Anchor-1" 761 1040 basechar 0
AnchorPoint: "Anchor-2" 305 0 basechar 0
AnchorPoint: "Anchor-3" 761 1040 basechar 0
Fore
SplineSet
61 1350 m 2
 57 1350 l 2
 21 1350 10 1363 10 1416 c 2
 10 1496 l 2
 10 1558 18 1560 81 1560 c 2
 447 1560 l 2
 503 1560 510 1556 510 1498 c 2
 510 262 l 2
 510 215 516 210 551 210 c 2
 557 210 l 2
 584 210 590 205 590 176 c 2
 590 54 l 2
 590 3 583 0 531 0 c 2
 51 0 l 2
 19 0 10 2 10 34 c 2
 10 166 l 2
 10 201 12 210 47 210 c 2
 59 210 l 2
 74 210 90 214 90 270 c 2
 90 1298 l 2
 90 1348 88 1350 61 1350 c 2
EndSplineSet
Substitution2: "'smcp' Lowercase to Small Capitals in Latin lookup 0 subtable" l.sc
EndChar

StartChar: m
Encoding: 109 109 50
Width: 1640
Flags: MW
AnchorPoint: "Anchor-0" 864 1040 basechar 0
AnchorPoint: "Anchor-1" 805 0 basechar 0
AnchorPoint: "Anchor-2" 805 0 basechar 0
Fore
SplineSet
10 38 m 2
 10 166 l 2
 10 194 12 210 43 210 c 2
 59 210 l 2
 89 210 90 219 90 250 c 2
 90 784 l 2
 90 827 83 830 69 830 c 2
 54 830 l 2
 25 830 10 831 10 870 c 2
 10 991 l 2
 10 1032 20 1040 59 1040 c 2
 422 1040 l 2
 456 1040 470 1038 470 1004 c 2
 470 938 l 2
 470 907 481.227383252 892.073584747 502 943 c 0
 533 1019 603 1080 726 1080 c 0
 829 1080 906.16796875 1042.16210938 942 971 c 0
 957.978600352 939.26663557 970.453225704 928.184975652 995 962 c 0
 1058.80664062 1049.8984375 1150 1080 1236 1080 c 0
 1430 1080 1550 952 1550 738 c 2
 1550 248 l 2
 1550 212 1558 210 1585 210 c 2
 1595 210 l 2
 1620 210 1630 205 1630 168 c 2
 1630 56 l 2
 1630 12 1629 0 1585 0 c 2
 1142 0 l 2
 1101 0 1091 5 1091 44 c 2
 1091 162 l 2
 1091 192 1090 210 1107 210 c 2
 1114 210 l 2
 1123 210 1130 218 1130 248 c 2
 1130 706 l 2
 1130 784 1107 816 1075 816 c 0
 1049 816 1030 802 1030 646 c 2
 1030 252 l 2
 1030 230 1031 210 1044 210 c 2
 1048 210 l 2
 1063 210 1071 208 1071 184 c 2
 1071 46 l 2
 1071 5 1062 0 1019 0 c 2
 610 0 l 2
 574 0 571 7 571 44 c 2
 571 176 l 2
 571 204 574 210 591 210 c 2
 594 210 l 2
 609 210 610 222 610 250 c 2
 610 706 l 2
 610 784 588 816 556 816 c 0
 530 816 510 802 510 646 c 2
 510 254 l 2
 510 220 511 210 525 210 c 2
 531 210 l 2
 549 210 551 202 551 176 c 2
 551 40 l 2
 551 9 547 0 514 0 c 2
 59 0 l 2
 25 0 10 1 10 38 c 2
EndSplineSet
Substitution2: "'smcp' Lowercase to Small Capitals in Latin lookup 0 subtable" m.sc
EndChar

StartChar: n
Encoding: 110 110 51
Width: 1120
Flags: MW
AnchorPoint: "Anchor-0" 456 1040 basechar 0
AnchorPoint: "Anchor-1" 445 0 basechar 0
AnchorPoint: "Anchor-2" 445 0 basechar 0
Fore
SplineSet
54 830 m 2
 50 830 l 2
 15 830 10 837 10 881 c 2
 10 987 l 2
 10 1033 15 1040 56 1040 c 2
 414 1040 l 2
 445 1040 470 1032 470 990 c 2
 470 954 l 2
 470 905 475.541992188 882.388671875 491 922 c 0
 523 1004 587 1060 716 1060 c 0
 940 1060 1030 952 1030 738 c 2
 1030 253 l 2
 1030 213 1037 210 1068 210 c 2
 1074 210 l 2
 1100 210 1110 201 1110 173 c 2
 1110 52 l 2
 1110 2 1109 0 1062 0 c 2
 611 0 l 2
 574 0 571 8 571 46 c 2
 571 164 l 2
 571 192 571 210 593 210 c 2
 594 210 l 2
 610 210 610 214 610 249 c 2
 610 676 l 2
 610 784 599 816 557 816 c 0
 521 816 510 782 510 626 c 2
 510 249 l 2
 510 219 513 210 529 210 c 2
 531 210 l 2
 549 210 551 206 551 173 c 2
 551 37 l 2
 551 2 533 0 501 0 c 2
 42 0 l 2
 11 0 10 9 10 41 c 2
 10 168 l 2
 10 204 15 210 50 210 c 2
 60 210 l 2
 86 210 90 211 90 252 c 2
 90 784 l 2
 90 825 84 830 54 830 c 2
EndSplineSet
Substitution2: "'smcp' Lowercase to Small Capitals in Latin lookup 0 subtable" n.sc
EndChar

StartChar: o
Encoding: 111 111 52
Width: 1056
Flags: MW
AnchorPoint: "Anchor-0" 528 1040 basechar 0
AnchorPoint: "Anchor-1" 525 0 basechar 0
AnchorPoint: "Anchor-2" 525 0 basechar 0
Fore
SplineSet
480 540 m 0
 480 232 480 160 528 160 c 0
 576 160 576 232 576 500 c 0
 576 808 576 880 528 880 c 0
 480 880 480 808 480 540 c 0
30 490 m 0
 30 810 146 1080 528 1080 c 0
 910 1080 1026 820 1026 540 c 0
 1026 220 910 -40 528 -40 c 0
 146 -40 30 210 30 490 c 0
EndSplineSet
Substitution2: "'smcp' Lowercase to Small Capitals in Latin lookup 0 subtable" o.sc
EndChar

StartChar: p
Encoding: 112 112 53
Width: 1116
Flags: MW
AnchorPoint: "Anchor-0" 653 1040 basechar 0
AnchorPoint: "Anchor-1" 692 0 basechar 0
AnchorPoint: "Anchor-2" 692 0 basechar 0
Fore
SplineSet
510 522 m 0
 510 234 524 206 566 206 c 0
 604 206 646 234 646 522 c 0
 646 810 604 838 566 838 c 0
 524 838 510 810 510 522 c 0
10 882 m 2
 10 995 l 2
 10 1036 20 1040 59 1040 c 2
 465 1040 l 2
 493 1040 510 1035 510 1004 c 2
 510 950 l 2
 510 920 524.662109375 920.702148438 543 954 c 0
 581 1023 644 1080 762 1080 c 0
 1000 1080 1086 882 1086 522 c 0
 1086 162 980 -38 742 -38 c 0
 632 -38 587 4 551 74 c 0
 529.857421875 115.109375 510 124 510 26 c 2
 510 -258 l 2
 510 -301 514 -310 549 -310 c 2
 555 -310 l 2
 581 -310 590 -314 590 -342 c 2
 590 -478 l 2
 590 -518 582 -520 541 -520 c 2
 55 -520 l 2
 15 -520 10 -514 10 -476 c 2
 10 -348 l 2
 10 -318 15 -310 47 -310 c 2
 51 -310 l 2
 85 -310 90 -303 90 -257 c 2
 90 778 l 2
 90 825 80 830 55 830 c 2
 45 830 l 2
 16 830 10 835 10 882 c 2
EndSplineSet
Substitution2: "'smcp' Lowercase to Small Capitals in Latin lookup 0 subtable" p.sc
EndChar

StartChar: q
Encoding: 113 113 54
Width: 1116
Flags: MW
AnchorPoint: "Anchor-0" 486 1040 basechar 0
AnchorPoint: "Anchor-1" 395 0 basechar 0
AnchorPoint: "Anchor-2" 395 0 basechar 0
Fore
SplineSet
606 520 m 0
 606 788 592 836 540 836 c 0
 492 836 470 788 470 520 c 0
 470 252 492 204 540 204 c 0
 592 204 606 252 606 520 c 0
1061 -310 m 2
 1077 -310 l 2
 1098 -310 1106 -317 1106 -362 c 2
 1106 -480 l 2
 1106 -511 1097 -520 1064 -520 c 2
 569 -520 l 2
 531 -520 526 -514 526 -474 c 2
 526 -356 l 2
 526 -320 527 -310 563 -310 c 2
 571 -310 l 2
 605 -310 606 -296 606 -261 c 2
 606 42 l 2
 606 134 587.833984375 121.5703125 567 81 c 0
 529 7 467 -38 344 -38 c 0
 116 -38 30 160 30 520 c 0
 30 880 136 1080 364 1080 c 0
 507 1080 546 1029 581 946 c 0
 593.0703125 917.375976562 606 910 606 974 c 2
 606 1012 l 2
 606 1038 614 1040 641 1040 c 2
 1071 1040 l 2
 1100 1040 1106 1034 1106 1004 c 2
 1106 889 l 2
 1106 844 1094 830 1069 830 c 2
 1061 830 l 2
 1039 830 1026 818 1026 775 c 2
 1026 -274 l 2
 1026 -300 1035 -310 1061 -310 c 2
EndSplineSet
Substitution2: "'smcp' Lowercase to Small Capitals in Latin lookup 0 subtable" q.sc
EndChar

StartChar: r
Encoding: 114 114 55
Width: 966
Flags: MW
AnchorPoint: "Anchor-0" 500 1040 basechar 0
AnchorPoint: "Anchor-1" 282 0 basechar 0
AnchorPoint: "Anchor-2" 282 0 basechar 0
Fore
SplineSet
90 787 m 2
 90 820 89 830 56 830 c 2
 46 830 l 2
 17 830 10 833 10 861 c 2
 10 1000 l 2
 10 1032 18 1040 48 1040 c 2
 438 1040 l 2
 464 1040 470 1035 470 1007 c 2
 470 976 l 2
 470 932 478.33984375 917.278320312 490 944 c 0
 514 999 581 1080 710 1080 c 0
 848 1080 966 988 966 812 c 0
 966 708 892 560 722 560 c 0
 594 560 550 600 550 702 c 0
 550 766 590 772 590 816 c 0
 590 826 584 842 565 842 c 0
 519 842 510 802 510 656 c 2
 510 245 l 2
 510 213 517 210 550 210 c 2
 562 210 l 2
 587 210 590 203 590 177 c 2
 590 40 l 2
 590 9 589 0 558 0 c 2
 54 0 l 2
 21 0 10 9 10 43 c 2
 10 180 l 2
 10 209 19 210 48 210 c 2
 53 210 l 2
 87 210 90 213 90 246 c 2
 90 787 l 2
EndSplineSet
Substitution2: "'smcp' Lowercase to Small Capitals in Latin lookup 0 subtable" r.sc
EndChar

StartChar: s
Encoding: 115 115 56
Width: 870
Flags: MW
AnchorPoint: "Anchor-0" 560 1040 basechar 0
AnchorPoint: "Anchor-1" 430 0 basechar 0
AnchorPoint: "Anchor-2" 430 0 basechar 0
Fore
SplineSet
611 692 m 0
 567 834 543 872 506 872 c 0
 480 872 470 858 470 832 c 0
 470 682 870 550 870 254 c 0
 870 36 750 -44 566 -44 c 0
 430 -44 359 -12 290 49 c 0
 276.064453125 61.3203125 268 58 256 42 c 2
 226 3 l 2
 214 -14 213 -20 182 -20 c 2
 36 -20 l 2
 13 -20 10 -12 10 12 c 2
 10 373 l 2
 10 396 11 406 34 406 c 2
 185 406 l 2
 220 406 220.989257812 404.60546875 228 378 c 0
 267 230 320 170 346 170 c 0
 366 170 384 184 384 216 c 0
 384 410 44 458 44 760 c 0
 44 998 204 1084 344 1084 c 0
 455 1084 513 1035 556 990 c 0
 572.3046875 972.936523438 584 976 597 998 c 2
 621 1037 l 2
 632 1055 637 1060 667 1060 c 2
 809 1060 l 2
 828 1060 834 1054 834 1033 c 2
 834 691 l 2
 834 669 833 660 811 660 c 2
 654 660 l 2
 622 660 617.762695312 670.176757812 611 692 c 0
EndSplineSet
Substitution2: "'smcp' Lowercase to Small Capitals in Latin lookup 0 subtable" s.sc
EndChar

StartChar: t
Encoding: 116 116 57
Width: 717
Flags: MW
AnchorPoint: "Anchor-0" 416.853 1277 basechar 0
AnchorPoint: "Anchor-1" 606.853 1153 basechar 0
AnchorPoint: "Anchor-2" 429.853 0 basechar 0
AnchorPoint: "Anchor-3" 606.853 1153 basechar 0
Fore
SplineSet
740.852539062 249 m 0
 716.852539062 84 631.852539062 -34 405.852539062 -34 c 0
 171.852539063 -34 85.8525390625 54 85.8525390625 272 c 2
 85.8525390625 791 l 2
 85.8525390625 820 85.8525390625 830 56.8525390625 830 c 2
 28.8525390625 830 l 2
 4.8525390625 830 -0.1474609375 837 -0.1474609375 862 c 2
 -0.1474609375 1002 l 2
 -0.1474609375 1034 4.85389280385 1039.71029303 35.8525390625 1040 c 0
 142.852539062 1041 205.852539062 1068 288.852539062 1363 c 0
 297.138651984 1392.45064231 290.852539062 1400 328.852539062 1400 c 2
 491.852539062 1400 l 2
 516.852539062 1400 525.852539062 1393 525.852539062 1367 c 2
 525.852539062 1080 l 2
 525.852539062 1049 526.852539062 1040 557.852539062 1040 c 2
 654.852539062 1040 l 2
 674.852539062 1040 679.852539062 1034 679.852539062 1012 c 2
 679.852539062 854 l 2
 679.852539062 836 670.852539062 830 651.852539062 830 c 2
 557.852539062 830 l 2
 537.852539062 830 525.852539062 818 525.852539062 797 c 2
 525.852539062 308 l 2
 525.852539062 208 527.852539062 184 544.852539062 184 c 0
 565.852539062 184 578.852539062 222 595.852539062 294 c 0
 601.782754692 319.116207372 615.401367188 312.737304688 641.852539062 308 c 2
 718.852539062 296 l 2
 748.353515625 290.715820312 744.805015873 276.173278075 740.852539062 249 c 0
EndSplineSet
Substitution2: "'smcp' Lowercase to Small Capitals in Latin lookup 0 subtable" t.sc
EndChar

StartChar: u
Encoding: 117 117 58
Width: 1120
Flags: MW
AnchorPoint: "Anchor-0" 620 1040 basechar 0
AnchorPoint: "Anchor-1" 532 0 basechar 0
AnchorPoint: "Anchor-2" 532 0 basechar 0
AnchorPoint: "Anchor-3" 932 0 basechar 0
Fore
SplineSet
90 302 m 2
 90 789 l 2
 90 821 90 830 60 830 c 2
 52 830 l 2
 20 830 10 836 10 868 c 2
 10 997 l 2
 10 1031 13 1040 46 1040 c 2
 470 1040 l 2
 502 1040 510 1036 510 1001 c 2
 510 384 l 2
 510 276 518 244 550 244 c 0
 576 244 610 288 610 474 c 2
 610 788 l 2
 610 818 607 830 588 830 c 2
 578 830 l 2
 566 830 560 833 560 862 c 2
 560 1000 l 2
 560 1032 563 1040 594 1040 c 2
 996 1040 l 2
 1026 1040 1030 1033 1030 1002 c 2
 1030 250 l 2
 1030 211 1039 210 1078 210 c 2
 1083 210 l 2
 1105 210 1110 203 1110 180 c 2
 1110 37 l 2
 1110 8 1107 0 1079 0 c 2
 691 0 l 2
 654 0 650 7 650 45 c 2
 650 108 l 2
 650 138 630.619140625 147.131835938 619 113 c 0
 587 19 496 -40 364 -40 c 0
 130 -40 90 88 90 302 c 2
EndSplineSet
Substitution2: "'smcp' Lowercase to Small Capitals in Latin lookup 0 subtable" u.sc
EndChar

StartChar: v
Encoding: 118 118 59
Width: 978
Flags: MW
AnchorPoint: "Anchor-0" 614 1040 basechar 0
AnchorPoint: "Anchor-1" 517 0 basechar 0
AnchorPoint: "Anchor-2" 517 0 basechar 0
Fore
SplineSet
649 607 m 2
 683 799 l 2
 686.09375 821.931640625 685 830 673 830 c 2
 671 830 l 2
 650 830 650 840 650 859 c 2
 650 1010 l 2
 650 1034 655 1040 678 1040 c 2
 972 1040 l 2
 990 1040 998 1032 998 1015 c 2
 998 857 l 2
 998 839 991 830 972 830 c 2
 971 830 l 2
 943 830 934.87890625 817.77734375 928 799 c 2
 636 2 l 2
 626.063476562 -25.1220703125 614 -30 574 -30 c 2
 442 -30 l 2
 412 -30 401.086914062 -24.7822265625 393 -5 c 2
 59 812 l 2
 50 828 39 830 14 830 c 2
 12 830 l 2
 -12 830 -20 833 -20 856 c 2
 -20 1012 l 2
 -20 1035 -13 1040 8 1040 c 2
 582 1040 l 2
 601 1040 602 1031 602 1011 c 2
 602 855 l 2
 602 832 594 830 570 830 c 2
 563 830 l 2
 540 830 535.051757812 819.250976562 539 797 c 2
 583 609 l 2
 588.9921875 575.224609375 586 511 613 511 c 0
 640 511 644.641601562 574.69921875 649 607 c 2
EndSplineSet
Substitution2: "'smcp' Lowercase to Small Capitals in Latin lookup 0 subtable" v.sc
EndChar

StartChar: w
Encoding: 119 119 60
Width: 1310
Flags: MW
AnchorPoint: "Anchor-0" 757 1040 basechar 0
AnchorPoint: "Anchor-1" 657 0 basechar 0
AnchorPoint: "Anchor-2" 657 0 basechar 0
Fore
SplineSet
492 647 m 2
 565 1013 l 2
 569.333984375 1034.73144531 582 1040 612 1040 c 2
 746 1040 l 2
 789 1040 801 1038 814 1009 c 2
 919 683 l 2
 940 637 931 622 947 622 c 0
 965 622 958.274414062 641.578125 969 683 c 2
 998 795 l 2
 1005.3125 823.243164062 986 830 969 830 c 2
 954 830 l 2
 925 830 922 841 922 867 c 2
 922 1013 l 2
 922 1039 931 1040 958 1040 c 2
 1292 1040 l 2
 1319 1040 1330 1032 1330 1002 c 2
 1330 877 l 2
 1330 839 1328 830 1290 830 c 2
 1276 830 l 2
 1252 830 1243 825 1232 793 c 2
 1072 21 l 2
 1059 -18 1064 -30 1010 -30 c 2
 854 -30 l 2
 795 -30 786.439453125 -25.97265625 777 15 c 2
 693 313 l 2
 681.899414062 361.1796875 676 401 658 401 c 0
 643 401 634.583007812 362.494140625 628 321 c 2
 582 15 l 2
 574.797851562 -24.4248046875 568 -30 512 -30 c 2
 320 -30 l 2
 261 -30 263 -21 248 21 c 2
 83 795 l 2
 72 825 73 830 30 830 c 2
 16 830 l 2
 -19 830 -20 845 -20 877 c 2
 -20 999 l 2
 -20 1036 -12 1040 22 1040 c 2
 439 1040 l 2
 474 1040 483 1036 483 999 c 2
 483 875 l 2
 483 837 480 830 443 830 c 2
 467 830 l 2
 428 830 412.396484375 827.764648438 418 799 c 2
 438 645 l 2
 442.556640625 609.911132812 445 587 461 587 c 0
 478 587 482.557617188 605.36328125 492 647 c 2
EndSplineSet
Substitution2: "'smcp' Lowercase to Small Capitals in Latin lookup 0 subtable" w.sc
EndChar

StartChar: x
Encoding: 120 120 61
Width: 1053
Flags: MW
AnchorPoint: "Anchor-0" 645 1040 basechar 0
AnchorPoint: "Anchor-1" 497 2 basechar 0
AnchorPoint: "Anchor-2" 497 2 basechar 0
Fore
SplineSet
645 749 m 2
 667 793 l 2
 678.559570312 816.118164062 676 830 662 830 c 2
 647 830 l 2
 634 830 631 838 631 859 c 2
 631 999 l 2
 631 1031 628 1040 660 1040 c 2
 988 1040 l 2
 1021 1040 1024 1032 1024 998 c 2
 1024 872 l 2
 1024 832 1016 830 976 830 c 2
 956 830 l 2
 940 830 921.231445312 820.266601562 907 800 c 2
 782 622 l 2
 754.247070312 582.479492188 749 573 749 555 c 0
 749 535 764.193359375 519.302734375 792 470 c 2
 963 230 l 2
 971.930664062 213.76171875 979 210 1008 210 c 2
 1041 210 l 2
 1057 210 1058 201 1058 184 c 2
 1058 28 l 2
 1058 7 1054 0 1034 0 c 2
 465 0 l 2
 442 0 441 9 441 32 c 2
 441 170 l 2
 441 202 444 210 475 210 c 2
 504 210 l 2
 540 210 543.712890625 211.515625 533 230 c 2
 482 318 l 2
 458.778320312 355.412109375 449 362 441 362 c 0
 425 362 425.138671875 358.991210938 403 332 c 2
 335 238 l 2
 322.673828125 218.630859375 320 210 342 210 c 2
 369 210 l 2
 397 210 413 208 413 178 c 2
 413 43 l 2
 413 6 409 0 373 0 c 2
 8 0 l 2
 -19 0 -20 9 -20 36 c 2
 -20 177 l 2
 -20 202 -18 210 6 210 c 2
 38 210 l 2
 63 210 85.6279296875 212.708984375 98 230 c 2
 259 455 l 2
 281.8125 486.880859375 296 502 296 526 c 0
 296 554 271.934570312 580.1640625 245 620 c 2
 116 806 l 2
 102.6640625 825.723632812 92 830 52 830 c 2
 26 830 l 2
 -4 830 -4 830 -4 860 c 2
 -4 1013 l 2
 -4 1039 5 1040 32 1040 c 2
 570 1040 l 2
 591 1040 608 1037 608 1014 c 2
 608 855 l 2
 608 835 602 830 580 830 c 2
 554 830 l 2
 521 830 519.615234375 809.163085938 529 793 c 2
 549 755 l 2
 559.71484375 736.546875 580 703 598 703 c 0
 614 703 630.030273438 719.060546875 645 749 c 2
EndSplineSet
Substitution2: "'smcp' Lowercase to Small Capitals in Latin lookup 0 subtable" x.sc
EndChar

StartChar: y
Encoding: 121 121 62
Width: 1025
Flags: MW
AnchorPoint: "Anchor-0" 659 1040 basechar 0
AnchorPoint: "Anchor-1" 301 -565 basechar 0
AnchorPoint: "Anchor-2" 301 -565 basechar 0
Fore
SplineSet
-84 -202 m 0
 -84 -40 36 74 168 74 c 0
 278 74 347 17 347 -104 c 0
 347 -280 192 -251 192 -293 c 0
 192 -320 226 -330 252 -330 c 0
 310 -330 351.3203125 -290.974609375 386 -180 c 2
 400 -132 l 2
 414.750976562 -84.796875 394 -9 376 31 c 2
 80 778 l 2
 59 820 71 830 31 830 c 2
 24 830 l 2
 -6 830 -21 836 -21 864 c 2
 -21 1010 l 2
 -21 1028 -3 1040 16 1040 c 2
 544 1040 l 2
 576 1040 591 1024 591 990 c 2
 591 885 l 2
 591 845 587 830 558 830 c 2
 545 830 l 2
 523 830 515.403320312 817.846679688 520 800 c 2
 561 621 l 2
 578.387695312 553.494140625 582 503 595 503 c 0
 610 503 613 528 631 575 c 2
 700 796 l 2
 704.1640625 816.395507812 694 830 661 830 c 2
 658 830 l 2
 629 830 625 839 625 866 c 2
 625 990 l 2
 625 1025 633 1040 666 1040 c 2
 1004 1040 l 2
 1027 1040 1045 1028 1045 1006 c 2
 1045 880 l 2
 1045 850 1034 830 1004 830 c 2
 1003 830 l 2
 957 830 960.778320312 800.193359375 951 768 c 2
 634 -144 l 2
 553.318359375 -409.638671875 468 -530 252 -530 c 0
 38 -530 -84 -396 -84 -202 c 0
EndSplineSet
Substitution2: "'smcp' Lowercase to Small Capitals in Latin lookup 0 subtable" y.sc
EndChar

StartChar: z
Encoding: 122 122 63
Width: 900
Flags: MW
AnchorPoint: "Anchor-0" 568 1040 basechar 0
AnchorPoint: "Anchor-1" 549 0 basechar 0
AnchorPoint: "Anchor-2" 549 0 basechar 0
Fore
SplineSet
342 840 m 2
 265 840 212 737 207 580 c 0
 206 540 199 536 156 536 c 2
 112 536 l 2
 65 536 56 539 56 589 c 2
 56 980 l 2
 56 1032 60 1040 114 1040 c 2
 828 1040 l 2
 871 1040 878 1036 878 991 c 2
 878 885 l 2
 878 840 861.367488041 832.210033364 847 807 c 2
 525 242 l 2
 508.606444885 213.234911057 495 200 540 200 c 2
 558 200 l 2
 648 200 703 301 709 494 c 0
 710 533 711 548 754 548 c 2
 846 548 l 2
 873 548 880 544 880 517 c 2
 880 70 l 2
 880 9 877 0 814 0 c 2
 50 0 l 2
 19 0 10 1 10 32 c 2
 10 146 l 2
 10 183 24.7729272451 205.546461223 40 231 c 2
 378 796 l 2
 396.043550981 826.161557113 403 840 364 840 c 2
 342 840 l 2
EndSplineSet
Substitution2: "'smcp' Lowercase to Small Capitals in Latin lookup 0 subtable" z.sc
EndChar

StartChar: comma
Encoding: 44 44 65
Width: 703
Flags: MW
Fore
SplineSet
79 198 m 0
 79 344 207 436 343 436 c 0
 511 436 623 325 623 109 c 0
 623 -171 336 -365 152 -389 c 0
 123 -393 115 -388 115 -356 c 2
 115 -237 l 2
 115 -217 123 -213 140 -211 c 0
 260 -199 381 -101 422 -32 c 0
 427 -24 420 -18 408 -23 c 0
 385 -33 349 -40 305 -40 c 0
 169 -40 79 52 79 198 c 0
EndSplineSet
EndChar

StartChar: exclam
Encoding: 33 33 67
Width: 798
Flags: MW
Fore
SplineSet
160 200 m 0
 160 332 268 440 400 440 c 0
 532 440 640 332 640 200 c 0
 640 68 532 -40 400 -40 c 0
 268 -40 160 68 160 200 c 0
656 1248 m 0
 616 912 498 879 487 616 c 0
 486 590 484 576 453 576 c 2
 353 576 l 2
 312 576 311 588 309 624 c 0
 296 879 180 916 140 1248 c 0
 138 1262 140 1274 140 1286 c 0
 140 1458 264 1536 398 1536 c 0
 532 1536 658 1458 658 1286 c 0
 658 1274 658 1262 656 1248 c 0
EndSplineSet
EndChar

StartChar: quotesingle
Encoding: 39 39 70
Width: 500
Flags: MW
Fore
SplineSet
468 1308 m 0
 447 1184 338 1107 327 945 c 0
 325 918 325 916 297 916 c 2
 199 916 l 2
 172 916 170 932 168 954 c 0
 153 1108 52 1188 32 1308 c 0
 30 1322 30 1332 30 1344 c 0
 30 1452 122 1536 250 1536 c 0
 378 1536 470 1452 470 1344 c 0
 470 1332 470 1322 468 1308 c 0
EndSplineSet
EndChar

StartChar: quoteleft
Encoding: 8216 8216 71
Width: 704
Flags: MW
Fore
SplineSet
624 1090 m 0
 624 944 496 852 360 852 c 0
 192 852 80 963 80 1179 c 0
 80 1459 367 1653 551 1677 c 0
 580 1681 588 1676 588 1644 c 2
 588 1525 l 2
 588 1505 580 1501 563 1499 c 0
 443 1487 322 1389 281 1320 c 0
 276 1312 283 1306 295 1311 c 0
 318 1321 354 1328 398 1328 c 0
 534 1328 624 1236 624 1090 c 0
EndSplineSet
EndChar

StartChar: quotedblleft
Encoding: 8220 8220 72
Width: 1324
Flags: MW
Fore
SplineSet
624 1090 m 0
 624 944 496 852 360 852 c 0
 192 852 80 963 80 1179 c 0
 80 1459 367 1653 551 1677 c 0
 580 1681 588 1676 588 1644 c 2
 588 1525 l 2
 588 1505 580 1501 563 1499 c 0
 443 1487 322 1389 281 1320 c 0
 276 1312 283 1306 295 1311 c 0
 318 1321 354 1328 398 1328 c 0
 534 1328 624 1236 624 1090 c 0
1244 1090 m 0
 1244 944 1116 852 980 852 c 0
 812 852 700 963 700 1179 c 0
 700 1459 987 1653 1171 1677 c 0
 1200 1681 1208 1676 1208 1644 c 2
 1208 1525 l 2
 1208 1505 1200 1501 1183 1499 c 0
 1063 1487 942 1389 901 1320 c 0
 896 1312 903 1306 915 1311 c 0
 938 1321 974 1328 1018 1328 c 0
 1154 1328 1244 1236 1244 1090 c 0
EndSplineSet
EndChar

StartChar: quotedblright
Encoding: 8221 8221 73
Width: 1324
Flags: MW
Fore
SplineSet
80 1502 m 0
 80 1648 208 1740 344 1740 c 0
 512 1740 624 1629 624 1413 c 0
 624 1133 337 939 153 915 c 0
 124 911 116 916 116 948 c 2
 116 1067 l 2
 116 1087 124 1091 141 1093 c 0
 261 1105 382 1203 423 1272 c 0
 428 1280 421 1286 409 1281 c 0
 386 1271 350 1264 306 1264 c 0
 170 1264 80 1356 80 1502 c 0
700 1502 m 0
 700 1648 828 1740 964 1740 c 0
 1132 1740 1244 1629 1244 1413 c 0
 1244 1133 957 939 773 915 c 0
 744 911 736 916 736 948 c 2
 736 1067 l 2
 736 1087 744 1091 761 1093 c 0
 881 1105 1002 1203 1043 1272 c 0
 1048 1280 1041 1286 1029 1281 c 0
 1006 1271 970 1264 926 1264 c 0
 790 1264 700 1356 700 1502 c 0
EndSplineSet
EndChar

StartChar: quoteright
Encoding: 8217 8217 74
Width: 704
Flags: MW
Fore
SplineSet
80 1502 m 0
 80 1648 208 1740 344 1740 c 0
 512 1740 624 1629 624 1413 c 0
 624 1133 337 939 153 915 c 0
 124 911 116 916 116 948 c 2
 116 1067 l 2
 116 1087 124 1091 141 1093 c 0
 261 1105 382 1203 423 1272 c 0
 428 1280 421 1286 409 1281 c 0
 386 1271 350 1264 306 1264 c 0
 170 1264 80 1356 80 1502 c 0
EndSplineSet
EndChar

StartChar: question
Encoding: 63 63 75
Width: 1170
Flags: MW
Fore
SplineSet
358 1334 m 0
 358 1294 500 1312 500 1150 c 0
 500 1026 374 940 264 940 c 0
 144 940 30 1026 30 1182 c 0
 30 1346 228 1520 562 1520 c 0
 884 1520 1140 1390 1140 1100 c 0
 1140 840 925 690 666 618 c 0
 639 611 634 613 631 580 c 2
 628 536 l 2
 625 500 608 498 572 498 c 2
 506 498 l 2
 440 498 433 504 425 560 c 2
 411 652 l 2
 402 712 426 702 470 722 c 0
 643 799 738 956 738 1140 c 0
 738 1288 680 1396 522 1396 c 0
 414 1396 358 1358 358 1334 c 0
EndSplineSet
Refer: 1 46 N 1 0 0 1 258 0 2
EndChar

StartChar: parenleft
Encoding: 40 40 76
Width: 1010
Flags: MW
Fore
SplineSet
994 -217 m 2
 949 -302 l 2
 934 -333 923 -339 886 -329 c 0
 460 -216 110 141 110 650 c 0
 110 1161 463 1481 892 1591 c 0
 922 1599 933 1598 946 1572 c 2
 990 1474 l 2
 1005 1444 1010 1441 978 1428 c 0
 712 1322 580 1096 580 650 c 0
 580 204 711 -60 978 -168 c 0
 1011 -181 1009 -186 994 -217 c 2
EndSplineSet
EndChar

StartChar: parenright
Encoding: 41 41 77
Width: 1009
Flags: MW
Fore
SplineSet
15 1477 m 2
 60 1562 l 2
 75 1593 86 1599 123 1589 c 0
 549 1476 899 1119 899 610 c 0
 899 99 546 -221 117 -331 c 0
 87 -339 76 -338 63 -312 c 2
 19 -214 l 2
 4 -184 -1 -181 31 -168 c 0
 297 -62 429 164 429 610 c 0
 429 1056 298 1320 31 1428 c 0
 -2 1441 0 1446 15 1477 c 2
EndSplineSet
EndChar

StartChar: asterisk
Encoding: 42 42 78
Width: 1270
Flags: MW
Fore
SplineSet
106 725 m 0
 47 827 52 925 146 979 c 0
 253 1041 341 957 514 1016 c 0
 551 1028 548 1031 512 1043 c 0
 340 1101 253 1019 146 1081 c 0
 52 1135 47 1233 106 1335 c 0
 165 1437 252 1481 346 1427 c 0
 452 1366 425 1249 559 1130 c 0
 581 1110 594 1093 585 1140 c 0
 550 1321 434 1354 434 1478 c 0
 434 1586 516 1640 634 1640 c 0
 752 1640 834 1586 834 1478 c 0
 834 1353 717 1320 682 1137 c 0
 675 1098 683 1108 704 1126 c 0
 843 1247 814 1365 922 1427 c 0
 1016 1481 1103 1437 1162 1335 c 0
 1221 1233 1216 1135 1122 1081 c 0
 1015 1019 927 1103 752 1042 c 0
 723 1032 715 1031 748 1019 c 0
 925 956 1013 1042 1122 979 c 0
 1216 925 1221 827 1162 725 c 0
 1103 623 1016 579 922 633 c 0
 814 695 843 813 703 934 c 0
 686 949 675 965 682 928 c 0
 715 740 834 708 834 582 c 0
 834 474 752 420 634 420 c 0
 516 420 434 474 434 582 c 0
 434 708 553 741 586 928 c 0
 593 965 581 948 564 933 c 0
 424 812 454 695 346 633 c 0
 252 579 165 623 106 725 c 0
EndSplineSet
EndChar

StartChar: at
Encoding: 64 64 79
Width: 2300
Flags: MW
Fore
SplineSet
1348 692 m 0
 1348 776 1344 836 1288 836 c 0
 1200 836 1130 608 1130 480 c 0
 1130 386 1140 364 1168 364 c 0
 1250 364 1348 536 1348 692 c 0
1768 -173 m 0
 1600 -353 1350 -448 1038 -448 c 0
 672 -448 90 -224 90 442 c 0
 90 1108 644 1600 1270 1600 c 0
 1856 1600 2180 1248 2180 802 c 0
 2180 462 1944 126 1582 126 c 0
 1481 126 1405 172 1354 230 c 0
 1324 264 1314 272 1274 239 c 0
 1200 178 1119 130 1008 130 c 0
 850 130 708 211 708 420 c 0
 708 640 878 1068 1196 1068 c 0
 1314 1068 1372 1027 1400 958 c 0
 1415 922 1420 917 1428 961 c 2
 1438 1012 l 2
 1444 1042 1449 1040 1486 1040 c 2
 1719 1040 l 2
 1770 1040 1783 1036 1772 989 c 2
 1640 440 l 2
 1636 414 1610 340 1676 340 c 0
 1778 340 1954 482 1954 810 c 0
 1954 1224 1612 1364 1344 1364 c 0
 956 1364 540 1046 540 482 c 0
 540 58 762 -218 1110 -218 c 0
 1284 -218 1446 -208 1612 -51 c 0
 1642 -23 1645 -3 1677 -35 c 2
 1770 -128 l 2
 1791 -149 1788 -151 1768 -173 c 0
EndSplineSet
EndChar

StartChar: dollar
Encoding: 36 36 80
Width: 1450
Flags: MW
Fore
SplineSet
700 1670 m 1
 930 1670 l 1
 919 1522 l 1
 1174 1492 1428 1375 1428 1138 c 0
 1428 982 1338 906 1200 906 c 0
 1106 906 986 948 986 1102 c 0
 986 1194 1056 1206 1056 1240 c 0
 1056 1260 993 1294 903 1312 c 1
 877 967 l 1
 1127 897 1430 801 1430 460 c 0
 1430 191 1145 -14 801 -29 c 1
 790 -170 l 1
 560 -170 l 1
 571 -21 l 1
 260 9 12 121 12 372 c 0
 12 548 142 624 240 624 c 0
 374 624 474 562 474 428 c 0
 474 336 400 306 400 260 c 0
 400 216 441 188 586 177 c 1
 617 580 l 1
 378 645 110 736 110 1058 c 0
 110 1349 382 1501 689 1526 c 1
 700 1670 l 1
980 368 m 0
 980 439 925 480 842 513 c 1
 816 177 l 1
 942 200 980 299 980 368 c 0
552 1152 m 0
 552 1102 591 1067 652 1039 c 1
 672 1305 l 1
 599 1277 552 1221 552 1152 c 0
EndSplineSet
EndChar

StartChar: numbersign
Encoding: 35 35 81
Width: 1320
Flags: MW
Fore
SplineSet
462 1610 m 2
 583 1610 l 2
 621 1610 630 1610 626 1576 c 2
 575 1136 l 2
 572 1107 574 1100 609 1100 c 2
 749 1100 l 2
 793 1100 800 1095 805 1136 c 2
 855 1568 l 2
 860 1608 866 1610 911 1610 c 2
 1023 1610 l 2
 1066 1610 1070 1607 1066 1574 c 2
 1016 1148 l 2
 1011 1104 1016 1100 1067 1100 c 2
 1305 1100 l 2
 1334 1100 1340 1094 1340 1064 c 2
 1340 938 l 2
 1340 891 1327 890 1283 890 c 2
 1035 890 l 2
 994 890 986 894 982 856 c 2
 962 680 l 2
 957 635 963 640 1011 640 c 2
 1239 640 l 2
 1277 640 1280 633 1280 594 c 2
 1280 464 l 2
 1280 434 1271 430 1243 430 c 2
 971 430 l 2
 933 430 933 430 929 396 c 2
 873 -74 l 2
 869 -105 868 -110 833 -110 c 2
 717 -110 l 2
 675 -110 661 -109 666 -68 c 2
 715 366 l 2
 721 415 735 430 675 430 c 2
 549 430 l 2
 509 430 492 427 488 389 c 2
 436 -58 l 2
 430 -108 431 -110 375 -110 c 2
 273 -110 l 2
 211 -110 221 -101 227 -48 c 2
 277 372 l 2
 283 422 281 430 225 430 c 2
 31 430 l 2
 -17 430 -20 437 -20 486 c 2
 -20 598 l 2
 -20 639 -11 640 31 640 c 2
 263 640 l 2
 310 640 307 643 312 684 c 2
 333 850 l 2
 337 883 333 890 297 890 c 2
 93 890 l 2
 47 890 40 893 40 938 c 2
 40 1056 l 2
 40 1094 45 1100 85 1100 c 2
 321 1100 l 2
 364 1100 362 1104 366 1142 c 2
 415 1564 l 2
 419 1598 421 1610 462 1610 c 2
727 890 m 2
 589 890 l 2
 539 890 545 880 540 838 c 2
 523 690 l 2
 518 648 522 640 571 640 c 2
 705 640 l 2
 744 640 747 648 751 684 c 2
 771 842 l 2
 776 888 769 890 727 890 c 2
EndSplineSet
EndChar

StartChar: slash
Encoding: 47 47 82
Width: 1040
Flags: MW
Fore
SplineSet
763 1560 m 2
 881 1560 l 2
 948 1560 959 1557 942 1505 c 2
 353 -254 l 2
 340 -294 332 -300 277 -300 c 2
 167 -300 l 2
 96 -300 80 -299 98 -246 c 2
 700 1524 l 2
 711 1555 719 1560 763 1560 c 2
EndSplineSet
EndChar

StartChar: percent
Encoding: 37 37 83
Width: 1960
Flags: MW
Fore
SplineSet
70 1080 m 0
 70 1366 174 1530 470 1530 c 0
 766 1530 870 1366 870 1080 c 0
 870 794 726 630 470 630 c 0
 174 630 70 794 70 1080 c 0
440 1080 m 0
 440 836 442 810 470 810 c 0
 498 810 500 836 500 1080 c 0
 500 1324 498 1350 470 1350 c 0
 442 1350 440 1324 440 1080 c 0
1331 1500 m 2
 1403 1500 l 2
 1467 1500 1477.80273438 1490.27246094 1456 1450 c 2
 684 24 l 2
 670.098632812 -1.677734375 639 0 597 0 c 2
 547 0 l 2
 467 0 458.059459603 17.7852236068 480 58 c 2
 1246 1462 l 2
 1261.06023991 1489.6038862 1284 1500 1331 1500 c 2
1090 420 m 0
 1090 706 1194 870 1490 870 c 0
 1786 870 1890 706 1890 420 c 0
 1890 134 1746 -30 1490 -30 c 0
 1194 -30 1090 134 1090 420 c 0
1460 420 m 0
 1460 176 1462 150 1490 150 c 0
 1518 150 1520 176 1520 420 c 0
 1520 664 1518 690 1490 690 c 0
 1462 690 1460 664 1460 420 c 0
EndSplineSet
EndChar

StartChar: hyphen
Encoding: 45 45 84
Width: 820
Flags: MW
Fore
SplineSet
154 770 m 2
 666 770 l 2
 697 770 700 763 700 731 c 2
 700 581 l 2
 700 546 699 540 664 540 c 2
 162 540 l 2
 126 540 120 545 120 580 c 2
 120 729 l 2
 120 761 122 770 154 770 c 2
EndSplineSet
Substitution2: "Single Substitution lookup 8 subtable" hyphen.sc
EndChar

StartChar: plus
Encoding: 43 43 86
Width: 1060
Flags: MW
Fore
SplineSet
674 746 m 2
 900 746 l 2
 927 746 940 743 940 714 c 2
 940 555 l 2
 940 525 938 516 908 516 c 2
 678 516 l 2
 645 516 644 512 644 478 c 2
 644 243 l 2
 644 223 637 220 616 220 c 2
 446 220 l 2
 419 220 416 227 416 255 c 2
 416 474 l 2
 416 508 413 516 380 516 c 2
 150 516 l 2
 128 516 120 521 120 545 c 2
 120 724 l 2
 120 746 125 746 147 746 c 2
 388 746 l 2
 413 746 416 754 416 780 c 2
 416 1000 l 2
 416 1033 420 1040 452 1040 c 2
 614 1040 l 2
 643 1040 644 1031 644 1001 c 2
 644 776 l 2
 644 750 649 746 674 746 c 2
EndSplineSet
EndChar

StartChar: equal
Encoding: 61 61 87
Width: 1120
Flags: MW
Fore
SplineSet
164 690 m 2
 956 690 l 2
 996 690 1000 683 1000 651 c 2
 1000 501 l 2
 1000 466 999 460 954 460 c 2
 175 460 l 2
 128 460 120 465 120 500 c 2
 120 649 l 2
 120 681 123 690 164 690 c 2
164 1090 m 2
 956 1090 l 2
 996 1090 1000 1083 1000 1051 c 2
 1000 901 l 2
 1000 866 999 860 954 860 c 2
 175 860 l 2
 128 860 120 865 120 900 c 2
 120 1049 l 2
 120 1081 123 1090 164 1090 c 2
EndSplineSet
EndChar

StartChar: less
Encoding: 60 60 88
Width: 1120
Flags: MW
Fore
SplineSet
438 748 m 2
 960 555 l 2
 989 544 1000 533 1000 491 c 2
 1000 373 l 2
 1000 315 993 313 954 328 c 2
 164 642 l 2
 131 655 120 672 120 720 c 2
 120 830 l 2
 120 890 135 896 176 912 c 2
 940 1216 l 2
 980 1232 1000 1235 1000 1169 c 2
 1000 1082 l 2
 1000 1025 992 1007 952 992 c 2
 438 802 l 2
 403 789 382 788 382 776 c 0
 382 759 399 763 438 748 c 2
EndSplineSet
EndChar

StartChar: greater
Encoding: 62 62 89
Width: 1120
Flags: MW
Fore
SplineSet
682 802 m 2
 160 995 l 2
 131 1006 120 1017 120 1059 c 2
 120 1177 l 2
 120 1235 127 1237 166 1222 c 2
 956 908 l 2
 989 895 1000 878 1000 830 c 2
 1000 720 l 2
 1000 660 985 654 944 638 c 2
 180 334 l 2
 140 318 120 315 120 381 c 2
 120 468 l 2
 120 525 128 543 168 558 c 2
 682 748 l 2
 717 761 738 762 738 774 c 0
 738 791 721 787 682 802 c 2
EndSplineSet
EndChar

StartChar: backslash
Encoding: 92 92 90
Width: 1040
Flags: MW
Fore
SplineSet
328 1560 m 1
 960 -300 l 1
 702 -300 l 1
 80 1560 l 1
 328 1560 l 1
EndSplineSet
EndChar

StartChar: bracketleft
Encoding: 91 91 91
Width: 810
Flags: MW
Fore
SplineSet
210 1560 m 18
 701 1560 l 2
 744 1560 750 1555 750 1510 c 2
 750 1386 l 2
 750 1342 746 1330 699 1330 c 2
 597 1330 l 2
 540 1330 530 1329 530 1272 c 2
 530 2 l 2
 530 -56 531 -70 589 -70 c 2
 693 -70 l 2
 747 -70 750 -77 750 -132 c 2
 750 -242 l 2
 750 -295 744 -300 693 -300 c 2
 210 -300 l 10
 123 -300 110 -295 110 -205 c 2
 110 1465 l 2
 110 1555 123 1560 210 1560 c 18
EndSplineSet
EndChar

StartChar: braceleft
Encoding: 123 123 92
Width: 744
Flags: MW
Fore
SplineSet
627 -300 m 0
 269 -294 70 -228 70 -20 c 0
 70 174 230 284 230 410 c 0
 230 477 190 495 142 510 c 0
 107 521 110 535 110 581 c 2
 110 716 l 2
 110 752 134 747 158 756 c 0
 198 771 230 792 230 852 c 0
 230 978 70 1088 70 1282 c 0
 70 1491 276 1555 636 1560 c 0
 679 1561 684 1551 684 1506 c 2
 684 1393 l 2
 684 1342 671 1347 626 1345 c 0
 535 1341 476 1322 476 1234 c 0
 476 1102 564 1042 564 862 c 0
 564 785 497 702 411 670 c 0
 372 656 358 659 358 630 c 0
 358 600 375 603 420 586 c 0
 502 555 564 475 564 400 c 0
 564 220 476 160 476 28 c 0
 476 -60 535 -81 626 -85 c 0
 666 -87 684 -85 684 -132 c 2
 684 -236 l 2
 684 -289 680 -301 627 -300 c 0
EndSplineSet
EndChar

StartChar: bracketright
Encoding: 93 93 93
Width: 810
Flags: MW
Fore
SplineSet
600 -300 m 18
 109 -300 l 2
 66 -300 60 -295 60 -250 c 2
 60 -126 l 2
 60 -82 64 -70 111 -70 c 2
 213 -70 l 2
 270 -70 280 -69 280 -12 c 2
 280 1258 l 2
 280 1316 279 1330 221 1330 c 2
 117 1330 l 2
 63 1330 60 1337 60 1392 c 2
 60 1502 l 2
 60 1555 66 1560 117 1560 c 2
 600 1560 l 10
 687 1560 700 1555 700 1465 c 2
 700 -205 l 2
 700 -295 687 -300 600 -300 c 18
EndSplineSet
EndChar

StartChar: braceright
Encoding: 125 125 94
Width: 704
Flags: MW
Fore
SplineSet
97 1560 m 0
 455 1554 654 1488 654 1280 c 0
 654 1086 494 976 494 850 c 0
 494 783 534 765 582 750 c 0
 617 739 614 725 614 679 c 2
 614 544 l 2
 614 508 590 513 566 504 c 0
 526 489 494 468 494 408 c 0
 494 282 654 172 654 -22 c 0
 654 -231 448 -295 88 -300 c 0
 45 -301 40 -291 40 -246 c 2
 40 -133 l 2
 40 -82 53 -87 98 -85 c 0
 189 -81 248 -62 248 26 c 0
 248 158 160 218 160 398 c 0
 160 475 227 558 313 590 c 0
 352 604 366 601 366 630 c 0
 366 660 349 657 304 674 c 0
 222 705 160 785 160 860 c 0
 160 1040 248 1100 248 1232 c 0
 248 1320 189 1341 98 1345 c 0
 58 1347 40 1345 40 1392 c 2
 40 1496 l 2
 40 1549 44 1561 97 1560 c 0
EndSplineSet
EndChar

StartChar: bar
Encoding: 124 124 95
Width: 600
Flags: MW
Fore
SplineSet
207 1560 m 2
 393 1560 l 2
 447 1560 450 1553 450 1498 c 2
 450 -448 l 2
 450 -499 441 -500 389 -500 c 2
 203 -500 l 2
 152 -500 150 -492 150 -440 c 2
 150 1496 l 2
 150 1551 152 1560 207 1560 c 2
EndSplineSet
EndChar

StartChar: asciitilde
Encoding: 126 126 96
Width: 1376
Flags: MW
Fore
SplineSet
486 834 m 0
 432 834 392 805 379 738 c 0
 373 707 375 686 334 686 c 2
 184 686 l 2
 142 686 139 690 142 732 c 0
 158 940 293 1080 498 1080 c 0
 758 1080 718 872 870 872 c 0
 925 872 980 903 997 974 c 0
 1006 1012 1009 1020 1058 1020 c 2
 1176 1020 l 2
 1225 1020 1238 1019 1234 971 c 0
 1215 767 1080 626 878 626 c 0
 584 626 652 834 486 834 c 0
EndSplineSet
EndChar

StartChar: asciicircum
Encoding: 94 94 97
Width: 1090
Flags: MW
Fore
SplineSet
489 1252 m 2
 252 1123 l 2
 222 1107 209 1102 176 1117 c 2
 124 1145 l 2
 89 1165 88 1169 111 1193 c 2
 413 1512 l 2
 429 1529 443 1540 478 1540 c 2
 598 1540 l 2
 644 1540 658 1531 679 1509 c 2
 971 1201 l 2
 996 1174 1005 1157 975 1143 c 2
 923 1120 l 2
 884 1102 876 1102 839 1122 c 2
 594 1256 l 2
 545 1282 537 1278 489 1252 c 2
EndSplineSet
EndChar

StartChar: grave
Encoding: 96 96 98
Width: 790
Flags: MW
Fore
SplineSet
250 1340 m 2
 145 1331 60 1392 60 1510 c 0
 60 1628 154 1720 270 1676 c 2
 637 1536 l 2
 701 1512 730 1509 724 1432 c 0
 720 1377 696 1378 634 1373 c 2
 250 1340 l 2
EndSplineSet
EndChar

StartChar: uni203E
Encoding: 8254 8254 99
Width: 719
Flags: MW
Fore
SplineSet
42 1919 m 2
 986 1919 l 2
 1034 1919 1038 1912 1038 1880 c 2
 1038 1730 l 2
 1038 1695 1037 1689 983 1689 c 2
 55 1689 l 2
 -1 1689 -10 1694 -10 1729 c 2
 -10 1878 l 2
 -10 1910 -7 1919 42 1919 c 2
EndSplineSet
EndChar

StartChar: uni2010
Encoding: 8208 8208 100
Width: 920
Flags: MW
Fore
SplineSet
154 890 m 2
 766 890 l 2
 797 890 800 883 800 851 c 2
 800 701 l 2
 800 666 799 660 764 660 c 2
 162 660 l 2
 126 660 120 665 120 700 c 2
 120 849 l 2
 120 881 122 890 154 890 c 2
EndSplineSet
EndChar

StartChar: uni2011
Encoding: 8209 8209 101
Width: 920
Flags: MW
Fore
SplineSet
154 890 m 2
 766 890 l 2
 797 890 800 883 800 851 c 2
 800 701 l 2
 800 666 799 660 764 660 c 2
 162 660 l 2
 126 660 120 665 120 700 c 2
 120 849 l 2
 120 881 122 890 154 890 c 2
EndSplineSet
EndChar

StartChar: endash
Encoding: 8211 8211 102
Width: 1432
Flags: MW
Fore
SplineSet
180 890 m 2
 1253 890 l 2
 1307 890 1312 883 1312 851 c 2
 1312 701 l 2
 1312 666 1310 660 1249 660 c 2
 194 660 l 2
 131 660 120 665 120 700 c 2
 120 849 l 2
 120 881 124 890 180 890 c 2
EndSplineSet
EndChar

StartChar: figuredash
Encoding: 8210 8210 103
Width: 1224
Flags: MW
Fore
SplineSet
169 890 m 2
 1055 890 l 2
 1100 890 1104 883 1104 851 c 2
 1104 701 l 2
 1104 666 1103 660 1052 660 c 2
 181 660 l 2
 129 660 120 665 120 700 c 2
 120 849 l 2
 120 881 123 890 169 890 c 2
EndSplineSet
EndChar

StartChar: emdash
Encoding: 8212 8212 104
Width: 2124
Flags: MW
Fore
SplineSet
215 890 m 2
 1910 890 l 2
 1996 890 2004 883 2004 851 c 2
 2004 701 l 2
 2004 666 2001 660 1904 660 c 2
 237 660 l 2
 137 660 120 665 120 700 c 2
 120 849 l 2
 120 881 126 890 215 890 c 2
EndSplineSet
EndChar

StartChar: uni2015
Encoding: 8213 8213 105
Width: 2331
Flags: MW
Fore
SplineSet
225 890 m 2
 2107 890 l 2
 2202 890 2211 883 2211 851 c 2
 2211 701 l 2
 2211 666 2209 660 2101 660 c 2
 249 660 l 2
 138 660 120 665 120 700 c 2
 120 849 l 2
 120 881 127 890 225 890 c 2
EndSplineSet
EndChar

StartChar: perthousand
Encoding: 8240 8240 106
Width: 2810
Flags: MW
Fore
SplineSet
1940 420 m 0
 1940 706 2044 870 2340 870 c 0
 2636 870 2740 706 2740 420 c 0
 2740 134 2596 -30 2340 -30 c 0
 2044 -30 1940 134 1940 420 c 0
2310 420 m 0
 2310 176 2312 150 2340 150 c 0
 2368 150 2370 176 2370 420 c 0
 2370 664 2368 690 2340 690 c 0
 2312 690 2310 664 2310 420 c 0
70 1080 m 0
 70 1366 174 1530 470 1530 c 0
 766 1530 870 1366 870 1080 c 0
 870 794 726 630 470 630 c 0
 174 630 70 794 70 1080 c 0
440 1080 m 0
 440 836 442 810 470 810 c 0
 498 810 500 836 500 1080 c 0
 500 1324 498 1350 470 1350 c 0
 442 1350 440 1324 440 1080 c 0
1331 1500 m 2
 1403 1500 l 2
 1467 1500 1477.80273438 1490.27246094 1456 1450 c 2
 684 24 l 2
 670.098632812 -1.677734375 639 0 597 0 c 2
 547 0 l 2
 467 0 458.059459603 17.7852236068 480 58 c 2
 1246 1462 l 2
 1261.06023991 1489.6038862 1284 1500 1331 1500 c 2
1090 420 m 0
 1090 706 1194 870 1490 870 c 0
 1786 870 1890 706 1890 420 c 0
 1890 134 1746 -30 1490 -30 c 0
 1194 -30 1090 134 1090 420 c 0
1460 420 m 0
 1460 176 1462 150 1490 150 c 0
 1518 150 1520 176 1520 420 c 0
 1520 664 1518 690 1490 690 c 0
 1462 690 1460 664 1460 420 c 0
EndSplineSet
EndChar

StartChar: uni2031
Encoding: 8241 8241 107
Width: 3660
Flags: MW
Fore
SplineSet
2790 420 m 0
 2790 706 2894 870 3190 870 c 0
 3486 870 3590 706 3590 420 c 0
 3590 134 3446 -30 3190 -30 c 0
 2894 -30 2790 134 2790 420 c 0
3160 420 m 0
 3160 176 3162 150 3190 150 c 0
 3218 150 3220 176 3220 420 c 0
 3220 664 3218 690 3190 690 c 0
 3162 690 3160 664 3160 420 c 0
1940 420 m 0
 1940 706 2044 870 2340 870 c 0
 2636 870 2740 706 2740 420 c 0
 2740 134 2596 -30 2340 -30 c 0
 2044 -30 1940 134 1940 420 c 0
2310 420 m 0
 2310 176 2312 150 2340 150 c 0
 2368 150 2370 176 2370 420 c 0
 2370 664 2368 690 2340 690 c 0
 2312 690 2310 664 2310 420 c 0
70 1080 m 0
 70 1366 174 1530 470 1530 c 0
 766 1530 870 1366 870 1080 c 0
 870 794 726 630 470 630 c 0
 174 630 70 794 70 1080 c 0
440 1080 m 0
 440 836 442 810 470 810 c 0
 498 810 500 836 500 1080 c 0
 500 1324 498 1350 470 1350 c 0
 442 1350 440 1324 440 1080 c 0
1331 1500 m 2
 1403 1500 l 2
 1467 1500 1477.80273438 1490.27246094 1456 1450 c 2
 684 24 l 2
 670.098632812 -1.677734375 639 0 597 0 c 2
 547 0 l 2
 467 0 458.059459603 17.7852236068 480 58 c 2
 1246 1462 l 2
 1261.06023991 1489.6038862 1284 1500 1331 1500 c 2
1090 420 m 0
 1090 706 1194 870 1490 870 c 0
 1786 870 1890 706 1890 420 c 0
 1890 134 1746 -30 1490 -30 c 0
 1194 -30 1090 134 1090 420 c 0
1460 420 m 0
 1460 176 1462 150 1490 150 c 0
 1518 150 1520 176 1520 420 c 0
 1520 664 1518 690 1490 690 c 0
 1462 690 1460 664 1460 420 c 0
EndSplineSet
EndChar

StartChar: uniFB00
Encoding: 64256 64256 108
Width: 1220
Flags: MW
Fore
SplineSet
10 47 m 2
 10 157 l 2
 10 200 18 210 51 210 c 2
 52 210 l 2
 85 210 90 218 90 249 c 2
 90 792 l 2
 90 826 81 830 49 830 c 2
 45 830 l 2
 15 830 10 838 10 866 c 2
 10 1003 l 2
 10 1030 11 1040 38 1040 c 2
 48 1040 l 2
 87 1040 90 1047 90 1087 c 2
 90 1104 l 2
 90 1326 214 1560 524 1560 c 0
 646 1560 713 1540 739 1530 c 0
 760.76953125 1521.62695312 778 1511 787 1511 c 0
 794 1511 801.791015625 1516.32128906 817 1526 c 0
 894 1575 979 1600 1124 1600 c 0
 1396 1600 1500 1462 1500 1308 c 0
 1500 1148 1400 1086 1276 1086 c 0
 1132 1086 1076 1162 1076 1272 c 0
 1076 1366 1128 1378 1128 1400 c 0
 1128 1414 1110 1426 1090 1426 c 0
 980 1426 1060 1224 1060 1100 c 2
 1060 1075 l 2
 1060 1045 1066 1040 1094 1040 c 2
 1129 1040 l 2
 1176 1040 1200 1033 1200 981 c 2
 1200 878 l 2
 1200 842 1197 830 1158 830 c 2
 1104 830 l 2
 1069 830 1060 829 1060 794 c 2
 1060 244 l 2
 1060 214 1060 210 1090 210 c 2
 1157 210 l 2
 1195 210 1200 204 1200 164 c 2
 1200 44 l 2
 1200 1 1185 0 1145 0 c 2
 614 0 l 2
 582 0 580 8 580 41 c 2
 580 180 l 2
 580 208 593 210 612 210 c 2
 616 210 l 2
 637 210 640 217 640 249 c 2
 640 783 l 2
 640 821 638 830 600 830 c 2
 548 830 l 2
 519 830 510 829 510 800 c 2
 510 250 l 2
 510 218 506 210 519 210 c 2
 527 210 l 2
 531 210 550 209 550 185 c 2
 550 44 l 2
 550 1 556 0 516 0 c 2
 56 0 l 2
 15 0 10 7 10 47 c 2
544 1040 m 2
 618 1040 l 2
 630 1040 640 1040 640 1052 c 2
 640 1055 l 2
 640 1067 625.873046875 1070.31738281 614 1078 c 0
 580 1100 524 1129 524 1225 c 0
 524 1319 578 1338 578 1360 c 0
 578 1374 565 1386 535 1386 c 0
 435 1386 510 1174 510 1070 c 0
 510 1044 520 1040 544 1040 c 2
EndSplineSet
LCarets2: 1 0
Ligature2: "'liga' Standard Ligatures lookup 4 subtable" f f
EndChar

StartChar: uniFB01
Encoding: 64257 64257 109
Width: 1160
Flags: MW
Fore
SplineSet
510 778 m 2
 510 262 l 2
 510 217 516 210 530 210 c 2
 534 210 l 2
 547 210 560 206 560 174 c 2
 560 43 l 2
 560 5 551 0 515 0 c 2
 67 0 l 2
 20 0 10 1 10 48 c 2
 10 158 l 2
 10 200 11 210 33 210 c 2
 45 210 l 2
 83 210 90 213 90 250 c 2
 90 772 l 2
 90 820 89 830 41 830 c 2
 39 830 l 2
 15 830 10 837 10 880 c 2
 10 998 l 2
 10 1034 14 1040 49 1040 c 2
 49 1040 l 2
 85 1040 90 1046 90 1084 c 2
 90 1144 l 2
 90 1366 164 1600 564 1600 c 0
 886 1600 1040 1462 1040 1308 c 0
 1040 1188 930 1106 806 1106 c 0
 662 1106 566 1162 566 1272 c 0
 566 1366 638 1368 638 1400 c 0
 638 1414 620 1426 580 1426 c 0
 490 1426 510 1264 510 1100 c 2
 510 1078 l 2
 510 1042 518 1040 555 1040 c 2
 1013 1040 l 2
 1060 1040 1070 1039 1070 992 c 2
 1070 258 l 2
 1070 225 1073 210 1109 210 c 2
 1111 210 l 2
 1145 210 1150 200 1150 168 c 2
 1150 56 l 2
 1150 10 1146 0 1097 0 c 2
 655 0 l 2
 606 0 580 2 580 56 c 2
 580 154 l 2
 580 201 603 210 623 210 c 2
 625 210 l 2
 641 210 650 212 650 258 c 2
 650 780 l 2
 650 829 637 830 591 830 c 2
 563 830 l 2
 515 830 510 824 510 778 c 2
EndSplineSet
LCarets2: 1 0
Ligature2: "'liga' Standard Ligatures lookup 4 subtable" f i
EndChar

StartChar: uniFB02
Encoding: 64258 64258 110
Width: 1160
Flags: MW
Fore
SplineSet
510 786 m 2
 510 252 l 2
 510 221 511 210 535 210 c 2
 539 210 l 2
 556 210 560 202 560 174 c 2
 560 58 l 2
 560 5 554 0 503 0 c 2
 59 0 l 2
 13 0 10 7 10 54 c 2
 10 162 l 2
 10 204 10 210 45 210 c 2
 52 210 l 2
 89 210 90 217 90 268 c 2
 90 788 l 2
 90 828 82 830 41 830 c 2
 37 830 l 2
 12 830 10 838 10 864 c 2
 10 992 l 2
 10 1030 11 1040 37 1040 c 2
 39 1040 l 2
 83 1040 90 1044 90 1090 c 2
 90 1144 l 2
 90 1366 184 1600 584 1600 c 0
 686 1600 763 1578 827 1535 c 0
 869.421950298 1506.49775214 882.828439306 1500.80485549 915 1518 c 2
 973 1549 l 2
 1032 1580 1070 1565 1070 1464 c 2
 1070 258 l 2
 1070 216 1075 210 1109 210 c 2
 1113 210 l 2
 1144 210 1150 204 1150 174 c 2
 1150 48 l 2
 1150 9 1148 0 1109 0 c 2
 611 0 l 2
 582 0 580 8 580 48 c 2
 580 168 l 2
 580 205 586 210 615 210 c 2
 621 210 l 2
 649 210 650 216 650 258 c 2
 650 1048 l 2
 650 1097 636.842773438 1092.92480469 605 1113 c 0
 559 1142 526 1200 526 1272 c 0
 526 1366 579 1378 579 1400 c 0
 579 1414 560 1426 540 1426 c 0
 430 1426 510 1234 510 1100 c 2
 510 1084 l 2
 510 1046 514 1040 531 1040 c 2
 559 1040 l 2
 591 1040 600 1038 600 986 c 2
 600 878 l 2
 600 836 595 830 575 830 c 2
 561 830 l 2
 542 830 510 828 510 786 c 2
EndSplineSet
LCarets2: 1 0
Ligature2: "'liga' Standard Ligatures lookup 4 subtable" f l
EndChar

StartChar: uniFB03
Encoding: 64259 64259 111
Width: 1710
Flags: MW
Fore
SplineSet
532 1040 m 2
 614 1040 l 2
 631 1040 640 1045 640 1054 c 2
 640 1055 l 2
 640 1064 610.028320312 1077.83203125 599 1085 c 0
 559 1111 526 1142 526 1232 c 0
 526 1326 578 1338 578 1360 c 0
 578 1374 560 1386 540 1386 c 0
 430 1386 510 1194 510 1070 c 0
 510 1049 511 1040 532 1040 c 2
10 34 m 2
 10 162 l 2
 10 201 12 210 51 210 c 2
 53 210 l 2
 88 210 90 218 90 254 c 2
 90 786 l 2
 90 824 86 830 49 830 c 2
 37 830 l 2
 10 830 10 840 10 867 c 2
 10 1004 l 2
 10 1033 14 1040 42 1040 c 2
 55 1040 l 2
 84 1040 90 1045 90 1073 c 2
 90 1104 l 2
 90 1326 214 1560 524 1560 c 0
 649 1560 689.525414552 1546.7362494 744 1527 c 0
 785.791639811 1511.85880674 803.282080981 1519.75859496 853 1545 c 0
 918 1578 1031 1600 1164 1600 c 0
 1456 1600 1590 1452 1590 1308 c 0
 1590 1188 1500 1106 1356 1106 c 0
 1182 1106 1116 1172 1116 1262 c 0
 1116 1356 1188 1378 1188 1400 c 0
 1188 1414 1170 1426 1130 1426 c 0
 1030 1426 1060 1224 1060 1100 c 2
 1060 1060 l 2
 1060 1041 1069 1040 1088 1040 c 2
 1565 1040 l 2
 1613 1040 1620 1035 1620 985 c 2
 1620 258 l 2
 1620 218 1624 210 1656 210 c 2
 1660 210 l 2
 1685 210 1700 209 1700 171 c 2
 1700 30 l 2
 1700 6 1694 0 1668 0 c 2
 1163 0 l 2
 1133 0 1130 7 1130 38 c 2
 1130 171 l 2
 1130 204 1135 210 1170 210 c 2
 1177 210 l 2
 1195 210 1200 218 1200 249 c 2
 1200 778 l 2
 1200 828 1192 830 1142 830 c 2
 1112 830 l 2
 1064 830 1060 824 1060 774 c 2
 1060 249 l 2
 1060 211 1065 210 1078 210 c 2
 1082 210 l 2
 1104 210 1110 201 1110 163 c 2
 1110 38 l 2
 1110 1 1105 0 1072 0 c 2
 617 0 l 2
 591 0 580 3 580 32 c 2
 580 174 l 2
 580 207 587 210 611 210 c 2
 613 210 l 2
 637 210 640 217 640 242 c 2
 640 778 l 2
 640 821 638 830 595 830 c 2
 553 830 l 2
 520 830 510 829 510 796 c 2
 510 240 l 2
 510 218 506 210 524 210 c 2
 530 210 l 2
 545 210 550 209 550 184 c 2
 550 39 l 2
 550 8 547 0 517 0 c 2
 35 0 l 2
 11 0 10 9 10 34 c 2
EndSplineSet
LCarets2: 2 0 0
Ligature2: "'liga' Standard Ligatures lookup 4 subtable" f f i
EndChar

StartChar: uniFB04
Encoding: 64260 64260 112
Width: 1710
Flags: MW
Fore
SplineSet
538 1040 m 2
 616 1040 l 2
 631 1040 640 1041 640 1056 c 2
 640 1058 l 2
 640 1062 636.699478373 1063.23365625 629 1068 c 0
 566 1107 526 1132 526 1232 c 0
 526 1326 578 1338 578 1360 c 0
 578 1374 560 1386 540 1386 c 0
 434 1386 510 1204 510 1070 c 0
 510 1046 515 1040 538 1040 c 2
10 40 m 2
 10 174 l 2
 10 202 15 210 45 210 c 2
 50 210 l 2
 83 210 90 214 90 246 c 2
 90 790 l 2
 90 825 69 830 38 830 c 2
 56 830 l 2
 15 830 10 837 10 877 c 2
 10 999 l 2
 10 1031 12 1040 44 1040 c 2
 56 1040 l 2
 88 1040 90 1048 90 1081 c 2
 90 1104 l 2
 90 1326 204 1560 534 1560 c 0
 635 1560 692.729523666 1548.78065728 758 1521 c 0
 778.084548315 1512.45154157 788 1508 803 1517 c 0
 912.879882812 1582.92773438 986 1600 1104 1600 c 0
 1267 1600 1324 1574 1405 1520 c 0
 1420 1510 1437.11468057 1502.7866408 1471 1521 c 2
 1551 1564 l 2
 1593 1586 1620 1585 1620 1506 c 2
 1620 243 l 2
 1620 218 1625 210 1652 210 c 2
 1665 210 l 2
 1695 210 1700 204 1700 172 c 2
 1700 33 l 2
 1700 1 1691 0 1659 0 c 2
 1163 0 l 2
 1133 0 1130 7 1130 38 c 2
 1130 176 l 2
 1130 202 1135 210 1163 210 c 2
 1159 210 l 2
 1191 210 1200 212 1200 244 c 2
 1200 1068 l 2
 1200 1098 1184.85742188 1095.79003906 1165 1107 c 0
 1103 1142 1076 1187 1076 1272 c 0
 1076 1366 1128 1378 1128 1400 c 0
 1128 1414 1110 1426 1090 1426 c 0
 980 1426 1060 1244 1060 1100 c 2
 1060 1079 l 2
 1060 1046 1064 1040 1096 1040 c 2
 1117 1040 l 2
 1142 1040 1150 1038 1150 1014 c 2
 1150 867 l 2
 1150 838 1147 830 1119 830 c 2
 1110 830 l 2
 1077 830 1060 826 1060 790 c 2
 1060 252 l 2
 1060 212 1068 210 1109 210 c 2
 1059 210 l 2
 1097 210 1110 208 1110 167 c 2
 1110 43 l 2
 1110 3 1099 0 1061 0 c 2
 615 0 l 2
 584 0 580 7 580 39 c 2
 580 171 l 2
 580 204 584 210 606 210 c 2
 608 210 l 2
 638 210 640 225 640 252 c 2
 640 787 l 2
 640 829 625 830 586 830 c 2
 550 830 l 2
 516 830 510 826 510 793 c 2
 510 239 l 2
 510 211 511 210 530 210 c 2
 532 210 l 2
 548 210 550 204 550 176 c 2
 550 34 l 2
 550 8 547 0 522 0 c 2
 46 0 l 2
 14 0 10 7 10 40 c 2
EndSplineSet
LCarets2: 2 0 0
Ligature2: "'liga' Standard Ligatures lookup 4 subtable" f f l
EndChar

StartChar: R.alt
Encoding: 65536 -1 113
Width: 1290
Flags: MW
LayerCount: 2
Back
SplineSet
1386 273 m 0
 1344 95 1260 -40 1050 -40 c 0
 554 -40 883 620 650 620 c 2
 638 620 l 2
 600 620 600 610 600 572 c 2
 600 310 l 2
 600 279 601 270 632 270 c 2
 674 270 l 2
 710 270 720 263 720 224 c 2
 720 72 l 2
 720 13 719 0 660 0 c 2
 53 0 l 2
 19 0 10 5 10 38 c 2
 10 226 l 2
 10 263 16 270 52 270 c 2
 73 270 l 2
 120 270 130 276 130 322 c 2
 130 1179 l 2
 130 1225 119 1230 76 1230 c 2
 56 1230 l 2
 14 1230 10 1242 10 1282 c 2
 10 1462 l 2
 10 1496 20 1500 55 1500 c 2
 720 1500 l 2
 1092 1500 1220 1300 1220 1110 c 0
 1220 949 1198 835 1083 742 c 0
 1041.40964136 708.366057796 1014 707 1066 678 c 0
 1308 545 1103 308 1218 308 c 0
 1244 308 1246.28931379 323.091857449 1256 358 c 0
 1263.34863281 384.416992188 1282.64941406 388.471679688 1321 374 c 2
 1374 354 l 2
 1405.67800705 342.046035077 1395.93616488 315.110413057 1386 273 c 0
641 880 m 2
 649 880 l 2
 711 880 720 952 720 1050 c 0
 720 1148 711 1230 649 1230 c 2
 631 1230 l 2
 593 1230 600 1221 600 1182 c 2
 600 926 l 2
 600 877 593 880 641 880 c 2
EndSplineSet
Fore
SplineSet
625 880 m 2
 640 880 l 2
 712 880 720 952 720 1050 c 0
 720 1148 712 1230 640 1230 c 2
 631 1230 l 2
 599 1230 600 1230 600 1194 c 2
 600 914 l 2
 600 882 595 880 625 880 c 2
1239 -20 m 2
 1130 -20 l 2
 524 -20 883 620 670 620 c 2
 645 620 l 2
 609 620 600 618 600 582 c 2
 600 330 l 2
 600 290 609 270 653 270 c 2
 675 270 l 2
 718 270 720 260 720 216 c 2
 720 58 l 2
 720 7 696 0 649 0 c 2
 71 0 l 2
 13 0 10 9 10 68 c 2
 10 214 l 2
 10 269 21 270 77 270 c 2
 61 270 l 2
 110 270 130 271 130 320 c 2
 130 1168 l 2
 130 1212 121 1230 73 1230 c 2
 63 1230 l 2
 26 1230 10 1235 10 1274 c 2
 10 1446 l 2
 10 1491 30 1500 71 1500 c 2
 720 1500 l 2
 1082 1500 1190 1320 1190 1090 c 0
 1190 911 1146 813 1057 746 c 0
 1012.02539062 712.142578125 1031.27669217 702.01300043 1085 671 c 0
 1305 544 1101 270 1212 270 c 2
 1259 270 l 2
 1272 270 1280 255 1280 228 c 2
 1280 24 l 2
 1280 -18 1278 -20 1239 -20 c 2
EndSplineSet
EndChar

StartChar: zero.oldstyle
Encoding: 65537 -1 114
Width: 1120
Flags: MW
Fore
SplineSet
50 520 m 0
 50 866 214 1060 560 1060 c 0
 926 1060 1070 866 1070 520 c 0
 1070 174 886 -20 560 -20 c 0
 214 -20 50 174 50 520 c 0
470 520 m 0
 470 256 492 190 560 190 c 0
 638 190 650 256 650 520 c 0
 650 774 638 850 560 850 c 0
 492 850 470 774 470 520 c 0
EndSplineSet
Substitution2: "'tnum' Tabular Numbers lookup 6 subtable" zero.oldtab
EndChar

StartChar: one.oldstyle
Encoding: 65538 -1 115
Width: 920
Flags: MW
Fore
SplineSet
70 65 m 2
 70 166 l 2
 70 208 80 210 123 210 c 2
 215 210 l 2
 264 210 270 217 270 264 c 2
 270 563 l 2
 270 603 261 610 223 610 c 2
 149 610 l 2
 116 610 104 613 104 649 c 2
 104 769 l 2
 104 823 136.04296875 818.763671875 183 821 c 0
 267 825 356 850 449 1025 c 0
 466 1057 471 1070 523 1070 c 2
 609 1070 l 2
 652 1070 660 1065 660 1024 c 2
 660 266 l 2
 660 212 670 210 725 210 c 2
 797 210 l 2
 830 210 850 206 850 170 c 2
 850 59 l 2
 850 10 848 0 799 0 c 2
 135 0 l 2
 77 0 70 5 70 65 c 2
EndSplineSet
Substitution2: "'tnum' Tabular Numbers lookup 6 subtable" one.oldtab
EndChar

StartChar: two.oldstyle
Encoding: 65539 -1 116
Width: 1094
Flags: MW
Fore
SplineSet
1053.95703125 510 m 0
 1042.95703125 141 972.95703125 -20 724.95703125 -20 c 0
 540.95703125 -20 500.95703125 100 414.95703125 100 c 0
 357.95703125 100 320.95703125 74 297.95703125 34 c 0
 281.95703125 7 287.95703125 0 242.95703125 0 c 2
 100.95703125 0 l 2
 61.95703125 0 55.95703125 4 55.95703125 42 c 0
 56.95703125 320 137.613218533 341.84298181 428.95703125 508 c 0
 556.95703125 581 588.95703125 612 588.95703125 790 c 0
 588.95703125 848 566.95703125 896 498.95703125 896 c 0
 480.95703125 896 436.95703125 892 436.95703125 864 c 0
 436.95703125 828 538.95703125 828 538.95703125 696 c 0
 538.95703125 562 433.95703125 530 319.95703125 530 c 0
 201.95703125 530 86.95703125 606 86.95703125 762 c 0
 86.95703125 966 264.95703125 1080 558.95703125 1080 c 0
 830.95703125 1080 1010.95703125 1030 1010.95703125 810 c 0
 1010.95703125 570 772.0078125 527.579101562 598.95703125 460 c 0
 532.06640625 433.877929688 466.95703125 406 433.95703125 391 c 0
 368.682757114 361.329875393 289.95703125 301 311.95703125 301 c 0
 344.95703125 301 386.662109375 339.6328125 485.95703125 384 c 0
 540.418945312 408.334960938 578.95703125 419 614.95703125 419 c 0
 684.95703125 419 734.95703125 351 776.95703125 351 c 0
 823.95703125 351 844.95703125 431 857.95703125 510 c 0
 863.95703125 552 858.95703125 554 906.95703125 554 c 2
 1012.95703125 554 l 2
 1056.95703125 554 1053.95703125 552 1053.95703125 510 c 0
EndSplineSet
Substitution2: "'tnum' Tabular Numbers lookup 6 subtable" two.oldtab
EndChar

StartChar: three.oldstyle
Encoding: 65540 -1 117
Width: 960
Flags: MW
Fore
SplineSet
50 -112 m 0
 50 24 140 130 288 130 c 0
 422 130 492 58 492 -36 c 0
 492 -188 357 -198 357 -244 c 0
 357 -278 394 -296 422 -296 c 0
 500 -296 528 -248 528 -40 c 0
 528 96 479 195 406 210 c 0
 368.662109375 217.671875 354 203 354 247 c 2
 354 378 l 2
 354 417 363.33203125 406.388671875 397 412 c 0
 481 426 508 535 508 682 c 0
 508 830 470 886 402 886 c 0
 374 886 338 870 338 836 c 0
 338 790 472 800 472 658 c 0
 472 574 392 492 268 492 c 0
 150 492 30 568 30 714 c 0
 30 908 188 1060 492 1060 c 0
 764 1060 910 912 910 682 c 0
 910 538 835 428 734 358 c 0
 696.049804688 331.698242188 660 329 660 315 c 0
 660 298 683.934570312 298.729492188 734 272 c 0
 852 209 930 101 930 -60 c 0
 930 -360 734 -480 432 -480 c 0
 148 -480 50 -306 50 -112 c 0
EndSplineSet
Substitution2: "'tnum' Tabular Numbers lookup 6 subtable" three.oldtab
EndChar

StartChar: four.oldstyle
Encoding: 65541 -1 118
Width: 984
Flags: MW
Fore
SplineSet
936 -296 m 2
 936 -424 l 2
 936 -457 928 -460 894 -460 c 2
 362 -460 l 2
 315 -460 306 -459 306 -412 c 2
 306 -295 l 2
 306 -259 313 -250 350 -250 c 2
 399 -250 l 2
 443 -250 446 -243 446 -198 c 2
 446 -53 l 2
 446 1 446 1 392 1 c 2
 94 1 l 2
 51 1 51 9 37 35 c 2
 6 93 l 2
 -6 114 1 123 12 145 c 0
 169 459 381 588 484 984 c 0
 495 1026 496 1040 552 1040 c 2
 822 1040 l 2
 875 1040 884 1035 876 988 c 0
 812 602 533 481 337 262 c 0
 310 232 285 211 363 211 c 2
 408 211 l 2
 443 211 446 217 446 243 c 2
 446 250 l 2
 446 297 457 294 488 311 c 0
 554 346 643 394 684 480 c 0
 693 500 699 510 730 510 c 2
 796 510 l 2
 827 510 836 509 836 478 c 2
 836 269 l 2
 836 236 845 211 882 211 c 2
 930 211 l 2
 962 211 966 203 966 173 c 2
 966 57 l 2
 966 11 966 1 920 1 c 2
 890 1 l 2
 849 1 836 -3 836 -47 c 2
 836 -198 l 2
 836 -243 841 -250 888 -250 c 2
 892 -250 l 2
 931 -250 936 -256 936 -296 c 2
EndSplineSet
Substitution2: "'tnum' Tabular Numbers lookup 6 subtable" four.oldtab
EndChar

StartChar: five.oldstyle
Encoding: 65542 -1 119
Width: 930
Flags: MW
Fore
SplineSet
30 -142 m 0
 30 4 130 90 258 90 c 0
 382 90 462 8 462 -96 c 0
 462 -228 378 -218 378 -264 c 0
 378 -298 404 -316 422 -316 c 0
 470 -316 498 -158 498 50 c 0
 498 268 480 322 442 322 c 0
 413 322 391 303 305 195 c 0
 289 174 278 164 239 164 c 2
 175 164 l 2
 121 164 126 182 131 226 c 2
 183 1000 l 2
 187 1038 197 1040 239 1040 c 2
 294 1040 l 2
 495 1040 597 1008 663 1083 c 0
 676 1098 686 1104 717 1104 c 2
 822 1104 l 2
 848 1104 859 1097 854 1074 c 2
 851 1040 l 2
 836.36328125 874.115234375 844 660 510 660 c 2
 355 660 l 2
 317 660 305.802734375 650.513671875 308 618 c 2
 303 470 l 2
 305.528320312 432.576171875 296 390 304 386 c 0
 319 377 336.127929688 403.18359375 359 436 c 0
 405 502 475 540 586 540 c 0
 878 540 900 320 900 40 c 0
 900 -300 804 -480 462 -480 c 0
 158 -480 30 -346 30 -142 c 0
EndSplineSet
Substitution2: "'tnum' Tabular Numbers lookup 6 subtable" five.oldtab
EndChar

StartChar: seven.oldstyle
Encoding: 65543 -1 120
Width: 1027
Flags: MW
Fore
SplineSet
0.462890625 522 m 0
 10.462890625 887 119.462890625 1060 320.462890625 1060 c 0
 514.462890625 1060 534.462890625 940 700.462890625 940 c 0
 768.462890625 940 801.462890625 967 821.462890625 1011 c 0
 829.462890625 1029 832.462890625 1040 860.462890625 1040 c 2
 989.462890625 1040 l 2
 1024.46289062 1040 1030.46289062 1033 1025.46289062 1000 c 0
 1002.46289062 845 841.462890625 533 696.462890625 296 c 0
 592.696289062 126.395507812 548.462890625 72 548.462890625 4 c 0
 548.462890625 -92 724.462890625 -92 724.462890625 -244 c 0
 724.462890625 -358 654.462890625 -480 496.462890625 -480 c 0
 348.462890625 -480 234.462890625 -386 234.462890625 -208 c 0
 234.462890625 -30 331.145507812 80.103515625 458.462890625 302 c 0
 528.462890625 424 568.462890625 505 664.462890625 640 c 0
 693.462890625 681 718.462890625 716 708.462890625 726 c 0
 693.462890625 741 663.060546875 705.315429688 640.462890625 676 c 0
 603.462890625 628 564.462890625 616 510.462890625 616 c 0
 420.462890625 616 420.462890625 674 338.462890625 674 c 0
 271.462890625 674 186.462890625 622 176.462890625 520 c 0
 174.462890625 497 181.462890625 486 153.462890625 486 c 2
 37.462890625 486 l 2
 7.462890625 486 -0.537109375 494 0.462890625 522 c 0
EndSplineSet
Substitution2: "'tnum' Tabular Numbers lookup 6 subtable" seven.oldtab
EndChar

StartChar: nine.oldstyle
Encoding: 65544 -1 121
Width: 1010
Flags: MW
Fore
SplineSet
424 -302 m 0
 424 -318 434 -326 452 -326 c 0
 550 -326 556 -157 576 176 c 0
 578 211 583 225 576 229 c 0
 567 234 556.99609375 222.578125 543 198 c 0
 502 126 438 80 348 80 c 0
 126 80 30 230 30 540 c 0
 30 910 200 1060 502 1060 c 0
 824 1060 980 870 980 300 c 0
 980 -180 824 -480 452 -480 c 0
 178 -480 80 -336 80 -182 c 0
 80 -46 159 50 298 50 c 0
 432 50 522 -22 522 -136 c 0
 522 -248 424 -276 424 -302 c 0
430 570 m 0
 430 382 464 318 502 318 c 0
 538 318 580 420 580 580 c 0
 580 738 560 830 502 830 c 0
 454 830 430 748 430 570 c 0
EndSplineSet
Substitution2: "'tnum' Tabular Numbers lookup 6 subtable" nine.oldtab
EndChar

StartChar: zero.oldtab
Encoding: 65545 -1 122
Width: 1100
Flags: MW
Fore
SplineSet
40 520 m 0
 40 866 204 1060 550 1060 c 0
 916 1060 1060 866 1060 520 c 0
 1060 174 876 -20 550 -20 c 0
 204 -20 40 174 40 520 c 0
460 520 m 0
 460 256 482 190 550 190 c 0
 628 190 640 256 640 520 c 0
 640 774 628 850 550 850 c 0
 482 850 460 774 460 520 c 0
EndSplineSet
EndChar

StartChar: one.oldtab
Encoding: 65546 -1 123
Width: 1100
Flags: MW
Fore
SplineSet
160 65 m 2
 160 166 l 2
 160 208 170 210 213 210 c 2
 305 210 l 2
 354 210 360 217 360 264 c 2
 360 563 l 2
 360 603 351 610 313 610 c 2
 239 610 l 2
 206 610 194 613 194 649 c 2
 194 769 l 2
 194 823 226.04296875 818.763671875 273 821 c 0
 357 825 446 850 539 1025 c 0
 556 1057 561 1070 613 1070 c 2
 699 1070 l 2
 742 1070 750 1065 750 1024 c 2
 750 266 l 2
 750 212 760 210 815 210 c 2
 887 210 l 2
 920 210 940 206 940 170 c 2
 940 59 l 2
 940 10 938 0 889 0 c 2
 225 0 l 2
 167 0 160 5 160 65 c 2
EndSplineSet
EndChar

StartChar: two.oldtab
Encoding: 65547 -1 124
Width: 1100
Flags: MW
Fore
SplineSet
1056.95996094 510 m 0
 1045.95996094 141 975.959960938 -20 727.959960938 -20 c 0
 543.959960938 -20 503.959960938 100 417.959960938 100 c 0
 360.959960938 100 323.959960938 74 300.959960938 34 c 0
 284.959960938 7 290.959960938 0 245.959960938 0 c 2
 103.959960938 0 l 2
 64.9599609375 0 58.9599609375 4 58.9599609375 42 c 0
 59.9599609375 320 140.616210938 341.842773438 431.959960938 508 c 0
 559.959960938 581 591.959960938 612 591.959960938 790 c 0
 591.959960938 848 569.959960938 896 501.959960938 896 c 0
 483.959960938 896 439.959960938 892 439.959960938 864 c 0
 439.959960938 828 541.959960938 828 541.959960938 696 c 0
 541.959960938 562 436.959960938 530 322.959960938 530 c 0
 204.959960938 530 89.9599609375 606 89.9599609375 762 c 0
 89.9599609375 966 267.959960938 1080 561.959960938 1080 c 0
 833.959960938 1080 1013.95996094 1030 1013.95996094 810 c 0
 1013.95996094 570 775.010742188 527.579101562 601.959960938 460 c 0
 535.069335938 433.877929688 469.959960938 406 436.959960938 391 c 0
 371.685546875 361.330078125 292.959960938 301 314.959960938 301 c 0
 347.959960938 301 389.665039062 339.6328125 488.959960938 384 c 0
 543.421875 408.334960938 581.959960938 419 617.959960938 419 c 0
 687.959960938 419 737.959960938 351 779.959960938 351 c 0
 826.959960938 351 847.959960938 431 860.959960938 510 c 0
 866.959960938 552 861.959960938 554 909.959960938 554 c 2
 1015.95996094 554 l 2
 1059.95996094 554 1056.95996094 552 1056.95996094 510 c 0
EndSplineSet
EndChar

StartChar: three.oldtab
Encoding: 65548 -1 125
Width: 1100
Flags: MW
Fore
SplineSet
120 -112 m 0
 120 24 210 130 358 130 c 0
 492 130 562 58 562 -36 c 0
 562 -188 427 -198 427 -244 c 0
 427 -278 464 -296 492 -296 c 0
 570 -296 598 -248 598 -40 c 0
 598 96 549 195 476 210 c 0
 438.662109375 217.671875 424 203 424 247 c 2
 424 378 l 2
 424 417 433.33203125 406.388671875 467 412 c 0
 551 426 578 535 578 682 c 0
 578 830 540 886 472 886 c 0
 444 886 408 870 408 836 c 0
 408 790 542 800 542 658 c 0
 542 574 462 492 338 492 c 0
 220 492 100 568 100 714 c 0
 100 908 258 1060 562 1060 c 0
 834 1060 980 912 980 682 c 0
 980 538 905 428 804 358 c 0
 766.049804688 331.698242188 730 329 730 315 c 0
 730 298 753.934570312 298.729492188 804 272 c 0
 922 209 1000 101 1000 -60 c 0
 1000 -360 804 -480 502 -480 c 0
 218 -480 120 -306 120 -112 c 0
EndSplineSet
EndChar

StartChar: four.oldtab
Encoding: 65549 -1 126
Width: 1100
Flags: MW
Fore
SplineSet
993.99609375 -296 m 2
 993.99609375 -424 l 2
 993.99609375 -457 985.99609375 -460 951.99609375 -460 c 2
 419.99609375 -460 l 2
 372.99609375 -460 363.99609375 -459 363.99609375 -412 c 2
 363.99609375 -295 l 2
 363.99609375 -259 370.99609375 -250 407.99609375 -250 c 2
 456.99609375 -250 l 2
 500.99609375 -250 503.99609375 -243 503.99609375 -198 c 2
 503.99609375 -53 l 2
 503.99609375 1 503.99609375 1 449.99609375 1 c 2
 151.99609375 1 l 2
 108.99609375 1 108.99609375 9 94.99609375 35 c 2
 63.99609375 93 l 2
 51.99609375 114 58.99609375 123 69.99609375 145 c 0
 226.99609375 459 438.99609375 588 541.99609375 984 c 0
 552.99609375 1026 553.99609375 1040 609.99609375 1040 c 2
 879.99609375 1040 l 2
 932.99609375 1040 941.99609375 1035 933.99609375 988 c 0
 869.99609375 602 590.99609375 481 394.99609375 262 c 0
 367.99609375 232 342.99609375 211 420.99609375 211 c 2
 465.99609375 211 l 2
 500.99609375 211 503.99609375 217 503.99609375 243 c 2
 503.99609375 250 l 2
 503.99609375 297 514.99609375 294 545.99609375 311 c 0
 611.99609375 346 700.99609375 394 741.99609375 480 c 0
 750.99609375 500 756.99609375 510 787.99609375 510 c 2
 853.99609375 510 l 2
 884.99609375 510 893.99609375 509 893.99609375 478 c 2
 893.99609375 269 l 2
 893.99609375 236 902.99609375 211 939.99609375 211 c 2
 987.99609375 211 l 2
 1019.99609375 211 1023.99609375 203 1023.99609375 173 c 2
 1023.99609375 57 l 2
 1023.99609375 11 1023.99609375 1 977.99609375 1 c 2
 947.99609375 1 l 2
 906.99609375 1 893.99609375 -3 893.99609375 -47 c 2
 893.99609375 -198 l 2
 893.99609375 -243 898.99609375 -250 945.99609375 -250 c 2
 949.99609375 -250 l 2
 988.99609375 -250 993.99609375 -256 993.99609375 -296 c 2
EndSplineSet
EndChar

StartChar: five.oldtab
Encoding: 65550 -1 127
Width: 1100
Flags: MW
Fore
SplineSet
115 -142 m 0
 115 4 215 90 343 90 c 0
 467 90 547 8 547 -96 c 0
 547 -228 463 -218 463 -264 c 0
 463 -298 489 -316 507 -316 c 0
 555 -316 583 -158 583 50 c 0
 583 268 565 322 527 322 c 0
 498 322 476 303 390 195 c 0
 374 174 363 164 324 164 c 2
 260 164 l 2
 206 164 211 182 216 226 c 2
 268 1000 l 2
 272 1038 282 1040 324 1040 c 2
 379 1040 l 2
 580 1040 682 1008 748 1083 c 0
 761 1098 771 1104 802 1104 c 2
 907 1104 l 2
 933 1104 944 1097 939 1074 c 2
 936 1040 l 2
 921.36328125 874.115234375 929 660 595 660 c 2
 440 660 l 2
 402 660 390.802734375 650.513671875 393 618 c 2
 388 470 l 2
 390.528320312 432.576171875 381 390 389 386 c 0
 404 377 421.127929688 403.18359375 444 436 c 0
 490 502 560 540 671 540 c 0
 963 540 985 320 985 40 c 0
 985 -300 889 -480 547 -480 c 0
 243 -480 115 -346 115 -142 c 0
EndSplineSet
EndChar

StartChar: seven.oldtab
Encoding: 65551 -1 128
Width: 1100
Flags: MW
Fore
SplineSet
36.9609375 522 m 0
 46.9609375 887 155.9609375 1060 356.9609375 1060 c 0
 550.9609375 1060 570.9609375 940 736.9609375 940 c 0
 804.9609375 940 837.9609375 967 857.9609375 1011 c 0
 865.9609375 1029 868.9609375 1040 896.9609375 1040 c 2
 1025.9609375 1040 l 2
 1060.9609375 1040 1066.9609375 1033 1061.9609375 1000 c 0
 1038.9609375 845 877.9609375 533 732.9609375 296 c 0
 629.194335938 126.395507812 584.9609375 72 584.9609375 4 c 0
 584.9609375 -92 760.9609375 -92 760.9609375 -244 c 0
 760.9609375 -358 690.9609375 -480 532.9609375 -480 c 0
 384.9609375 -480 270.9609375 -386 270.9609375 -208 c 0
 270.9609375 -30 367.643554688 80.103515625 494.9609375 302 c 0
 564.9609375 424 604.9609375 505 700.9609375 640 c 0
 729.9609375 681 754.9609375 716 744.9609375 726 c 0
 729.9609375 741 699.55859375 705.315429688 676.9609375 676 c 0
 639.9609375 628 600.9609375 616 546.9609375 616 c 0
 456.9609375 616 456.9609375 674 374.9609375 674 c 0
 307.9609375 674 222.9609375 622 212.9609375 520 c 0
 210.9609375 497 217.9609375 486 189.9609375 486 c 2
 73.9609375 486 l 2
 43.9609375 486 35.9609375 494 36.9609375 522 c 0
EndSplineSet
EndChar

StartChar: nine.oldtab
Encoding: 65552 -1 129
Width: 1100
Flags: MW
Fore
SplineSet
469 -302 m 0
 469 -318 479 -326 497 -326 c 0
 595 -326 601 -157 621 176 c 0
 623 211 628 225 621 229 c 0
 612 234 601.99609375 222.578125 588 198 c 0
 547 126 483 80 393 80 c 0
 171 80 75 230 75 540 c 0
 75 910 245 1060 547 1060 c 0
 869 1060 1025 870 1025 300 c 0
 1025 -180 869 -480 497 -480 c 0
 223 -480 125 -336 125 -182 c 0
 125 -46 204 50 343 50 c 0
 477 50 567 -22 567 -136 c 0
 567 -248 469 -276 469 -302 c 0
475 570 m 0
 475 382 509 318 547 318 c 0
 583 318 625 420 625 580 c 0
 625 738 605 830 547 830 c 0
 499 830 475 748 475 570 c 0
EndSplineSet
EndChar

StartChar: uniFF10
Encoding: 65296 65296 130
Width: 1100
Flags: MW
Fore
SplineSet
40 750 m 0
 40 1316 204 1520 550 1520 c 0
 916 1520 1060 1316 1060 750 c 0
 1060 184 876 -20 550 -20 c 0
 204 -20 40 184 40 750 c 0
460 750 m 0
 460 266 482 190 550 190 c 0
 628 190 640 266 640 750 c 0
 640 1234 628 1310 550 1310 c 0
 482 1310 460 1234 460 750 c 0
EndSplineSet
EndChar

StartChar: uniFF19
Encoding: 65305 65305 139
Width: 1100
Flags: MW
Fore
SplineSet
469 158 m 0
 469 142 479 134 497 134 c 0
 595 134 601 303 621 636 c 0
 623 671 628 685 621 689 c 0
 612 694 601.99609375 682.578125 588 658 c 0
 547 586 483 540 393 540 c 0
 171 540 75 690 75 1000 c 0
 75 1370 245 1520 547 1520 c 0
 869 1520 1025 1330 1025 760 c 0
 1025 280 869 -20 497 -20 c 0
 223 -20 125 124 125 278 c 0
 125 414 204 510 343 510 c 0
 477 510 567 438 567 324 c 0
 567 212 469 184 469 158 c 0
475 1030 m 0
 475 842 509 778 547 778 c 0
 583 778 625 880 625 1040 c 0
 625 1198 605 1290 547 1290 c 0
 499 1290 475 1208 475 1030 c 0
EndSplineSet
EndChar

StartChar: dagger
Encoding: 8224 8224 152
Width: 1186
Flags: MW
Fore
SplineSet
487 1088 m 0
 480 1195 413 1179 395 1311 c 0
 393 1325 393 1336 393 1348 c 0
 393 1446 484 1520 593 1520 c 0
 702 1520 793 1446 793 1348 c 0
 793 1336 793 1325 791 1311 c 0
 773 1182 709 1195 700 1094 c 0
 699 1078 699 1072 714 1075 c 0
 789 1088 809 1157 927 1174 c 0
 941 1176 952 1176 964 1176 c 0
 1062 1176 1136 1085 1136 976 c 0
 1136 867 1062 776 964 776 c 0
 952 776 941 776 927 778 c 0
 815 794 791 857 724 875 c 0
 708 879 697 877 698 863 c 0
 706 711 757 611 813 528 c 0
 824 511 830 498 821 479 c 0
 746 315 690 -6 688 -478 c 0
 688 -499 681 -500 660 -500 c 2
 528 -500 l 2
 506 -500 498 -497 498 -476 c 0
 496 -14 442 303 369 469 c 0
 357 497 360 509 376 533 c 0
 430 615 479 711 487 858 c 0
 488 876 482 880 462 875 c 0
 395 857 371 794 259 778 c 0
 245 776 234 776 222 776 c 0
 114 776 50 867 50 976 c 0
 50 1085 114 1176 222 1176 c 0
 234 1176 245 1176 259 1174 c 0
 379 1157 398 1085 477 1074 c 0
 487 1073 488 1077 487 1088 c 0
EndSplineSet
EndChar

StartChar: daggerdbl
Encoding: 8225 8225 153
Width: 1186
Flags: MW
Fore
SplineSet
486 1085 m 0
 478 1182 413 1190 395 1321 c 0
 393 1335 393 1346 393 1358 c 0
 393 1436 484 1520 593 1520 c 0
 702 1520 793 1446 793 1368 c 0
 793 1356 793 1345 791 1331 c 0
 773 1205 712 1185 701 1096 c 0
 698 1076 698 1072 718 1076 c 0
 790 1091 812 1157 927 1174 c 0
 941 1176 952 1176 964 1176 c 0
 1062 1176 1136 1085 1136 976 c 0
 1136 867 1062 776 964 776 c 0
 952 776 941 776 927 778 c 0
 818 794 793 854 729 873 c 0
 704 880 697 882 699 852 c 0
 706 710 756 615 809 535 c 0
 825 511 831 499 815 474 c 0
 759 391 705 294 699 143 c 0
 698 123 697 119 716 123 c 0
 790 137 811 205 927 222 c 0
 941 224 952 224 964 224 c 0
 1062 224 1136 133 1136 24 c 0
 1136 -95 1062 -176 964 -176 c 0
 952 -176 941 -176 927 -174 c 0
 817 -158 792 -97 728 -78 c 0
 711 -73 697 -67 700 -91 c 0
 710 -183 773 -193 791 -321 c 0
 793 -335 793 -346 793 -358 c 0
 793 -436 712 -520 593 -520 c 0
 474 -520 393 -436 393 -358 c 0
 393 -346 393 -335 395 -321 c 0
 413 -194 476 -183 486 -93 c 0
 489 -70 481 -72 462 -77 c 0
 395 -94 371 -158 259 -174 c 0
 245 -176 234 -176 222 -176 c 0
 124 -176 50 -95 50 24 c 0
 50 133 124 224 222 224 c 0
 234 224 245 224 259 222 c 0
 375 205 396 137 470 123 c 0
 488 120 488 122 487 141 c 0
 481 286 432 382 379 463 c 0
 358 495 358 505 379 537 c 0
 431 617 480 711 487 853 c 0
 488 884 480 880 456 873 c 0
 393 853 367 794 259 778 c 0
 245 776 234 776 222 776 c 0
 114 776 50 867 50 976 c 0
 50 1085 114 1176 222 1176 c 0
 234 1176 245 1176 259 1174 c 0
 375 1157 396 1089 470 1075 c 0
 482 1073 487 1070 486 1085 c 0
EndSplineSet
EndChar

StartChar: exclamdown
Encoding: 161 161 159
Width: 798
Flags: MW
Fore
SplineSet
638 840 m 0
 638 708 530 600 398 600 c 0
 266 600 158 708 158 840 c 0
 158 972 266 1080 398 1080 c 0
 530 1080 638 972 638 840 c 0
142 -208 m 0
 182 128 300 161 311 424 c 0
 312 450 314 464 345 464 c 2
 445 464 l 2
 486 464 487 452 489 416 c 0
 502 161 618 124 658 -208 c 0
 660 -222 658 -234 658 -246 c 0
 658 -418 534 -496 400 -496 c 0
 266 -496 140 -418 140 -246 c 0
 140 -234 140 -222 142 -208 c 0
EndSplineSet
EndChar

StartChar: cent
Encoding: 162 162 160
Width: 1250
Flags: MW
Fore
SplineSet
762 1230 m 2
 822 1230 l 2
 863 1230 858 1215 851 1186 c 2
 551 -136 l 2
 544 -163 547 -170 512 -170 c 2
 436 -170 l 2
 403 -170 392 -168 399 -142 c 2
 702 1190 l 2
 711 1224 718 1230 762 1230 c 2
EndSplineSet
Refer: 40 99 N 1 0 0 1 0 0 2
EndChar

StartChar: sterling
Encoding: 163 163 161
Width: 1415
Flags: MW
Fore
SplineSet
111 15 m 0
 115 259 368 403 368 522 c 0
 368 563 361 560 321 560 c 2
 59 560 l 2
 21 560 0 549 -0 591 c 2
 -0 747 l 2
 0 787 10 790 47 790 c 2
 191 790 l 2
 282 790 250 804 219 851 c 0
 169 925 126 1003 126 1100 c 0
 126 1380 396 1550 798 1550 c 0
 1162 1550 1330 1346 1330 1162 c 0
 1330 1006 1220 910 1102 910 c 0
 988 910 870 992 870 1126 c 0
 870 1218 944 1248 944 1294 c 0
 944 1348 886 1366 798 1366 c 0
 640 1366 588 1268 588 1120 c 0
 588 1019 627 935 666 857 c 0
 692 805 689 790 769 790 c 2
 957 790 l 2
 1014 790 1020 785 1020 729 c 2
 1020 635 l 2
 1020 566 1015 560 943 560 c 2
 795 560 l 2
 732 560 734 557 715 515 c 0
 664 400 537 350 431 271 c 0
 385 237 361 202 372 193 c 0
 388 180 495 276 568 320 c 0
 660 376 738 414 824 414 c 0
 944 414 964 326 1056 326 c 0
 1106 326 1156 351 1178 407 c 0
 1194 448 1174 474 1235 474 c 2
 1327 474 l 2
 1377 474 1365 449 1362 405 c 0
 1344 143 1221 -80 984 -80 c 0
 750 -80 680 50 534 50 c 0
 468 50 353 30 299 -8 c 0
 274 -26 283 -40 243 -40 c 2
 131 -40 l 2
 104 -40 111 -7 111 15 c 0
EndSplineSet
EndChar

StartChar: yen
Encoding: 165 165 162
Width: 1380
Flags: MW
Fore
SplineSet
147 870 m 2
 1210 870 l 2
 1264 870 1270 863 1270 831 c 2
 1270 681 l 2
 1270 646 1268 640 1207 640 c 2
 161 640 l 2
 98 640 88 645 88 680 c 2
 88 829 l 2
 88 861 91 870 147 870 c 2
147 580 m 2
 1209 580 l 2
 1263 580 1268 573 1268 541 c 2
 1268 391 l 2
 1268 356 1267 350 1206 350 c 2
 161 350 l 2
 99 350 88 355 88 390 c 2
 88 539 l 2
 88 571 91 580 147 580 c 2
EndSplineSet
Refer: 36 89 N 1 0 0 1 0 0 2
EndChar

StartChar: onequarter
Encoding: 188 188 163
Width: 2000
Flags: MW
Fore
SplineSet
1522 1440 m 1
 1650 1440 l 1
 728 -60 l 1
 590 -60 l 1
 1522 1440 l 1
EndSplineSet
Refer: 6 52 N 0.6 0 0 0.6 1070 4 2
Refer: 3 49 N 0.6 0 0 0.6 214 632 2
EndChar

StartChar: onehalf
Encoding: 189 189 164
Width: 2000
Flags: MW
Fore
SplineSet
1492 1450 m 1
 1620 1450 l 1
 698 -50 l 1
 560 -50 l 1
 1492 1450 l 1
EndSplineSet
Refer: 4 50 N 0.6 0 0 0.6 1152 -16 2
Refer: 3 49 N 0.6 0 0 0.6 214 622 2
EndChar

StartChar: threequarters
Encoding: 190 190 165
Width: 2000
Flags: MW
Fore
SplineSet
1432 1400 m 1
 1560 1400 l 1
 638 -100 l 1
 500 -100 l 1
 1432 1400 l 1
EndSplineSet
Refer: 6 52 N 0.6 0 0 0.6 1070 -36 2
Refer: 5 51 N 0.6 0 0 0.6 130 614 2
EndChar

StartChar: questiondown
Encoding: 191 191 166
Width: 1170
Flags: MW
Fore
SplineSet
812 -294 m 0
 812 -254 670 -272 670 -110 c 0
 670 14 796 100 906 100 c 0
 1026 100 1140 14 1140 -142 c 0
 1140 -306 942 -480 608 -480 c 0
 286 -480 30 -350 30 -60 c 0
 30 200 245 350 504 422 c 0
 531 429 536 427 539 460 c 2
 542 504 l 2
 545 540 562 542 598 542 c 2
 664 542 l 2
 730 542 737 536 745 480 c 2
 759 388 l 2
 768 328 744 338 700 318 c 0
 527 241 432 84 432 -100 c 0
 432 -248 490 -356 648 -356 c 0
 756 -356 812 -318 812 -294 c 0
832 840 m 0
 832 708 724 600 592 600 c 0
 460 600 352 708 352 840 c 0
 352 972 460 1080 592 1080 c 0
 724 1080 832 972 832 840 c 0
EndSplineSet
EndChar

StartChar: section
Encoding: 167 167 167
Width: 1188
Flags: MW
Fore
SplineSet
754 1316 m 0
 754 1368 690 1388 586 1388 c 0
 480 1388 450 1342 450 1268 c 0
 450 1036 1136 1076 1136 750 c 0
 1136 662 1072 581 987 514 c 1
 1074 463 1136 393 1136 284 c 0
 1136 36 776 -40 586 -40 c 0
 370 -40 18 4 18 256 c 0
 18 412 148 478 226 478 c 0
 320 478 420 386 420 292 c 0
 420 220 356 210 356 164 c 0
 356 112 460 112 564 112 c 0
 690 112 740 138 740 232 c 0
 740 464 54 424 54 750 c 0
 54 856 146 913 237 965 c 1
 133 1018 54 1091 54 1216 c 0
 54 1424 374 1540 564 1540 c 0
 820 1540 1112 1456 1112 1224 c 0
 1112 1088 982 1032 904 1032 c 0
 830 1032 710 1094 710 1188 c 0
 710 1260 754 1270 754 1316 c 0
454 880 m 1
 449 865 446 849 446 834 c 0
 446 722 572 671 717 622 c 1
 722 636 724 651 724 666 c 0
 724 780 597 830 454 880 c 1
EndSplineSet
EndChar

StartChar: uni00B2
Encoding: 178 178 168
Width: 859
Flags: MW
Fore
SplineSet
819 1220 m 0
 812 999 723 902 562 902 c 0
 422 902 344 974 256 974 c 0
 222 974 200 958 186 934 c 0
 176 918 180 914 153 914 c 2
 68 914 l 2
 45 914 41 916 41 939 c 0
 42 1106 123 1260 288 1375 c 0
 377 1437 528 1497 528 1604 c 0
 528 1687 497 1722 372 1722 c 0
 295 1722 233 1692 233 1666 c 0
 233 1644 330 1651 330 1548 c 0
 330 1468 267 1424 199 1424 c 0
 128 1424 59 1469 59 1563 c 0
 59 1727 214 1826 426 1826 c 0
 643 1826 782 1754 782 1598 c 0
 782 1430 613 1389 432 1310 c 0
 331 1266 273 1224 235 1179 c 0
 207 1146 181 1095 194 1095 c 0
 208 1095 208 1127 245 1162 c 0
 273 1188 318 1195 358 1195 c 0
 460 1195 508 1143 599 1143 c 0
 663 1143 694 1173 702 1220 c 0
 706 1245 702 1246 731 1246 c 2
 795 1246 l 2
 821 1246 819 1245 819 1220 c 0
EndSplineSet
EndChar

StartChar: uni00B3
Encoding: 179 179 169
Width: 776
Flags: MW
Fore
SplineSet
40 1123 m 0
 40 1205 94 1268 183 1268 c 0
 263 1268 305 1224 305 1168 c 0
 305 1089 230 1090 230 1062 c 0
 230 1030 288 1012 335 1012 c 0
 424 1012 495 1041 495 1166 c 0
 495 1248 442 1307 332 1316 c 0
 309 1318 300 1312 300 1338 c 2
 300 1417 l 2
 300 1440 306 1435 326 1437 c 0
 436 1445 471 1511 471 1599 c 0
 471 1688 412 1722 335 1722 c 0
 300 1722 261 1712 261 1692 c 0
 261 1664 341 1670 341 1585 c 0
 341 1535 293 1485 219 1485 c 0
 148 1485 76 1530 76 1618 c 0
 76 1734 195 1826 383 1826 c 0
 582 1826 712 1737 712 1599 c 0
 712 1513 661 1435 528 1393 c 0
 502 1385 484 1387 484 1379 c 0
 484 1369 495 1373 528 1365 c 0
 671 1327 736 1251 736 1154 c 0
 736 974 552 902 371 902 c 0
 159 902 40 1007 40 1123 c 0
EndSplineSet
EndChar

StartChar: ordfeminine
Encoding: 170 170 170
Width: 907
Flags: MW
Fore
SplineSet
40 1112 m 0
 40 1249 187 1317 393 1317 c 2
 434 1317 l 2
 448 1317 449 1318 449 1332 c 2
 449 1404 l 2
 449 1466 410 1497 356 1497 c 0
 338 1497 324 1492 324 1485 c 0
 324 1471 345 1471 345 1418 c 0
 345 1359 284 1324 219 1324 c 0
 146 1324 88 1353 88 1418 c 0
 88 1552 265 1600 434 1600 c 0
 602 1600 701 1531 701 1380 c 2
 701 1127 l 2
 701 1103 715 1092 732 1092 c 0
 749 1092 765 1098 779 1124 c 0
 783 1131 787 1133 793 1128 c 1
 861 1086 l 2
 868 1082 869 1080 865 1072 c 0
 837 1019 777 952 668 952 c 0
 667 952 l 0
 582 952 534 970 498 1010 c 0
 478 1032 471 1032 458 1019 c 0
 418 980 353 952 250 952 c 0
 113 952 40 1005 40 1112 c 0
324 1136 m 0
 324 1104 340 1083 376 1083 c 0
 428 1083 449 1114 449 1193 c 2
 449 1214 l 2
 449 1224 447 1226 437 1226 c 2
 432 1226 l 2
 377 1226 324 1180 324 1136 c 0
EndSplineSet
EndChar

StartChar: uni00B9
Encoding: 185 185 171
Width: 740
Flags: MW
Fore
SplineSet
40 951 m 2
 40 1012 l 2
 40 1037 46 1038 72 1038 c 2
 229 1038 l 2
 258 1038 262 1042 262 1070 c 2
 262 1556 l 2
 262 1580 257 1584 234 1584 c 2
 87 1584 l 2
 67 1584 60 1585 60 1607 c 2
 60 1679 l 2
 60 1711 80 1710 108 1711 c 0
 218 1713 313 1728 369 1833 c 0
 379 1852 383 1860 414 1860 c 2
 465 1860 l 2
 491 1860 496 1857 496 1832 c 2
 496 1072 l 2
 496 1040 502 1038 535 1038 c 2
 668 1038 l 2
 688 1038 700 1036 700 1014 c 2
 700 947 l 2
 700 918 698 912 669 912 c 2
 79 912 l 2
 44 912 40 915 40 951 c 2
EndSplineSet
EndChar

StartChar: ordmasculine
Encoding: 186 186 172
Width: 798
Flags: MW
Fore
SplineSet
310 1286 m 0
 310 1161 328 1058 399 1058 c 0
 470 1058 488 1161 488 1262 c 0
 488 1387 470 1490 399 1490 c 0
 328 1490 310 1387 310 1286 c 0
40 1256 m 0
 40 1448 170 1610 399 1610 c 0
 628 1610 758 1454 758 1286 c 0
 758 1094 628 938 399 938 c 0
 170 938 40 1088 40 1256 c 0
EndSplineSet
EndChar

StartChar: degree
Encoding: 176 176 173
Width: 639
Flags: MW
Fore
SplineSet
320 1120 m 256
 184 1120 80 1223 80 1359 c 256
 80 1495 184 1600 320 1600 c 256
 457 1600 561 1496 561 1359 c 256
 561 1223 456 1120 320 1120 c 256
320 1270 m 0
 374 1270 410 1306 410 1359 c 0
 410 1413 374 1450 320 1450 c 0
 267 1450 229 1413 229 1359 c 0
 229 1306 267 1270 320 1270 c 0
EndSplineSet
EndChar

StartChar: acute
Encoding: 180 180 174
Width: 790
Flags: MW
Fore
SplineSet
535 1340 m 2
 151 1373 l 2
 89 1378 65 1377 61 1432 c 0
 55 1509 84 1512 148 1536 c 2
 515 1676 l 2
 631 1720 725 1628 725 1510 c 0
 725 1392 640 1331 535 1340 c 2
EndSplineSet
EndChar

StartChar: currency
Encoding: 164 164 175
Width: 1140
Flags: MW
Fore
SplineSet
131 238 m 1
 38 331 l 1
 196 489 l 1
 127 573 112 653 112 770 c 256
 112 887 137 967 196 1051 c 1
 38 1209 l 1
 131 1302 l 1
 289 1144 l 1
 361 1196 441 1229 571 1229 c 256
 701 1229 779 1196 852 1145 c 1
 1009 1302 l 1
 1102 1209 l 1
 944 1051 l 1
 1003 967 1028 887 1028 770 c 0
 1028 654 1004 573 945 488 c 1
 1102 331 l 1
 1009 238 l 1
 852 395 l 1
 780 344 700 310 571 310 c 256
 441 310 360 344 288 395 c 1
 131 238 l 1
571 473 m 0
 754 473 858 591 858 770 c 256
 858 949 753 1067 571 1067 c 0
 388 1067 282 949 282 770 c 256
 282 591 389 473 571 473 c 0
EndSplineSet
EndChar

StartChar: copyright
Encoding: 169 169 176
Width: 1439
Flags: MW
Fore
SplineSet
720 1520 m 256
 1164 1520 1341 1192 1341 750 c 256
 1341 306 1162 -20 720 -20 c 256
 276 -20 100 308 100 750 c 256
 100 1193 278 1520 720 1520 c 256
720 73 m 256
 1103 73 1246 349 1246 750 c 256
 1246 1151 1101 1427 720 1427 c 256
 337 1427 194 1151 194 750 c 256
 194 347 339 73 720 73 c 256
EndSplineSet
Refer: 14 67 N 0.6 0 0 0.6 324 290 2
EndChar

StartChar: registered
Encoding: 174 174 177
Width: 1439
Flags: MW
Fore
SplineSet
720 1520 m 256
 1164 1520 1341 1192 1341 750 c 256
 1341 306 1162 -20 720 -20 c 256
 276 -20 100 308 100 750 c 256
 100 1193 278 1520 720 1520 c 256
720 73 m 256
 1103 73 1246 349 1246 750 c 256
 1246 1151 1101 1427 720 1427 c 256
 337 1427 194 1151 194 750 c 256
 194 347 339 73 720 73 c 256
EndSplineSet
Refer: 29 82 N 0.54 0 0 0.54 382 350 2
EndChar

StartChar: paragraph
Encoding: 182 182 178
Width: 1290
Flags: MW
Fore
SplineSet
569 -270 m 2
 569 -146 l 2
 569 -97 570 -87 619 -87 c 2
 657 -87 l 2
 689 -87 699 -86 699 -54 c 2
 699 440 l 2
 699 475 690 479 657 479 c 2
 550 479 l 2
 293 479 10 642 10 989 c 0
 10 1336 292 1500 550 1500 c 2
 1243 1500 l 2
 1271 1500 1280 1496 1280 1466 c 2
 1280 1328 l 2
 1280 1290 1272 1287 1233 1287 c 2
 1231 1287 l 2
 1209 1287 1200 1278 1200 1236 c 2
 1200 -32 l 2
 1200 -66 1203 -87 1241 -87 c 2
 1245 -87 l 2
 1271 -87 1280 -88 1280 -114 c 2
 1280 -259 l 2
 1280 -293 1274 -300 1241 -300 c 2
 615 -300 l 2
 589 -300 569 -299 569 -270 c 2
987 -44 m 2
 987 1258 l 2
 987 1286 978 1287 949 1287 c 2
 945 1287 l 2
 917 1287 912 1281 912 1242 c 2
 912 -36 l 2
 912 -69 912 -87 949 -87 c 2
 955 -87 l 2
 977 -87 987 -86 987 -44 c 2
EndSplineSet
EndChar

StartChar: brokenbar
Encoding: 166 166 180
Width: 479
Flags: MW
Fore
SplineSet
150 818 m 1
 150 1560 l 1
 363 1560 l 1
 363 818 l 1
 150 818 l 1
150 -500 m 1
 150 332 l 1
 363 332 l 1
 363 -500 l 1
 150 -500 l 1
EndSplineSet
EndChar

StartChar: guillemotleft
Encoding: 171 171 181
Width: 1390
Flags: MW
Fore
SplineSet
1002 775 m 1
 1350 380 l 1
 1270 270 l 1
 590 750 l 1
 590 800 l 1
 1270 1280 l 1
 1350 1170 l 1
 1002 775 l 1
442 775 m 1
 790 380 l 1
 710 270 l 1
 30 750 l 1
 30 800 l 1
 710 1280 l 1
 790 1170 l 1
 442 775 l 1
EndSplineSet
EndChar

StartChar: guillemotright
Encoding: 187 187 182
Width: 1390
Flags: MW
Fore
SplineSet
388 775 m 1
 40 1170 l 1
 120 1280 l 1
 800 800 l 1
 800 750 l 1
 120 270 l 1
 40 380 l 1
 388 775 l 1
948 775 m 1
 600 1170 l 1
 680 1280 l 1
 1360 800 l 1
 1360 750 l 1
 680 270 l 1
 600 380 l 1
 948 775 l 1
EndSplineSet
EndChar

StartChar: plusminus
Encoding: 177 177 183
Width: 1059
Flags: MW
Fore
SplineSet
423 361 m 1
 423 666 l 1
 120 666 l 1
 120 878 l 1
 423 878 l 1
 423 1180 l 1
 636 1180 l 1
 636 878 l 1
 939 878 l 1
 939 666 l 1
 636 666 l 1
 636 361 l 1
 423 361 l 1
121 -15 m 1
 121 197 l 1
 940 197 l 1
 940 -15 l 1
 121 -15 l 1
EndSplineSet
EndChar

StartChar: logicalnot
Encoding: 172 172 184
Width: 1051
Flags: MW
Fore
SplineSet
739 406 m 1
 739 666 l 1
 120 666 l 1
 120 880 l 1
 932 880 l 1
 932 406 l 1
 739 406 l 1
EndSplineSet
EndChar

StartChar: mu
Encoding: 181 181 186
Width: 1120
Flags: MW
Fore
SplineSet
302 847 m 1
 302 -182 l 2
 302 -353 506 -383 524 -375 c 0
 533 -371 471 -346 471 -252 c 0
 471 -157 559 -86 694 -86 c 0
 844 -86 917 -158 917 -280 c 0
 917 -401 810 -520 550 -520 c 0
 268 -520 90 -409 90 -182 c 2
 90 847 l 1
 302 847 l 1
EndSplineSet
Refer: 58 117 N 1 0 0 1 0 0 2
EndChar

StartChar: gravecomb
Encoding: 768 768 188
Width: 0
Flags: MW
AnchorPoint: "Anchor-0" 571 1500 mark 0
Fore
SplineSet
565 1619 m 2
 229 1797 l 2
 139 1845 112 1961 192 2060 c 256
 257 2140 418 2136 474 2066 c 2
 708 1777 l 2
 721 1764 722 1755 709 1741 c 2
 595 1625 l 2
 584 1613 580 1610 565 1619 c 2
EndSplineSet
EndChar

StartChar: acutecomb
Encoding: 769 769 189
Width: 0
Flags: MW
AnchorPoint: "Anchor-0" 429 1500 mark 0
Fore
SplineSet
410 1625 m 2
 297 1741 l 2
 284 1755 285 1764 298 1777 c 2
 532 2066 l 2
 588 2136 749 2140 814 2060 c 256
 894 1961 867 1845 777 1797 c 2
 441 1619 l 2
 426 1610 421 1613 410 1625 c 2
EndSplineSet
EndChar

StartChar: uni0302
Encoding: 770 770 190
Width: 0
Flags: MW
AnchorPoint: "Anchor-0" 499 1500 mark 0
Fore
SplineSet
242 1640 m 2
 173 1710 l 2
 158 1725 158 1727 170 1744 c 2
 358 2002 l 2
 369 2018 382 2019 411 2019 c 2
 596 2019 l 2
 622 2019 632 2016 642 2002 c 2
 834 1740 l 2
 844 1730 837 1721 826 1710 c 2
 752 1636 l 2
 737 1621 737 1623 720 1635 c 2
 525 1780 l 2
 507 1793 493 1794 475 1781 c 2
 278 1634 l 2
 263 1623 255 1627 242 1640 c 2
EndSplineSet
EndChar

StartChar: tildecomb
Encoding: 771 771 191
Width: 0
Flags: MW
AnchorPoint: "Anchor-0" 496 1500 mark 0
Fore
SplineSet
666 1630 m 0
 582 1630 528 1668 478 1699 c 0
 425 1732 387 1748 347 1748 c 0
 306 1748 289 1727 276 1714 c 0
 267 1705 259 1700 246 1700 c 2
 124 1700 l 2
 101 1700 101 1710 103 1730 c 0
 115 1857 220 2004 344 2004 c 0
 428 2004 470 1967 519 1935 c 0
 568 1903 620 1886 673 1886 c 0
 696 1886 709 1891 724 1912 c 0
 733 1925 732 1934 751 1934 c 2
 879 1934 l 2
 897 1934 899 1928 898 1912 c 0
 893 1764 803 1630 666 1630 c 0
EndSplineSet
EndChar

StartChar: uni0304
Encoding: 772 772 192
Width: 0
Flags: MW
AnchorPoint: "Anchor-0" 500 1500 mark 0
Fore
SplineSet
260 1662 m 2
 260 1795 l 2
 260 1814 262 1822 280 1822 c 2
 706 1822 l 2
 731 1822 740 1818 740 1791 c 2
 740 1660 l 2
 740 1639 739 1630 718 1630 c 2
 295 1630 l 2
 269 1630 260 1634 260 1662 c 2
EndSplineSet
EndChar

StartChar: uni0306
Encoding: 774 774 193
Width: 0
Flags: MW
AnchorPoint: "Anchor-0" 499 1500 mark 0
Fore
SplineSet
499 1580 m 256
 297 1580 224 1705 221 1919 c 0
 221 1936 227 1938 244 1938 c 2
 363 1938 l 2
 377 1938 379 1935 381 1922 c 0
 388 1882 402 1840 499 1840 c 256
 591 1840 606 1878 618 1909 c 0
 625 1927 624 1938 648 1938 c 2
 760 1938 l 2
 781 1938 781 1934 780 1914 c 0
 775 1704 698 1580 499 1580 c 256
EndSplineSet
EndChar

StartChar: uni0307
Encoding: 775 775 194
Width: 0
Flags: MW
AnchorPoint: "Anchor-0" 500 920 mark 0
Fore
SplineSet
501 1269 m 0
 395 1269 309 1355 309 1461 c 0
 309 1567 395 1653 501 1653 c 0
 607 1653 693 1567 693 1461 c 0
 693 1355 607 1269 501 1269 c 0
EndSplineSet
EndChar

StartChar: uni0308
Encoding: 776 776 195
Width: 0
Flags: MW
AnchorPoint: "Anchor-0" 501 1500 mark 0
Fore
SplineSet
780 1690 m 0
 674 1690 588 1776 588 1882 c 0
 588 1988 674 2074 780 2074 c 0
 886 2074 972 1988 972 1882 c 0
 972 1776 886 1690 780 1690 c 0
220 1690 m 0
 114 1690 28 1776 28 1882 c 0
 28 1988 114 2074 220 2074 c 0
 326 2074 412 1988 412 1882 c 0
 412 1776 326 1690 220 1690 c 0
EndSplineSet
EndChar

StartChar: uni030A
Encoding: 778 778 196
Width: 0
Flags: MW
AnchorPoint: "Anchor-0" 500 1500 mark 0
Fore
SplineSet
500 1640 m 0
 349 1640 251 1758 251 1889 c 0
 251 2020 349 2140 500 2140 c 0
 652 2140 750 2021 750 1889 c 0
 750 1758 651 1640 500 1640 c 0
500 1804 m 256
 550 1804 582 1847 582 1891 c 256
 582 1944 550 1987 500 1987 c 256
 450 1987 419 1944 419 1891 c 256
 419 1847 450 1804 500 1804 c 256
EndSplineSet
EndChar

StartChar: uni030B
Encoding: 779 779 197
Width: 0
Flags: MW
AnchorPoint: "Anchor-0" 394 1500 mark 0
Fore
SplineSet
774 1697 m 2
 639 1787 l 2
 623 1798 622 1807 632 1822 c 2
 801 2154 l 2
 842 2234 989 2288 1088 2201 c 256
 1205 2099 1174 2006 1096 1941 c 2
 804 1698 l 2
 791 1686 788 1687 774 1697 c 2
144 1697 m 2
 9 1787 l 2
 -7 1798 -8 1807 2 1822 c 2
 171 2154 l 2
 212 2234 372 2296 468 2206 c 256
 577 2105 544 2006 466 1941 c 2
 174 1698 l 2
 161 1686 158 1687 144 1697 c 2
EndSplineSet
EndChar

StartChar: uni030C
Encoding: 780 780 198
Width: 0
Flags: MW
AnchorPoint: "Anchor-0" 499 1500 mark 0
Fore
SplineSet
358 1657 m 2
 166 1919 l 2
 156 1929 163 1938 174 1949 c 2
 248 2023 l 2
 263 2038 263 2036 280 2024 c 2
 475 1879 l 2
 493 1866 507 1865 525 1878 c 2
 722 2025 l 2
 737 2036 745 2032 758 2019 c 2
 827 1949 l 2
 842 1934 842 1932 830 1915 c 2
 642 1657 l 2
 631 1641 618 1640 589 1640 c 2
 404 1640 l 2
 378 1640 368 1643 358 1657 c 2
EndSplineSet
EndChar

StartChar: uni0311
Encoding: 785 785 199
Width: 0
Flags: MW
AnchorPoint: "Anchor-0" 499 1500 mark 0
Fore
SplineSet
502 2008 m 256
 704 2008 777 1883 780 1669 c 0
 780 1652 774 1650 757 1650 c 2
 638 1650 l 2
 624 1650 622 1653 620 1666 c 0
 613 1706 599 1748 502 1748 c 256
 410 1748 395 1710 383 1679 c 0
 376 1661 377 1650 353 1650 c 2
 241 1650 l 2
 220 1650 220 1654 221 1674 c 0
 226 1884 303 2008 502 2008 c 256
EndSplineSet
EndChar

StartChar: uni0312
Encoding: 786 786 200
Width: 0
Flags: MW
AnchorPoint: "Anchor-0" 497 920 mark 0
Fore
SplineSet
712 1259 m 0
 712 1142 610 1068 501 1068 c 0
 367 1068 277 1157 277 1330 c 0
 277 1554 506 1709 653 1728 c 0
 676 1731 683 1728 683 1702 c 2
 683 1607 l 2
 683 1591 677 1588 663 1586 c 0
 567 1576 470 1498 437 1443 c 0
 433 1437 439 1431 449 1435 c 0
 467 1443 496 1449 531 1449 c 0
 640 1449 712 1376 712 1259 c 0
EndSplineSet
EndChar

StartChar: dotbelowcomb
Encoding: 803 803 201
Width: 0
Flags: MW
AnchorPoint: "Anchor-1" 500 0 mark 0
AnchorPoint: "Anchor-2" 500 0 mark 0
Fore
SplineSet
501 -553 m 0
 395 -553 309 -467 309 -361 c 0
 309 -255 395 -169 501 -169 c 0
 607 -169 693 -255 693 -361 c 0
 693 -467 607 -553 501 -553 c 0
EndSplineSet
EndChar

StartChar: uni0326
Encoding: 806 806 202
Width: 0
Flags: MW
AnchorPoint: "Anchor-1" 496 0 mark 0
AnchorPoint: "Anchor-2" 496 0 mark 0
Fore
SplineSet
280 -351 m 0
 280 -234 382 -160 491 -160 c 0
 625 -160 715 -249 715 -422 c 0
 715 -646 486 -801 339 -820 c 0
 316 -823 309 -820 309 -794 c 2
 309 -699 l 2
 309 -683 315 -680 329 -678 c 0
 425 -668 522 -590 555 -535 c 0
 559 -529 553 -523 543 -527 c 0
 525 -535 496 -541 461 -541 c 0
 352 -541 280 -468 280 -351 c 0
EndSplineSet
EndChar

StartChar: uni0327
Encoding: 807 807 203
Width: 0
Flags: MW
AnchorPoint: "Anchor-1" 528 0 mark 0
AnchorPoint: "Anchor-2" 528 0 mark 0
Fore
SplineSet
345 -520 m 2
 345 -423 l 2
 345 -401 356 -397 376 -396 c 0
 457 -390 541 -386 541 -336 c 0
 541 -276 405 -267 315 -259 c 0
 276 -255 275 -248 288 -230 c 2
 449 2 l 2
 455 11 459 12 475 12 c 2
 573 12 l 2
 603 12 611 8 601 -8 c 2
 552 -86 l 2
 535 -109 535 -117 571 -120 c 0
 700 -130 783 -198 783 -310 c 0
 783 -535 526 -545 370 -549 c 0
 349 -550 345 -542 345 -520 c 2
EndSplineSet
EndChar

StartChar: uni0328
Encoding: 808 808 204
Width: 0
Flags: MW
AnchorPoint: "Anchor-2" 511 47 mark 0
AnchorPoint: "Anchor-3" 511 47 mark 0
Fore
SplineSet
444 -422 m 0
 281 -422 178 -355 178 -240 c 0
 178 -68 396 28 503 100 c 0
 525 115 571 88 581 80 c 0
 620 49 639 44 623 26 c 0
 577 -26 464 -89 464 -170 c 0
 464 -221 499 -235 549 -235 c 0
 598 -235 625 -216 645 -194 c 0
 657 -181 664 -179 674 -187 c 2
 738 -237 l 2
 751 -246 750 -250 742 -265 c 0
 702 -338 611 -422 444 -422 c 0
EndSplineSet
EndChar

StartChar: breve
Encoding: 728 728 206
Width: 1000
Flags: MW
AnchorPoint: "Anchor-0" 499 1500 mark 0
Fore
SplineSet
499 1620 m 256
 297 1620 224 1745 221 1959 c 0
 221 1976 227 1978 244 1978 c 2
 363 1978 l 2
 377 1978 379 1975 381 1962 c 0
 388 1922 402 1880 499 1880 c 256
 591 1880 606 1918 618 1949 c 0
 625 1967 624 1978 648 1978 c 2
 760 1978 l 2
 781 1978 781 1974 780 1954 c 0
 775 1744 698 1620 499 1620 c 256
EndSplineSet
EndChar

StartChar: dotaccent
Encoding: 729 729 207
Width: 1000
Flags: MW
AnchorPoint: "Anchor-0" 497 1040 mark 0
Fore
SplineSet
501 1269 m 0
 395 1269 309 1355 309 1461 c 0
 309 1567 395 1653 501 1653 c 0
 607 1653 693 1567 693 1461 c 0
 693 1355 607 1269 501 1269 c 0
EndSplineSet
EndChar

StartChar: ring
Encoding: 730 730 208
Width: 1000
Flags: MW
AnchorPoint: "Anchor-0" 500 1500 mark 0
Fore
SplineSet
500 1640 m 0
 349 1640 251 1758 251 1889 c 0
 251 2020 349 2140 500 2140 c 0
 652 2140 750 2021 750 1889 c 0
 750 1758 651 1640 500 1640 c 0
500 1804 m 256
 550 1804 582 1847 582 1891 c 256
 582 1944 550 1987 500 1987 c 256
 450 1987 419 1944 419 1891 c 256
 419 1847 450 1804 500 1804 c 256
EndSplineSet
EndChar

StartChar: ogonek
Encoding: 731 731 209
Width: 1000
Flags: MW
AnchorPoint: "Anchor-2" 511 47 mark 0
AnchorPoint: "Anchor-3" 511 47 mark 0
Fore
SplineSet
444 -422 m 0
 281 -422 178 -355 178 -240 c 0
 178 -68 396 28 503 100 c 0
 525 115 571 88 581 80 c 0
 620 49 639 44 623 26 c 0
 577 -26 464 -89 464 -170 c 0
 464 -221 499 -235 549 -235 c 0
 598 -235 625 -216 645 -194 c 0
 657 -181 664 -179 674 -187 c 2
 738 -237 l 2
 751 -246 750 -250 742 -265 c 0
 702 -338 611 -422 444 -422 c 0
EndSplineSet
EndChar

StartChar: tilde
Encoding: 732 732 210
Width: 1000
Flags: MW
AnchorPoint: "Anchor-0" 466 1500 mark 0
Fore
SplineSet
666 1630 m 0
 582 1630 528 1668 478 1699 c 0
 425 1732 387 1748 347 1748 c 0
 306 1748 289 1727 276 1714 c 0
 267 1705 259 1700 246 1700 c 2
 124 1700 l 2
 101 1700 101 1710 103 1730 c 0
 115 1857 220 2004 344 2004 c 0
 428 2004 470 1967 519 1935 c 0
 568 1903 620 1886 673 1886 c 0
 696 1886 709 1891 724 1912 c 0
 733 1925 732 1934 751 1934 c 2
 879 1934 l 2
 897 1934 899 1928 898 1912 c 0
 893 1764 803 1630 666 1630 c 0
EndSplineSet
EndChar

StartChar: hungarumlaut
Encoding: 733 733 211
Width: 1000
Flags: MW
AnchorPoint: "Anchor-0" 424 1500 mark 0
Fore
SplineSet
774 1697 m 2
 639 1787 l 2
 623 1798 622 1807 632 1822 c 2
 801 2154 l 2
 842 2234 989 2288 1088 2201 c 256
 1205 2099 1174 2006 1096 1941 c 2
 804 1698 l 2
 791 1686 788 1687 774 1697 c 2
144 1697 m 2
 9 1787 l 2
 -7 1798 -8 1807 2 1822 c 2
 171 2154 l 2
 212 2234 372 2296 468 2206 c 256
 577 2105 544 2006 466 1941 c 2
 174 1698 l 2
 161 1686 158 1687 144 1697 c 2
EndSplineSet
EndChar

StartChar: dieresis
Encoding: 168 168 212
Width: 1000
Flags: MW
AnchorPoint: "Anchor-0" 501 1500 mark 0
Fore
SplineSet
780 1690 m 0
 674 1690 588 1776 588 1882 c 0
 588 1988 674 2074 780 2074 c 0
 886 2074 972 1988 972 1882 c 0
 972 1776 886 1690 780 1690 c 0
220 1690 m 0
 114 1690 28 1776 28 1882 c 0
 28 1988 114 2074 220 2074 c 0
 326 2074 412 1988 412 1882 c 0
 412 1776 326 1690 220 1690 c 0
EndSplineSet
EndChar

StartChar: cedilla
Encoding: 184 184 213
Width: 1000
Flags: MW
Fore
SplineSet
345 -520 m 2
 345 -423 l 2
 345 -401 356 -397 376 -396 c 0
 457 -390 541 -386 541 -336 c 0
 541 -276 405 -267 315 -259 c 0
 276 -255 275 -248 288 -230 c 2
 449 2 l 2
 455 11 459 12 475 12 c 2
 573 12 l 2
 603 12 611 8 601 -8 c 2
 552 -86 l 2
 535 -109 535 -117 571 -120 c 0
 700 -130 783 -198 783 -310 c 0
 783 -535 526 -545 370 -549 c 0
 349 -550 345 -542 345 -520 c 2
EndSplineSet
EndChar

StartChar: multiply
Encoding: 215 215 235
Width: 1090
Flags: MW
Fore
SplineSet
566 860 m 2
 726 1020 l 2
 745 1039 756 1047 777 1026 c 2
 889 913 l 2
 910 892 915 884 894 863 c 2
 732 700 l 2
 709 677 710 673 734 649 c 2
 901 483 l 2
 915 469 912 462 897 447 c 2
 777 327 l 2
 758 308 751 310 731 330 c 2
 576 485 l 2
 552 509 544 513 521 490 c 2
 358 327 l 2
 342 311 333 309 316 326 c 2
 190 453 l 2
 174 469 177 471 193 487 c 2
 364 658 l 2
 382 676 378 684 360 702 c 2
 204 857 l 2
 181 880 178 888 201 911 c 2
 316 1026 l 2
 337 1047 344 1040 365 1019 c 2
 524 860 l 2
 542 842 548 842 566 860 c 2
EndSplineSet
EndChar

StartChar: germandbls
Encoding: 223 223 241
Width: 1363
Flags: MW
Fore
SplineSet
1333 320 m 0
 1333 100 1155 -20 913 -20 c 0
 610 -20 507 107 507 271 c 0
 507 393 581 472 701 472 c 0
 812 472 889 412 889 300 c 0
 889 272 883.826171875 235.651367188 873 214 c 0
 864 196 871.331054688 190.07421875 879 186 c 0
 884.059570312 183.3125 887 183 894 183 c 0
 912 183 931 222 931 290 c 0
 931 505 627 617 627 827 c 0
 627 1047 811 1045 811 1233 c 0
 811 1318 765 1383 687 1383 c 0
 539 1383 472 1246 472 962 c 2
 472 59 l 2
 472 -1 455 0 399 0 c 2
 53 0 l 2
 12 0 10 8 10 49 c 2
 10 169 l 2
 10 206 13 213 49 213 c 2
 52 213 l 2
 86 213 91 230 91 271 c 2
 91 982 l 2
 91 1328 261 1570 687 1570 c 0
 993 1570 1224 1428 1224 1242 c 0
 1224 1023 1025 964 1025 857 c 0
 1025 731 1333 587 1333 320 c 0
EndSplineSet
EndChar

StartChar: Thorn
Encoding: 222 222 242
Width: 1100
Flags: MW
Fore
SplineSet
550 554 m 2
 560 554 l 2
 612 554 640 616 640 764 c 0
 640 912 607 974 555 974 c 2
 549 974 l 2
 523 974 520 962 520 935 c 2
 520 598 l 2
 520 556 528 554 550 554 c 2
520 288 m 2
 520 273 l 2
 520 218 524 210 578 210 c 2
 608 210 l 2
 639 210 640 201 640 170 c 2
 640 48 l 2
 640 8 638 0 598 0 c 2
 64 0 l 2
 23 0 10 2 10 46 c 2
 10 182 l 2
 10 206 17 210 42 210 c 2
 84 210 l 2
 125 210 130 220 130 258 c 2
 130 1264 l 2
 130 1287 122 1290 98 1290 c 2
 35 1290 l 2
 11 1290 10 1299 10 1323 c 2
 10 1464 l 2
 10 1495 18 1500 47 1500 c 2
 586 1500 l 2
 627 1500 640 1498 640 1454 c 2
 640 1318 l 2
 640 1294 633 1290 608 1290 c 2
 566 1290 l 2
 525 1290 520 1280 520 1242 c 2
 520 1222 l 2
 520 1190 526 1184 557 1184 c 2
 620 1184 l 2
 942 1184 1090 1054 1090 764 c 0
 1090 474 942 344 620 344 c 2
 584 344 l 2
 529 344 520 343 520 288 c 2
EndSplineSet
EndChar

StartChar: AE
Encoding: 198 198 243
Width: 1920
Flags: MW
Fore
SplineSet
-0 42 m 2
 -0 254 l 2
 -0 274 6 280 28 280 c 2
 44 280 l 2
 86 280 91 296 115 320 c 2
 632 1189 l 2
 662 1231 645 1230 574 1230 c 2
 546 1230 l 2
 521 1230 520 1234 520 1260 c 2
 520 1472 l 2
 520 1495 527 1500 548 1500 c 2
 1284 1500 l 2
 1307 1500 1310 1496 1310 1472 c 2
 1310 1263 l 2
 1310 1239 1308 1230 1282 1230 c 2
 1038 1230 l 2
 974 1230 971 1231 949 1201 c 2
 624 678 l 2
 611 657 616 650 652 650 c 2
 1134 650 l 1
 1114 440 l 1
 546 440 l 2
 510 440 484.553710938 426.043945312 469 400 c 2
 426 328 l 2
 406.752929688 295.772460938 403 280 447 280 c 2
 478 280 l 2
 502 280 510 275 510 250 c 2
 510 32 l 2
 510 0 510 0 478 0 c 2
 50 0 l 2
 13 0 -0 2 -0 42 c 2
EndSplineSet
Refer: 16 69 N 1 0 0 1 749.999 0 2
EndChar

StartChar: ae
Encoding: 230 230 250
Width: 1478
Flags: MW
Fore
SplineSet
996 658 m 2
 1032 658 l 2
 1060 658 1057.01660156 657.944335938 1058 685 c 0
 1062 795 1056 882 1018 882 c 0
 972 882 974 806 970 695 c 0
 968.9453125 665.744140625 961 658 996 658 c 2
551.65625 410 m 2
 551.65625 427 545.65625 437 533.65625 437 c 2
 520.65625 437 l 2
 498.65625 437 463.65625 420 463.65625 316 c 0
 463.65625 232 489.65625 199 509.65625 199 c 0
 531.65625 199 551.65625 250 551.65625 342 c 2
 551.65625 410 l 2
9.65625 256 m 0
 9.65625 484 193.65625 588 467.65625 588 c 2
 515.65625 588 l 2
 538.65625 588 541.65625 590 541.65625 614 c 2
 541.65625 664 l 2
 541.65625 768 582.65625 898 502.65625 898 c 0
 472.65625 898 440.65625 880 440.65625 868 c 0
 440.65625 845 487.65625 844 487.65625 756 c 0
 487.65625 658 395.65625 600 287.65625 600 c 0
 165.65625 600 69.65625 678 69.65625 786 c 0
 69.65625 940 233.65625 1070 475.65625 1070 c 0
 624.416015625 1070 680.040039062 1010.52148438 708 953.55859375 c 0
 738.72065072 890.97134369 767.858862305 889.747915351 804 950.748046875 c 0
 840.513671875 1012.37695312 916.772935092 1080 1070 1080 c 0
 1380 1080 1448 816 1448 490 c 0
 1448 459 1444 452 1414 452 c 2
 988 452 l 2
 960 452 964.823242188 447.079101562 965 422 c 0
 966 280 967 166 1040 166 c 0
 1109 166 1116 218 1124 322 c 0
 1125.26953125 338.50390625 1136 346 1160 346 c 2
 1412 346 l 2
 1440 346 1441.76367188 342.4921875 1440 320 c 0
 1420 65 1340 -40 1056 -40 c 0
 906.813476562 -40 812.541015625 18.216796875 758.65625 88 c 0
 742.748046875 108.6015625 731.853515625 112.80078125 709.65625 91 c 0
 653.65625 36 600.65625 -20 389.65625 -20 c 0
 111.65625 -20 9.65625 78 9.65625 256 c 0
EndSplineSet
EndChar

StartChar: Eth
Encoding: 208 208 251
Width: 1320
Flags: MW
Fore
SplineSet
57 900 m 2
 682 900 l 2
 720 900 723 893 723 861 c 2
 723 711 l 2
 723 676 723 670 680 670 c 2
 67 670 l 2
 23 670 16 675 16 710 c 2
 16 859 l 2
 16 891 18 900 57 900 c 2
EndSplineSet
Refer: 15 68 N 1 0 0 1 0 0 2
EndChar

StartChar: dotlessi
Encoding: 305 305 257
Width: 600
Flags: MW
AnchorPoint: "Anchor-0" 319 1040 basechar 0
AnchorPoint: "Anchor-1" 317 0 basechar 0
AnchorPoint: "Anchor-2" 317 0 basechar 0
Fore
SplineSet
71 830 m 2
 36 830 l 2
 18 830 10 833 10 850 c 2
 10 1012 l 2
 10 1035 18 1040 40 1040 c 2
 485 1040 l 2
 504 1040 510 1039 510 1020 c 2
 510 235 l 2
 510 215 511 210 531 210 c 2
 562 210 l 2
 585 210 590 209 590 186 c 2
 590 31 l 2
 590 2 582 0 552 0 c 2
 34 0 l 2
 14 0 10 4 10 25 c 2
 10 181 l 2
 10 206 13 210 37 210 c 2
 64 210 l 2
 85 210 90 211 90 232 c 2
 90 804 l 2
 90 821 87 830 71 830 c 2
EndSplineSet
EndChar

StartChar: Oslash
Encoding: 216 216 258
Width: 1240
Flags: MW
Fore
SplineSet
865 1660 m 2
 983 1660 l 2
 1050 1660 1061 1657 1044 1605 c 2
 455 -154 l 2
 442 -194 434 -200 379 -200 c 2
 269 -200 l 2
 198 -200 182 -199 200 -146 c 2
 802 1624 l 2
 813 1655 821 1660 865 1660 c 2
EndSplineSet
Refer: 26 79 N 1 0 0 1 0 0 2
EndChar

StartChar: thorn
Encoding: 254 254 260
Width: 1116
Flags: MW
AnchorPoint: "Anchor-0" 653 1040 basechar 0
AnchorPoint: "Anchor-1" 692 0 basechar 0
AnchorPoint: "Anchor-2" 692 0 basechar 0
Fore
SplineSet
510 522 m 0
 510 234 524 206 566 206 c 0
 604 206 646 234 646 522 c 0
 646 810 604 838 566 838 c 0
 524 838 510 810 510 522 c 0
10 1402 m 2
 10 1515 l 2
 10 1556 20 1560 59 1560 c 2
 465 1560 l 2
 493 1560 510 1555 510 1524 c 2
 510 950 l 2
 510 920 524.662109375 920.702148438 543 954 c 0
 581 1023 644 1080 762 1080 c 0
 1000 1080 1086 882 1086 522 c 0
 1086 162 980 -38 742 -38 c 0
 632 -38 587 4 551 74 c 0
 529.857421875 115.109375 510 124 510 26 c 2
 510 -258 l 2
 510 -301 514 -310 549 -310 c 2
 555 -310 l 2
 581 -310 590 -314 590 -342 c 2
 590 -478 l 2
 590 -518 582 -520 541 -520 c 2
 55 -520 l 2
 15 -520 10 -514 10 -476 c 2
 10 -348 l 2
 10 -318 15 -310 47 -310 c 2
 51 -310 l 2
 85 -310 90 -303 90 -257 c 2
 90 1298 l 2
 90 1345 80 1350 55 1350 c 2
 45 1350 l 2
 16 1350 10 1355 10 1402 c 2
EndSplineSet
EndChar

StartChar: eth
Encoding: 240 240 271
Width: 1340
Flags: MW
Fore
SplineSet
579 1288 m 2
 957 1638 l 2
 985 1664 991 1660 1013 1637 c 2
 1115 1527 l 2
 1139 1501 1143 1497 1111 1468 c 2
 743 1126 l 2
 711 1096 702 1095 678 1121 c 2
 577 1230 l 2
 555 1253 550 1261 579 1288 c 2
621 1612 m 0
 864 1508 1290 1187 1290 700 c 0
 1290 190 984 -20 662 -20 c 0
 260 -20 50 190 50 510 c 0
 50 840 286 1060 638 1060 c 0
 750 1060 808 1039 844 1011 c 0
 864 995 878 976 886 980 c 0
 893 984 889 997 887 1030 c 0
 872 1248 708 1366 535 1454 c 0
 519 1462 510 1462 518 1480 c 2
 593 1601 l 2
 600 1617 606 1618 621 1612 c 0
450 510 m 0
 450 292 484 170 642 170 c 0
 780 170 890 361 890 650 c 0
 890 810 808 882 682 882 c 0
 524 882 450 738 450 510 c 0
EndSplineSet
EndChar

StartChar: divide
Encoding: 247 247 272
Width: 1119
Flags: MW
Fore
SplineSet
135 886 m 2
 994 886 l 2
 1014 886 1020 880 1020 858 c 2
 1020 692 l 2
 1020 677 1012 674 996 674 c 2
 132 674 l 2
 106 674 100 679 100 704 c 2
 100 846 l 2
 100 879 103 886 135 886 c 2
379 410 m 0
 379 509 463 590 562 590 c 0
 661 590 740 509 740 410 c 0
 740 311 661 230 562 230 c 0
 463 230 379 311 379 410 c 0
379 1160 m 0
 379 1259 463 1340 562 1340 c 0
 661 1340 740 1259 740 1160 c 0
 740 1061 661 980 562 980 c 0
 463 980 379 1061 379 1160 c 0
EndSplineSet
EndChar

StartChar: oslash
Encoding: 248 248 273
Width: 1056
Flags: MW
Fore
SplineSet
755 1215 m 2
 873 1215 l 2
 940 1215 951 1212 934 1173 c 2
 345 -155 l 2
 332 -185 324 -189 269 -189 c 2
 159 -189 l 2
 88 -189 72 -189 90 -149 c 2
 692 1187 l 2
 703 1210 711 1215 755 1215 c 2
EndSplineSet
Refer: 52 111 N 1 0 0 1 0 0 2
EndChar

StartChar: Dcroat
Encoding: 272 272 304
Width: 1320
Flags: W
Fore
SplineSet
51 900 m 2
 672 900 l 2
 710 900 713 893 713 861 c 2
 713 711 l 2
 713 676 713 670 670 670 c 2
 61 670 l 2
 17 670 10 675 10 710 c 2
 10 859 l 2
 10 891 12 900 51 900 c 2
EndSplineSet
Refer: 15 68 N 1 0 0 1 0 0 2
EndChar

StartChar: dcroat
Encoding: 273 273 305
Width: 1116
Flags: W
Fore
SplineSet
547 1290 m 2
 1070 1290 l 2
 1103 1290 1106 1283 1106 1251 c 2
 1106 1101 l 2
 1106 1066 1105 1060 1068 1060 c 2
 556 1060 l 2
 518 1060 511 1065 511 1100 c 2
 511 1249 l 2
 511 1281 513 1290 547 1290 c 2
EndSplineSet
Refer: 41 100 N 1 0 0 1 -0 0 2
EndChar

StartChar: Hbar
Encoding: 294 294 317
Width: 1440
Flags: W
Fore
SplineSet
107 1170 m 2
 1334 1170 l 2
 1421 1170 1430 1163 1430 1131 c 2
 1430 981 l 2
 1430 946 1427 940 1328 940 c 2
 129 940 l 2
 27 940 11 945 11 980 c 2
 11 1129 l 2
 11 1161 17 1170 107 1170 c 2
EndSplineSet
Refer: 19 72 N 1 0 0 1 0 0 2
EndChar

StartChar: hbar
Encoding: 295 295 318
Width: 1315
Flags: W
Fore
SplineSet
60 1310 m 2
 625 1310 l 2
 663 1310 666 1303 666 1271 c 2
 666 1121 l 2
 666 1086 666 1080 623 1080 c 2
 70 1080 l 2
 26 1080 19 1085 19 1120 c 2
 19 1269 l 2
 19 1301 21 1310 60 1310 c 2
EndSplineSet
Refer: 45 104 N 1 0 0 1 0 0 2
EndChar

StartChar: uni0237
Encoding: 567 567 332
Width: 600
Flags: W
AnchorPoint: "Anchor-0" 302 1040 basechar 0
AnchorPoint: "Anchor-1" 152 -565 basechar 0
AnchorPoint: "Anchor-2" 152 -565 basechar 0
Fore
SplineSet
96 830 m 2
 82 830 l 2
 45 830 40 836 40 875 c 2
 40 989 l 2
 40 1035 46 1040 90 1040 c 2
 504 1040 l 2
 537 1040 540 1033 540 999 c 2
 540 -64 l 2
 540 -386 406 -520 106 -520 c 0
 -136 -520 -330 -422 -330 -228 c 0
 -330 -108 -230 -16 -106 -16 c 0
 38 -16 134 -102 134 -192 c 0
 134 -306 54 -302 54 -324 c 0
 54 -340 76 -350 112 -350 c 0
 312 -350 120 -84 120 190 c 2
 120 797 l 2
 120 820 119 830 96 830 c 2
EndSplineSet
EndChar

StartChar: kgreenlandic
Encoding: 312 312 335
Width: 1192
Flags: W
Fore
SplineSet
63 830 m 2
 51 830 l 2
 14 830 10 838 10 872 c 2
 10 996 l 2
 10 1033 23 1040 59 1040 c 2
 455 1040 l 2
 500 1040 510 1039 510 994 c 2
 510 671 l 2
 510 612 557.395694785 624.957472874 571 651 c 2
 671 785 l 2
 681.002929688 804.147460938 669 810 653 810 c 2
 644 810 l 2
 606 810 598 813 598 850 c 2
 598 1000 l 2
 598 1038 610 1040 645 1040 c 2
 1117 1040 l 2
 1151 1040 1154 1033 1154 998 c 2
 1154 853 l 2
 1154 823 1152 810 1123 810 c 2
 1085 810 l 2
 1069 810 1048.70703125 806.953125 1039 787 c 2
 937 639 l 2
 917.171293562 598.240992321 927.273969047 589.632932973 938 560 c 2
 1056 234 l 2
 1063.35599496 213.67750546 1083 210 1117 210 c 2
 1161 210 l 2
 1193 210 1202 208 1202 176 c 2
 1202 36 l 2
 1202 3 1195 0 1161 0 c 2
 608 0 l 2
 579 0 571 2 571 30 c 2
 571 172 l 2
 571 205 577 210 602 210 c 2
 607 210 l 2
 621 210 627.287386601 211.777137494 620 236 c 2
 549 472 l 2
 539.283484532 504.297150007 510 527 510 468 c 2
 510 252 l 2
 510 218 515 210 532 210 c 2
 534 210 l 2
 548 210 550 204 550 178 c 2
 550 36 l 2
 550 2 542 0 507 0 c 2
 63 0 l 2
 26 0 10 4 10 40 c 2
 10 168 l 2
 10 201 14 210 49 210 c 2
 61 210 l 2
 89 210 90 219 90 268 c 2
 90 782 l 2
 90 819 81 830 63 830 c 2
EndSplineSet
EndChar

StartChar: Lslash
Encoding: 321 321 344
Width: 1100
Flags: W
Fore
SplineSet
44 786 m 2
 818 1139 l 2
 839 1149 851 1153 851 1112 c 2
 851 943 l 2
 851 908 850 901 828 891 c 2
 50 535 l 2
 30 526 20 524 20 564 c 2
 20 735 l 2
 20 765 25 777 44 786 c 2
EndSplineSet
Refer: 23 76 N 1 0 0 1 0 0 2
EndChar

StartChar: lslash
Encoding: 322 322 345
Width: 600
Flags: W
Fore
SplineSet
35 850 m 2
 555 1105 l 2
 577 1115 579 1105 579 1068 c 2
 579 958 l 2
 579 921 575 920 553 906 c 2
 43 657 l 2
 23 648 19 655 19 691 c 2
 19 815 l 2
 19 839 21 841 35 850 c 2
EndSplineSet
Refer: 49 108 N 1 0 0 1 0 0 2
EndChar

StartChar: eng
Encoding: 331 331 353
Width: 1040
Flags: W
Fore
SplineSet
64 830 m 2
 60 830 l 2
 15 830 10 837 10 881 c 2
 10 987 l 2
 10 1033 35 1040 76 1040 c 2
 414 1040 l 2
 445 1040 470 1032 470 990 c 2
 470 954 l 2
 470 905 495.541961474 882.388776276 511 922 c 0
 543 1004 607 1080 736 1080 c 0
 940 1080 1000 952 1000 738 c 2
 1000 -64 l 2
 1000 -386 765 -520 465 -520 c 0
 223 -520 29 -422 29 -228 c 0
 29 -108 129 -16 253 -16 c 0
 397 -16 493 -102 493 -192 c 0
 493 -306 413 -302 413 -324 c 0
 413 -340 425 -350 461 -350 c 0
 661 -350 580 -134 580 140 c 2
 580 706 l 2
 580 814 572 846 540 846 c 0
 514 846 510 772 510 566 c 2
 510 249 l 2
 510 219 510 210 532 210 c 2
 536 210 l 2
 557 210 560 206 560 173 c 2
 560 37 l 2
 560 2 542 0 510 0 c 2
 42 0 l 2
 11 0 10 9 10 41 c 2
 10 168 l 2
 10 204 15 210 50 210 c 2
 55 210 l 2
 86 210 90 211 90 252 c 2
 90 784 l 2
 90 825 84 830 64 830 c 2
EndSplineSet
EndChar

StartChar: Eng
Encoding: 330 330 354
Width: 1344
Flags: W
Fore
SplineSet
78 1230 m 2
 60 1230 l 2
 15 1230 10 1237 10 1281 c 2
 10 1447 l 2
 10 1493 35 1500 76 1500 c 2
 498 1500 l 2
 529 1500 554 1492 554 1450 c 2
 554 1414 l 2
 554 1365 582.659179688 1345.24609375 605 1382 c 0
 667 1484 761 1540 900 1540 c 0
 1194 1540 1304 1372 1304 1128 c 2
 1304 -64 l 2
 1304 -386 1019 -520 719 -520 c 0
 477 -520 283 -422 283 -228 c 0
 283 -108 383 -16 507 -16 c 0
 651 -16 747 -102 747 -192 c 0
 747 -306 667 -302 667 -324 c 0
 667 -340 679 -350 715 -350 c 0
 915 -350 834 -134 834 140 c 2
 834 1126 l 2
 834 1234 796 1306 734 1306 c 0
 628 1306 594 1232 594 1026 c 2
 594 309 l 2
 594 279 598 270 630 270 c 2
 654 270 l 2
 685 270 694 266 694 233 c 2
 694 37 l 2
 694 2 676 0 644 0 c 2
 42 0 l 2
 11 0 10 9 10 41 c 2
 10 228 l 2
 10 264 15 270 50 270 c 2
 74 270 l 2
 115 270 124 271 124 312 c 2
 124 1184 l 2
 124 1225 118 1230 78 1230 c 2
EndSplineSet
EndChar

StartChar: OE
Encoding: 338 338 361
Width: 1779
Flags: W
Fore
SplineSet
850 1500 m 1
 850 1230 l 1
 700 1230 l 2
 622 1230 540 1114 540 750 c 0
 540 386 642 270 700 270 c 2
 850 270 l 1
 850 0 l 1
 630 0 l 2
 134 0 10 324 10 750 c 0
 10 1176 154 1500 630 1500 c 2
 850 1500 l 1
EndSplineSet
Refer: 16 69 N 1 0 0 1 608.999 0 2
EndChar

StartChar: Tbar
Encoding: 358 358 381
Width: 1250
Flags: W
Fore
SplineSet
208 730 m 2
 1026 730 l 2
 1067 730 1072 723 1072 691 c 2
 1072 541 l 2
 1072 506 1071 500 1024 500 c 2
 218 500 l 2
 170 500 162 505 162 540 c 2
 162 689 l 2
 162 721 165 730 208 730 c 2
EndSplineSet
Refer: 31 84 N 1 0 0 1 0 0 2
EndChar

StartChar: tbar
Encoding: 359 359 382
Width: 717
Flags: W
Fore
SplineSet
49 657 m 2
 670 657 l 2
 709 657 713 650 713 618 c 2
 713 468 l 2
 713 433 712 427 668 427 c 2
 59 427 l 2
 14 427 6 432 6 467 c 2
 6 616 l 2
 6 648 9 657 49 657 c 2
EndSplineSet
Refer: 57 116 N 1 0 0 1 -0 0 2
EndChar

StartChar: longs
Encoding: 383 383 406
Width: 700
Flags: W
Fore
SplineSet
510 248 m 2
 510 215 516 210 551 210 c 2
 593 210 l 2
 632 210 650 206 650 163 c 2
 650 46 l 2
 650 3 643 0 599 0 c 2
 67 0 l 2
 25 0 10 6 10 51 c 2
 10 155 l 2
 10 196 12 210 43 210 c 2
 51 210 l 2
 71 210 90 212 90 252 c 2
 90 1144 l 2
 90 1366 194 1600 554 1600 c 0
 856 1600 950 1462 950 1308 c 0
 950 1148 840 1086 716 1086 c 0
 592 1086 526 1162 526 1272 c 0
 526 1366 578 1380 578 1402 c 0
 578 1416 560 1426 540 1426 c 0
 430 1426 510 1234 510 1100 c 2
 510 248 l 2
EndSplineSet
EndChar

StartChar: uni03A9
Encoding: 937 937 413
Width: 1719
Flags: W
Fore
SplineSet
1431 400 m 1
 1644 400 l 1
 1644 0 l 1
 945 0 l 1
 945 506 l 1
 1113 576 1165 687 1165 900 c 0
 1165 1163 1052 1313 854 1313 c 0
 656 1313 544 1163 544 900 c 0
 544 687 595 567 763 497 c 1
 763 0 l 1
 75 0 l 1
 75 400 l 1
 278 400 l 1
 278 306 315 163 418 163 c 2
 554 163 l 1
 554 337 l 1
 361 424 115 626 115 900 c 0
 115 1326 407 1520 854 1520 c 0
 1301 1520 1594 1326 1594 900 c 0
 1594 626 1348 430 1155 345 c 1
 1155 163 l 1
 1291 163 l 2
 1394 163 1431 306 1431 400 c 1
EndSplineSet
EndChar

StartChar: uni0394
Encoding: 916 916 415
Width: 1900
Flags: W
Fore
SplineSet
1077 270 m 2
 1135 270 1140 280 1126 319 c 2
 874 1023 l 2
 858 1069 842 1050 829 1019 c 2
 538 313 l 2
 525 281 527 270 563 270 c 2
 1077 270 l 2
1700 0 m 2
 175 0 l 2
 133 0 126 15 135 37 c 2
 758 1497 l 2
 771 1529 775 1530 821 1530 c 2
 1121 1530 l 2
 1168 1530 1174 1519 1187 1487 c 2
 1753 61 l 2
 1768 23 1757 0 1700 0 c 2
EndSplineSet
EndChar

StartChar: uni1E9E
Encoding: 7838 7838 426
Width: 1523
Flags: W
Fore
SplineSet
796 451 m 1
 796 331 878 187 1024 187 c 0
 1082 187 1113 212 1113 350 c 0
 1113 498 1016 665 758 735 c 1
 758 848 l 1
 1340 848 1523 621 1523 380 c 0
 1523 120 1305 -30 1063 -30 c 0
 779 -30 601 96 601 291 c 0
 601 423 702 522 822 522 c 0
 933 522 1030 432 1030 310 c 0
 1030 196 926 100 817 100 c 0
 756 100 603 241 603 291 c 1
 796 451 l 1
11 210 m 1
 562 210 l 1
 562 0 l 1
 11 0 l 1
 11 210 l 1
1098 780 m 1
 1057 791 825 838 758 848 c 1
 1061 1248 l 1
 1001 1299 936 1327 818 1327 c 0
 590 1327 492 1185 492 861 c 2
 492 0 l 1
 92 0 l 1
 92 882 l 2
 92 1288 312 1530 848 1530 c 0
 1265 1530 1403 1348 1464 1282 c 1
 1098 780 l 1
EndSplineSet
EndChar

StartChar: guilsinglleft
Encoding: 8249 8249 429
Width: 830
Flags: W
Fore
SplineSet
442 775 m 1
 790 380 l 1
 710 270 l 1
 30 750 l 1
 30 800 l 1
 710 1280 l 1
 790 1170 l 1
 442 775 l 1
EndSplineSet
EndChar

StartChar: guilsinglright
Encoding: 8250 8250 430
Width: 830
Flags: W
Fore
SplineSet
388 775 m 1
 40 1170 l 1
 120 1280 l 1
 800 800 l 1
 800 750 l 1
 120 270 l 1
 40 380 l 1
 388 775 l 1
EndSplineSet
EndChar

StartChar: uni2074
Encoding: 8308 8308 431
Width: 860
Flags: W
Fore
SplineSet
792 1017 m 2
 792 941 l 2
 792 921 787 919 767 919 c 2
 328 919 l 2
 300 919 294 920 294 948 c 2
 294 1018 l 2
 294 1040 298 1045 320 1045 c 2
 410 1045 l 2
 436 1045 438 1049 438 1076 c 2
 438 1133 l 2
 438 1165 438 1165 406 1165 c 2
 107 1165 l 2
 81 1165 81 1169 73 1185 c 2
 54 1220 l 2
 47 1233 51 1238 58 1251 c 0
 152 1439 399 1547 461 1785 c 0
 468 1810 468 1819 502 1819 c 2
 664 1819 l 2
 696 1819 701 1816 696 1788 c 0
 658 1556 371 1465 253 1334 c 0
 237 1316 221 1291 268 1291 c 2
 415 1291 l 2
 436 1291 438 1295 438 1317 c 2
 438 1345 l 2
 438 1373 444 1372 463 1382 c 0
 503 1403 556 1431 581 1483 c 0
 586 1495 589 1501 608 1501 c 2
 648 1501 l 2
 667 1501 672 1501 672 1482 c 2
 672 1326 l 2
 672 1306 678 1291 700 1291 c 2
 788 1291 l 2
 807 1291 810 1286 810 1268 c 2
 810 1199 l 2
 810 1171 810 1165 782 1165 c 2
 704 1165 l 2
 679 1165 672 1162 672 1136 c 2
 672 1076 l 2
 672 1049 675 1045 703 1045 c 2
 766 1045 l 2
 789 1045 792 1041 792 1017 c 2
EndSplineSet
EndChar

StartChar: Euro
Encoding: 8364 8364 432
Width: 1792
Flags: W
Fore
SplineSet
990 1304 m 0
 722 1304 600 1114 600 750 c 0
 600 386 682 198 980 198 c 0
 1281 198 1331 325 1338 464 c 0
 1339 476 1344 480 1358 480 c 2
 1528 480 l 2
 1542 480 1549 479 1549 466 c 0
 1544 266 1391 -20 960 -20 c 0
 454 -20 170 304 170 750 c 0
 170 1196 474 1520 980 1520 c 0
 1354 1520 1562 1306 1562 1102 c 0
 1562 946 1452 870 1334 870 c 0
 1200 870 1120 952 1120 1086 c 0
 1120 1208 1204 1207 1204 1243 c 0
 1204 1277 1138 1304 990 1304 c 0
EndSplineSet
Refer: 87 61 N 1 0 0 1 -70 -30 2
EndChar

StartChar: partialdiff
Encoding: 8706 8706 433
Width: 1330
Flags: W
Fore
SplineSet
504 1312 m 0
 504 1286 552 1248 552 1176 c 0
 552 1062 462 990 328 990 c 0
 189 990 110 1086 110 1222 c 0
 110 1386 298 1520 602 1520 c 0
 974 1520 1250 1220 1250 740 c 0
 1250 170 974 -20 652 -20 c 0
 350 -20 60 130 60 500 c 0
 60 810 276 960 498 960 c 0
 628 960 742 914 813 842 c 0
 833 822 837 806 846 811 c 0
 853 815 848 829 846 864 c 0
 826 1197 710 1366 592 1366 c 0
 524 1366 504 1338 504 1312 c 0
460 470 m 0
 460 292 534 210 652 210 c 0
 780 210 850 302 850 460 c 0
 850 620 758 722 652 722 c 0
 544 722 460 658 460 470 c 0
EndSplineSet
EndChar

StartChar: emptyset
Encoding: 8709 8709 434
Width: 1140
Flags: W
Fore
SplineSet
18 341 m 1
 989 1312 l 1
 1132 1179 l 1
 161 208 l 1
 18 341 l 1
292 770 m 0
 292 622 388 483 571 483 c 0
 754 483 848 622 848 770 c 0
 848 918 754 1057 571 1057 c 0
 388 1057 292 918 292 770 c 0
62 770 m 0
 62 1020 239 1279 571 1279 c 0
 903 1279 1078 1020 1078 770 c 0
 1078 520 903 260 571 260 c 0
 239 260 62 520 62 770 c 0
EndSplineSet
EndChar

StartChar: product
Encoding: 8719 8719 435
Width: 2020
Flags: W
Fore
SplineSet
740 1188 m 2
 740 329 l 2
 740 285 741 270 785 270 c 2
 887 270 l 2
 927 270 940 267 940 228 c 2
 940 65 l 2
 940 6 914 0 860 0 c 2
 120 0 l 2
 62 0 50 6 50 67 c 2
 50 206 l 2
 50 251 52 270 97 270 c 2
 205 270 l 2
 254 270 270 271 270 320 c 2
 270 1184 l 2
 270 1225 259 1230 216 1230 c 2
 115 1230 l 2
 63 1230 50 1235 50 1290 c 2
 50 1444 l 2
 50 1493 75 1500 120 1500 c 2
 1910 1500 l 2
 1948 1500 1970 1493 1970 1451 c 2
 1970 1278 l 2
 1970 1239 1962 1230 1920 1230 c 2
 1791 1230 l 2
 1753 1230 1750 1218 1750 1179 c 2
 1750 320 l 2
 1750 282 1751 270 1789 270 c 2
 1919 270 l 2
 1964 270 1970 260 1970 213 c 2
 1970 81 l 2
 1970 8 1961 0 1890 0 c 2
 1160 0 l 2
 1101 0 1080 7 1080 70 c 2
 1080 225 l 2
 1080 263 1093 270 1129 270 c 2
 1218 270 l 2
 1265 270 1280 271 1280 318 c 2
 1280 1196 l 2
 1280 1228 1268 1230 1235 1230 c 2
 783 1230 l 2
 747 1230 740 1225 740 1188 c 2
EndSplineSet
EndChar

StartChar: summation
Encoding: 8721 8721 436
Width: 1449
Flags: W
Fore
SplineSet
110 1500 m 1
 1314 1500 l 1
 1314 990 l 1
 1100 990 l 1
 1100 1204 1075 1287 841 1287 c 2
 610 1287 l 1
 946 813 l 1
 476 213 l 1
 820 213 l 2
 1093 213 1120 296 1120 550 c 1
 1333 550 l 1
 1333 0 l 1
 20 0 l 1
 582 730 l 1
 110 1387 l 1
 110 1500 l 1
EndSplineSet
EndChar

StartChar: minus
Encoding: 8722 8722 437
Width: 1224
Flags: W
Fore
SplineSet
169 890 m 2
 1055 890 l 2
 1100 890 1104 883 1104 851 c 2
 1104 701 l 2
 1104 666 1103 660 1052 660 c 2
 181 660 l 2
 129 660 120 665 120 700 c 2
 120 849 l 2
 120 881 123 890 169 890 c 2
EndSplineSet
EndChar

StartChar: uni2219
Encoding: 8729 8729 439
Width: 610
Flags: W
Fore
SplineSet
65 870 m 0
 65 1002 173 1110 305 1110 c 0
 437 1110 545 1002 545 870 c 0
 545 738 437 630 305 630 c 0
 173 630 65 738 65 870 c 0
EndSplineSet
EndChar

StartChar: radical
Encoding: 8730 8730 440
Width: 1180
Flags: W
Fore
SplineSet
1026 1290 m 1
 717 -20 l 1
 429 -20 l 1
 233 381 l 1
 121 323 l 1
 31 500 l 1
 432 730 l 1
 616 330 l 1
 889 1500 l 1
 1180 1500 l 1
 1180 1290 l 1
 1026 1290 l 1
EndSplineSet
EndChar

StartChar: infinity
Encoding: 8734 8734 441
Width: 1913
Flags: W
Fore
SplineSet
1622 780 m 0
 1622 928 1547 997 1414 997 c 0
 1287 997 1196 945 1101 825 c 0
 1074 791 1062 784 1090 748 c 0
 1187 623 1282 563 1414 563 c 0
 1547 563 1622 642 1622 780 c 0
1863 780 m 0
 1863 490 1676 351 1434 351 c 0
 1279 351 1111 458 996 594 c 0
 956 641 960 646 920 598 c 0
 804 460 636 351 479 351 c 0
 237 351 50 500 50 780 c 0
 50 1070 237 1209 479 1209 c 0
 641 1209 813 1094 931 949 c 0
 956 918 954 914 980 946 c 0
 1098 1093 1271 1209 1434 1209 c 0
 1676 1209 1863 1070 1863 780 c 0
816 820 m 0
 718 942 618 997 489 997 c 0
 366 997 291 908 291 780 c 0
 291 642 366 563 489 563 c 0
 619 563 721 621 819 744 c 0
 848 780 845 784 816 820 c 0
EndSplineSet
EndChar

StartChar: integral
Encoding: 8747 8747 442
Width: 920
Flags: W
Fore
SplineSet
210 1144 m 2
 210 1366 404 1600 804 1600 c 0
 1126 1600 1270 1462 1270 1308 c 0
 1270 1148 1160 1086 1036 1086 c 0
 892 1086 796 1162 796 1272 c 0
 796 1366 868 1388 868 1410 c 0
 868 1424 840 1426 820 1426 c 0
 740 1426 630 1354 630 1100 c 2
 630 -63 l 2
 630 -285 436 -519 36 -519 c 0
 -286 -519 -430 -381 -430 -227 c 0
 -430 -67 -320 -5 -196 -5 c 0
 -52 -5 44 -81 44 -191 c 0
 44 -285 -28 -307 -28 -329 c 0
 -28 -343 0 -345 20 -345 c 0
 100 -345 210 -273 210 -19 c 2
 210 1144 l 2
EndSplineSet
EndChar

StartChar: approxequal
Encoding: 8776 8776 443
Width: 1200
Flags: W
Fore
SplineSet
798 674 m 0
 657 674 561 767 504 835 c 0
 461 885 423 901 388 901 c 0
 303 901 282 867 282 817 c 0
 282 806 284 792 287 778 c 2
 287 778 289 771 289 767 c 0
 292 727 259 692 219 692 c 2
 136 692 l 2
 106 692 78 713 69 743 c 0
 23 905 132 1066 293 1111 c 0
 323 1119 355 1124 388 1124 c 0
 537 1124 632 1028 688 964 c 0
 735 909 758 897 788 897 c 0
 852 897 868 920 868 970 c 0
 868 984 866 1000 861 1018 c 0
 860 1021 859 1027 859 1031 c 0
 856 1071 889 1106 929 1106 c 2
 1012 1106 l 2
 1041 1106 1072 1084 1080 1052 c 0
 1121 882 1015 718 861 681 c 0
 841 676 820 674 798 674 c 0
798 174 m 0
 657 174 561 267 504 335 c 0
 461 385 423 401 388 401 c 0
 303 401 282 367 282 317 c 0
 282 306 284 292 287 278 c 2
 287 278 289 271 289 267 c 0
 292 227 259 192 219 192 c 2
 136 192 l 2
 106 192 78 213 69 243 c 0
 23 405 132 566 293 611 c 0
 323 619 355 624 388 624 c 0
 537 624 632 528 688 464 c 0
 735 409 758 397 788 397 c 0
 852 397 868 420 868 470 c 0
 868 484 866 500 861 518 c 0
 860 521 859 527 859 531 c 0
 856 571 889 606 929 606 c 2
 1012 606 l 2
 1041 606 1072 584 1080 552 c 0
 1121 382 1015 218 861 181 c 0
 841 176 820 174 798 174 c 0
EndSplineSet
EndChar

StartChar: notequal
Encoding: 8800 8800 444
Width: 1119
Flags: W
Fore
SplineSet
164 1090 m 2
 956 1090 l 2
 996 1090 1000 1083 1000 1051 c 2
 1000 901 l 2
 1000 866 999 860 954 860 c 2
 175 860 l 2
 128 860 120 865 120 900 c 2
 120 1049 l 2
 120 1081 123 1090 164 1090 c 2
164 690 m 2
 956 690 l 2
 996 690 1000 683 1000 651 c 2
 1000 501 l 2
 1000 466 999 460 954 460 c 2
 175 460 l 2
 128 460 120 465 120 500 c 2
 120 649 l 2
 120 681 123 690 164 690 c 2
157 319 m 2
 811 1254 l 2
 844 1301 852 1303 873 1288 c 2
 972 1219 l 2
 995 1203 997 1198 960 1145 c 2
 316 225 l 2
 277 170 268 164 245 180 c 2
 147 248 l 2
 126 263 123 270 157 319 c 2
EndSplineSet
EndChar

StartChar: lessequal
Encoding: 8804 8804 445
Width: 1119
Flags: W
Fore
SplineSet
438 748 m 2
 960 555 l 2
 989 544 1000 533 1000 491 c 2
 1000 373 l 2
 1000 315 993 313 954 328 c 2
 164 642 l 2
 131 655 120 672 120 720 c 2
 120 830 l 2
 120 890 135 896 176 912 c 2
 940 1216 l 2
 980 1232 1000 1235 1000 1169 c 2
 1000 1082 l 2
 1000 1025 992 1007 952 992 c 2
 438 802 l 2
 403 789 382 788 382 776 c 0
 382 759 399 763 438 748 c 2
164 230 m 2
 956 230 l 2
 996 230 1000 223 1000 191 c 2
 1000 41 l 2
 1000 6 998 0 953 0 c 2
 174 0 l 2
 127 0 120 5 120 40 c 2
 120 189 l 2
 120 221 123 230 164 230 c 2
EndSplineSet
EndChar

StartChar: greaterequal
Encoding: 8805 8805 446
Width: 1119
Flags: W
Fore
SplineSet
682 802 m 2
 160 995 l 2
 131 1006 120 1017 120 1059 c 2
 120 1177 l 2
 120 1235 127 1237 166 1222 c 2
 956 908 l 2
 989 895 1000 878 1000 830 c 2
 1000 720 l 2
 1000 660 985 654 944 638 c 2
 180 334 l 2
 140 318 120 315 120 381 c 2
 120 468 l 2
 120 525 128 543 168 558 c 2
 682 748 l 2
 717 761 738 762 738 774 c 0
 738 791 721 787 682 802 c 2
164 230 m 2
 956 230 l 2
 996 230 1000 223 1000 191 c 2
 1000 41 l 2
 1000 6 998 0 953 0 c 2
 174 0 l 2
 127 0 120 5 120 40 c 2
 120 189 l 2
 120 221 123 230 164 230 c 2
EndSplineSet
EndChar

StartChar: lozenge
Encoding: 9674 9674 447
Width: 1200
Flags: W
Fore
SplineSet
612 30 m 257
 1000 712 l 257
 612 1392 l 257
 200 712 l 257
 612 30 l 257
612 430 m 257
 440 712 l 257
 612 972 l 257
 758 712 l 257
 612 430 l 257
EndSplineSet
EndChar

StartChar: uniF8E8
Encoding: 63720 63720 448
Width: 1125
Flags: W
Fore
SplineSet
562 1592 m 256
 828 1592 1025 1395 1025 1130 c 256
 1025 864 827 668 562 668 c 256
 296 668 100 865 100 1130 c 256
 100 1396 297 1592 562 1592 c 256
562 724 m 256
 792 724 968 889 968 1130 c 256
 968 1371 791 1536 562 1536 c 256
 332 1536 157 1371 157 1130 c 256
 157 888 333 724 562 724 c 256
881 959 m 0
 849 911 807 877 739 877 c 0
 569 877 662 1091 548 1091 c 2
 522 1091 l 2
 510 1091 509 1087 509 1075 c 2
 509 990 l 2
 509 980 510 977 520 977 c 2
 566 977 l 2
 578 977 581 976 581 963 c 2
 581 913 l 2
 581 894 580 890 561 890 c 2
 300 890 l 2
 289 890 286 891 286 902 c 2
 286 963 l 2
 286 975 287 977 299 977 c 2
 339 977 l 2
 354 977 357 979 357 994 c 2
 357 1272 l 2
 357 1287 354 1289 340 1289 c 2
 301 1289 l 2
 287 1289 286 1292 286 1305 c 2
 286 1364 l 2
 286 1375 289 1376 300 1376 c 2
 581 1376 l 2
 731 1376 794 1328 794 1250 c 0
 794 1198 774 1163 721 1143 c 0
 705 1137 698 1132 715 1123 c 0
 793 1080 757 990 794 990 c 0
 804 990 814 998 822 1009 c 0
 829 1020 832 1020 843 1011 c 2
 877 985 l 2
 889 976 889 971 881 959 c 0
526 1175 m 2
 581 1175 l 2
 617 1175 639 1198 639 1230 c 0
 639 1262 617 1289 581 1289 c 2
 523 1289 l 2
 511 1289 509 1286 509 1273 c 2
 509 1190 l 2
 509 1174 510 1175 526 1175 c 2
EndSplineSet
EndChar

StartChar: uniF8E9
Encoding: 63721 63721 449
Width: 1125
Flags: W
Fore
SplineSet
562 1592 m 256
 828 1592 1025 1395 1025 1130 c 256
 1025 864 827 668 562 668 c 256
 296 668 100 865 100 1130 c 256
 100 1396 297 1592 562 1592 c 256
562 724 m 256
 792 724 968 889 968 1130 c 256
 968 1371 791 1536 562 1536 c 256
 332 1536 157 1371 157 1130 c 256
 157 888 333 724 562 724 c 256
260 1124 m 0
 260 1285 387 1408 562 1408 c 0
 612 1408 652 1393 683 1369 c 0
 698 1358 701 1359 713 1374 c 2
 725 1390 l 2
 730 1397 733 1398 746 1398 c 2
 796 1398 l 2
 814 1398 814 1395 814 1377 c 2
 814 1205 l 2
 814 1191 812 1189 798 1189 c 2
 722 1189 l 2
 705 1189 702 1193 699 1206 c 0
 683 1271 649 1316 573 1316 c 0
 498 1316 447 1248 447 1124 c 0
 447 1000 498 936 580 936 c 0
 647 936 700 976 714 1042 c 0
 718 1062 720 1066 738 1066 c 2
 809 1066 l 2
 828 1066 829 1062 827 1049 c 0
 812 927 726 840 566 840 c 0
 384 840 260 949 260 1124 c 0
EndSplineSet
EndChar

StartChar: uniF8EA
Encoding: 63722 63722 450
Width: 1626
Flags: W
Fore
SplineSet
198 993 m 2
 198 1054 l 2
 198 1068 200 1072 214 1072 c 2
 262 1072 l 2
 281 1072 284 1077 284 1096 c 2
 284 1408 l 2
 284 1417 281 1421 272 1421 c 2
 266 1421 l 2
 194 1421 175 1398 173 1309 c 0
 173 1292 168 1288 149 1288 c 2
 105 1288 l 2
 91 1288 86 1289 86 1303 c 2
 86 1494 l 2
 86 1509 87 1515 102 1515 c 2
 623 1515 l 2
 635 1515 637 1511 637 1498 c 2
 637 1309 l 2
 637 1291 634 1288 615 1288 c 2
 572 1288 l 2
 553 1288 550 1290 550 1308 c 0
 548 1398 529 1421 457 1421 c 2
 453 1421 l 2
 442 1421 439 1416 439 1406 c 2
 439 1101 l 2
 439 1078 440 1072 463 1072 c 2
 505 1072 l 2
 522 1072 525 1067 525 1052 c 2
 525 995 l 2
 525 978 522 975 505 975 c 2
 217 975 l 2
 202 975 198 977 198 993 c 2
788 1418 m 2
 746 1418 l 2
 729 1418 729 1418 729 1435 c 2
 729 1504 l 2
 729 1519 735 1515 749 1515 c 2
 1012 1515 l 2
 1040 1515 1037 1505 1044 1485 c 2
 1113 1270 l 2
 1121 1247 1125 1221 1132 1221 c 0
 1140 1221 1144 1234 1153 1258 c 2
 1243 1500 l 2
 1248 1513 1248 1515 1267 1515 c 2
 1492 1515 l 2
 1510 1515 1518 1520 1518 1500 c 2
 1518 1436 l 2
 1518 1418 1518 1418 1500 1418 c 2
 1456 1418 l 2
 1441 1418 1442 1417 1442 1402 c 2
 1453 1087 l 2
 1453 1074 1451 1072 1465 1072 c 2
 1523 1072 l 2
 1535 1072 1536 1069 1536 1057 c 2
 1536 995 l 2
 1536 980 1535 975 1518 975 c 2
 1239 975 l 2
 1223 975 1222 978 1222 994 c 2
 1222 1055 l 2
 1222 1071 1227 1072 1242 1072 c 2
 1280 1072 l 2
 1295 1072 1299 1076 1299 1091 c 2
 1294 1253 l 2
 1293 1303 1304 1352 1291 1352 c 0
 1282 1352 1282 1339 1271 1307 c 2
 1160 983 l 2
 1155 968 1152 964 1131 964 c 2
 1066 964 l 2
 1045 964 1042 968 1037 983 c 2
 930 1294 l 2
 921 1321 913 1370 904 1370 c 0
 898 1370 898 1357 897 1325 c 2
 886 1098 l 2
 885 1081 883 1072 903 1072 c 2
 951 1072 l 2
 964 1072 967 1070 967 1056 c 2
 967 993 l 2
 967 975 963 975 946 975 c 2
 723 975 l 2
 706 975 704 977 704 995 c 2
 704 1060 l 2
 704 1070 705 1072 715 1072 c 2
 772 1072 l 2
 794 1072 789 1081 790 1100 c 2
 806 1405 l 2
 807 1420 803 1418 788 1418 c 2
EndSplineSet
EndChar

StartChar: pi
Encoding: 960 960 451
Width: 1231
Flags: W
Fore
SplineSet
1162 900 m 2
 1162 663 l 2
 1162 642 1164 640 1142 640 c 2
 1014 640 l 2
 979 640 982 637 982 603 c 2
 982 287 l 2
 982 247 997 235 1015 235 c 0
 1037 235 1043 244 1072 292 c 0
 1083 310 1085 319 1104 305 c 2
 1212 224 l 2
 1230 210 1235 204 1226 183 c 0
 1174 55 1117 -20 956 -20 c 0
 812 -20 701 28 701 196 c 2
 701 615 l 2
 701 637 703 640 680 640 c 2
 600 640 l 2
 576 640 576 639 576 615 c 2
 576 486 l 2
 576 170 455 -20 268 -20 c 0
 86 -20 50 76 50 176 c 0
 50 433 374 244 374 559 c 2
 374 616 l 2
 374 637 376 640 354 640 c 2
 274 640 l 2
 252 640 255 636 255 615 c 2
 255 519 l 2
 255 493 257 490 230 490 c 2
 66 490 l 2
 41 490 42 491 42 516 c 2
 42 888 l 2
 42 921 43 920 76 920 c 2
 1140 920 l 2
 1161 920 1162 921 1162 900 c 2
EndSplineSet
EndChar

StartChar: quotesinglbase
Encoding: 8218 8218 452
Width: 703
Flags: W
Fore
SplineSet
79 198 m 0
 79 344 207 436 343 436 c 0
 511 436 623 325 623 109 c 0
 623 -171 336 -365 152 -389 c 0
 123 -393 115 -388 115 -356 c 2
 115 -237 l 2
 115 -217 123 -213 140 -211 c 0
 260 -199 381 -101 422 -32 c 0
 427 -24 420 -18 408 -23 c 0
 385 -33 349 -40 305 -40 c 0
 169 -40 79 52 79 198 c 0
EndSplineSet
EndChar

StartChar: circumflex
Encoding: 710 710 454
Width: 1000
Flags: W
Fore
SplineSet
242 1640 m 2
 173 1710 l 2
 158 1725 158 1727 170 1744 c 2
 358 2002 l 2
 369 2018 382 2019 411 2019 c 2
 596 2019 l 2
 622 2019 632 2016 642 2002 c 2
 834 1740 l 2
 844 1730 837 1721 826 1710 c 2
 752 1636 l 2
 737 1621 737 1623 720 1635 c 2
 525 1780 l 2
 507 1793 493 1794 475 1781 c 2
 278 1634 l 2
 263 1623 255 1627 242 1640 c 2
EndSplineSet
EndChar

StartChar: quotedblbase
Encoding: 8222 8222 455
Width: 1324
Flags: W
Fore
SplineSet
80 202 m 0
 80 348 208 440 344 440 c 0
 512 440 624 329 624 113 c 0
 624 -167 337 -361 153 -385 c 0
 124 -389 116 -384 116 -352 c 2
 116 -233 l 2
 116 -213 124 -209 141 -207 c 0
 261 -195 382 -97 423 -28 c 0
 428 -20 421 -14 409 -19 c 0
 386 -29 350 -36 306 -36 c 0
 170 -36 80 56 80 202 c 0
700 202 m 0
 700 348 828 440 964 440 c 0
 1132 440 1244 329 1244 113 c 0
 1244 -167 957 -361 773 -385 c 0
 744 -389 736 -384 736 -352 c 2
 736 -233 l 2
 736 -213 744 -209 761 -207 c 0
 881 -195 1002 -97 1043 -28 c 0
 1048 -20 1041 -14 1029 -19 c 0
 1006 -29 970 -36 926 -36 c 0
 790 -36 700 56 700 202 c 0
EndSplineSet
EndChar

StartChar: a.sc
Encoding: 65554 -1 456
Width: 1446
Flags: W
AnchorPoint: "Anchor-0" 772 1033 basechar 0
AnchorPoint: "Anchor-1" 656 0 basechar 0
AnchorPoint: "Anchor-2" 1154 0 basechar 0
Fore
SplineSet
22 49 m 2
 22 187 l 2
 22 215 26 229 54 229 c 2
 166 229 l 2
 186 229 190 228 194 238 c 2
 552 1037 l 2
 562 1059 563 1059 595 1059 c 2
 901 1053 l 2
 934 1052 937 1047 947 1024 c 2
 1266 246 l 2
 1274 227 1277 231 1313 231 c 2
 1404 231 l 2
 1432 231 1441 229 1441 198 c 2
 1441 38 l 2
 1441 6 1439 0 1410 0 c 2
 770 0 l 2
 740 0 742 10 742 42 c 2
 742 195 l 2
 742 225 744 231 772 231 c 2
 851 231 l 2
 862 231 886 238 881 251 c 2
 872 273 l 2
 865 290 861 305 835 305 c 2
 540 305 l 2
 510 305 506 293 494 273 c 2
 480 248 l 2
 475 238 480 231 494 231 c 2
 566 231 l 2
 590 231 589 222 589 196 c 2
 589 32 l 2
 589 6 585 0 561 0 c 2
 67 0 l 2
 25 0 22 4 22 49 c 2
598 524 m 1
 588 505 592 481 616 481 c 2
 762 481 l 2
 791 481 789 499 782 521 c 2
 710 716 l 2
 705 731 700 738 696 738 c 0
 691 738 686 730 679 713 c 2
 598 524 l 1
EndSplineSet
EndChar

StartChar: b.sc
Encoding: 65564 -1 466
Width: 1390
Flags: W
AnchorPoint: "Anchor-0" 646 1040 basechar 0
AnchorPoint: "Anchor-1" 668 0 basechar 0
Fore
SplineSet
780 0 m 2
 67 0 l 2
 32 0 35 22 35 59 c 2
 35 214 l 2
 35 235 40 241 59 241 c 2
 155 241 l 2
 184 241 188 249 188 277 c 2
 188 769 l 2
 188 791 182 799 159 799 c 2
 65 799 l 2
 37 799 35 806 35 836 c 2
 35 994 l 2
 35 1026 38 1040 67 1040 c 2
 727 1040 l 2
 922 1040 1064 1021 1152 984 c 128
 1240 947 1284 880 1284 783 c 0
 1284 671 1202 596 1038 558 c 0
 1021 554 1012 549 1012 542 c 128
 1012 535 1022 530 1043 527 c 0
 1142 511 1219 483 1274 444 c 128
 1329 405 1356 354 1356 291 c 0
 1356 157 1292 88 1189 49 c 0
 1079 8 956 0 780 0 c 2
618 655 m 2
 714 655 l 2
 757 655 792 662 817 674 c 128
 842 686 855 705 855 732 c 256
 855 759 844 777 822 786 c 128
 800 795 764 799 714 799 c 2
 614 799 l 2
 596 799 578 801 578 785 c 2
 578 682 l 2
 578 657 589 655 618 655 c 2
747 241 m 2
 810 241 854 250 876 267 c 128
 898 284 909 307 909 334 c 256
 909 361 894 381 864 394 c 128
 834 407 796 413 747 413 c 2
 608 413 l 2
 588 413 578 406 578 393 c 2
 578 267 l 2
 578 245 585 241 611 241 c 2
 747 241 l 2
EndSplineSet
EndChar

StartChar: c.sc
Encoding: 65565 -1 467
Width: 1356
Flags: W
AnchorPoint: "Anchor-0" 740 1035 basechar 0
AnchorPoint: "Anchor-1" 740 1 basechar 0
Fore
SplineSet
49 517 m 0
 49 685 136 824 240 910 c 0
 355 1005 524 1069 723 1069 c 0
 779 1069 829 1061 874 1044 c 128
 919 1027 959 1004 993 975 c 0
 1010 962 1022 956 1029 957 c 128
 1036 958 1047 968 1060 987 c 2
 1086 1024 l 2
 1099 1041 1103 1043 1133 1043 c 2
 1245 1043 l 2
 1285 1043 1286 1034 1286 993 c 2
 1286 658 l 2
 1286 631 1276 631 1245 631 c 2
 1055 631 l 2
 1016 631 1008 635 999 660 c 0
 984 716 958 761 921 796 c 128
 884 831 829 849 756 849 c 0
 684 849 626 821 581 764 c 128
 536 707 514 626 514 520 c 256
 514 414 537 334 584 280 c 128
 631 226 694 198 775 198 c 0
 840 198 897 214 944 246 c 128
 991 278 1022 322 1036 379 c 0
 1047 413 1051 421 1096 421 c 2
 1271 421 l 2
 1307 421 1322 418 1318 392 c 0
 1298 268 1245 166 1148 86 c 128
 1051 6 912 -34 733 -34 c 0
 598 -34 479 -11 376 34 c 128
 273 79 192 142 135 224 c 128
 78 306 49 404 49 517 c 0
EndSplineSet
EndChar

StartChar: d.sc
Encoding: 65571 -1 473
Width: 1475
Flags: W
AnchorPoint: "Anchor-0" 742 1040 basechar 0
AnchorPoint: "Anchor-1" 742 0 basechar 0
Fore
SplineSet
35 30 m 2
 35 205 l 2
 35 231 38 241 62 241 c 2
 162 241 l 2
 186 241 188 245 188 268 c 2
 188 769 l 2
 188 796 183 799 155 799 c 2
 69 799 l 2
 36 799 35 807 35 842 c 2
 35 993 l 2
 35 1029 39 1040 72 1040 c 2
 716 1040 l 2
 962 1040 1155 998 1278 890 c 128
 1374 806 1427 688 1427 520 c 0
 1427 360 1364 224 1267 145 c 0
 1139 40 969 0 716 0 c 2
 68 0 l 2
 43 0 35 2 35 30 c 2
648 241 m 2
 712 241 l 2
 791 241 852 264 896 310 c 128
 940 356 962 426 962 520 c 256
 962 614 938 684 891 730 c 128
 844 776 784 799 712 799 c 2
 649 799 l 2
 618 799 608 796 608 766 c 2
 608 269 l 2
 608 242 619 241 648 241 c 2
EndSplineSet
EndChar

StartChar: e.sc
Encoding: 65573 -1 475
Width: 1353
Flags: W
AnchorPoint: "Anchor-0" 680 1040 basechar 0
AnchorPoint: "Anchor-1" 660 0 basechar 0
AnchorPoint: "Anchor-2" 1143 45 basechar 0
Fore
SplineSet
157 799 m 2
 67 799 l 2
 35 799 35 808 35 842 c 2
 35 999 l 2
 35 1036 41 1040 74 1040 c 2
 1246 1040 l 2
 1280 1040 1281 1031 1281 997 c 2
 1281 660 l 2
 1281 637 1275 642 1247 642 c 2
 1077 642 l 2
 1054 642 1050 644 1048 661 c 0
 1042 780 979 799 836 799 c 2
 652 799 l 2
 627 799 608 799 608 776 c 2
 608 646 l 2
 608 623 612 617 634 617 c 2
 638 617 l 2
 704 617 753 655 765 705 c 0
 770 722 772 728 796 728 c 2
 895 728 l 2
 926 728 938 731 938 705 c 2
 938 334 l 2
 938 312 927 313 900 313 c 2
 797 313 l 2
 764 313 771 317 764 338 c 0
 754 382 698 428 644 428 c 2
 640 428 l 2
 619 428 608 418 608 399 c 2
 608 261 l 2
 608 239 622 241 649 241 c 2
 822 241 l 2
 973 241 1061 261 1066 399 c 0
 1068 462 1056 483 1111 483 c 2
 1263 483 l 2
 1309 483 1299 460 1299 403 c 2
 1299 36 l 2
 1299 -1 1298 0 1262 0 c 2
 69 0 l 2
 37 0 35 -3 35 32 c 2
 35 212 l 2
 35 240 35 241 60 241 c 2
 157 241 l 2
 189 241 188 227 188 265 c 2
 188 777 l 2
 188 799 180 799 157 799 c 2
EndSplineSet
EndChar

StartChar: f.sc
Encoding: 65583 -1 485
Width: 1311
Flags: W
AnchorPoint: "Anchor-0" 666 1040 basechar 0
AnchorPoint: "Anchor-1" 407 0 basechar 0
Fore
SplineSet
163 799 m 2
 52 799 l 2
 34 799 35 809 35 828 c 2
 35 1017 l 2
 35 1038 39 1040 58 1040 c 2
 1237 1040 l 2
 1265 1040 1267 1032 1267 1004 c 2
 1267 646 l 2
 1267 630 1256 631 1235 631 c 2
 1076 631 l 2
 1050 631 1037 628 1035 648 c 0
 1030 772 967 799 821 799 c 2
 640 799 l 2
 620 799 608 801 608 783 c 2
 608 612 l 2
 608 607 610 605 614 605 c 2
 615 605 l 2
 682 605 748 650 753 710 c 0
 755 718 754 718 766 718 c 2
 903 718 l 2
 919 718 924 716 924 703 c 2
 924 306 l 2
 924 297 914 292 895 292 c 2
 788 292 l 2
 767 292 756 291 753 305 c 0
 745 360 681 406 618 406 c 2
 617 406 l 2
 611 406 608 404 608 400 c 2
 608 263 l 2
 608 241 615 241 640 241 c 2
 765 241 l 2
 799 241 798 242 798 208 c 2
 798 42 l 2
 798 4 794 0 756 0 c 2
 63 0 l 2
 38 0 35 4 35 31 c 2
 35 215 l 2
 35 239 39 241 61 241 c 2
 158 241 l 2
 185 241 188 243 188 269 c 2
 188 779 l 2
 188 792 180 799 163 799 c 2
EndSplineSet
EndChar

StartChar: g.sc
Encoding: 65584 -1 486
Width: 1509
Flags: W
AnchorPoint: "Anchor-0" 740 1035 basechar 0
AnchorPoint: "Anchor-1" 719 3 basechar 0
Fore
SplineSet
775 618 m 2
 1460 618 l 2
 1494 618 1496 610 1496 573 c 2
 1496 416 l 2
 1496 389 1492 386 1466 386 c 2
 1382 386 l 2
 1361 386 1357 385 1357 364 c 2
 1357 216 l 2
 1357 201 1355 191 1352 186 c 128
 1349 181 1342 175 1333 168 c 0
 1299 141 1253 113 1196 82 c 128
 1139 51 1072 24 996 2 c 128
 920 -20 835 -32 743 -32 c 0
 608 -32 489 -10 384 35 c 128
 279 80 197 143 138 226 c 128
 79 309 49 406 49 519 c 0
 49 687 133 825 236 911 c 0
 351 1007 520 1069 722 1069 c 0
 783 1069 838 1060 884 1042 c 128
 930 1024 970 1000 1005 970 c 0
 1019 961 1030 956 1037 956 c 128
 1044 956 1053 964 1064 978 c 2
 1103 1028 l 2
 1111 1038 1125 1043 1145 1043 c 2
 1279 1043 l 2
 1309 1043 1321 1042 1321 1013 c 2
 1321 710 l 2
 1321 681 1315 679 1281 679 c 2
 1105 679 l 2
 1058 679 1061 681 1043 705 c 0
 1013 752 976 788 931 812 c 128
 886 836 828 849 756 849 c 256
 684 849 626 821 581 764 c 128
 536 707 514 625 514 518 c 256
 514 411 534 329 573 271 c 128
 612 213 666 184 735 184 c 0
 796 184 840 193 866 212 c 128
 892 231 911 253 924 276 c 0
 932 291 937 301 937 324 c 2
 937 362 l 2
 937 385 933 386 908 386 c 2
 767 386 l 2
 726 386 735 401 735 440 c 2
 735 575 l 2
 735 613 740 618 775 618 c 2
EndSplineSet
EndChar

StartChar: h.sc
Encoding: 65588 -1 490
Width: 1673
Flags: W
AnchorPoint: "Anchor-0" 889 1040 basechar 0
AnchorPoint: "Anchor-1" 885 0 basechar 0
Fore
SplineSet
641 780 m 2
 641 669 l 2
 641 643 657 646 688 646 c 2
 1035 646 l 2
 1068 646 1076 646 1076 675 c 2
 1076 783 l 2
 1076 794 1065 799 1044 799 c 2
 976 799 l 2
 938 799 937 804 937 845 c 2
 937 986 l 2
 937 1030 938 1040 978 1040 c 2
 1597 1040 l 2
 1628 1040 1639 1030 1639 996 c 2
 1639 842 l 2
 1639 809 1635 799 1604 799 c 2
 1514 799 l 2
 1489 799 1486 793 1486 769 c 2
 1486 270 l 2
 1486 247 1489 241 1513 241 c 2
 1603 241 l 2
 1637 241 1639 228 1639 190 c 2
 1639 72 l 2
 1639 12 1638 0 1583 0 c 2
 992 0 l 2
 945 0 937 11 937 62 c 2
 937 201 l 2
 937 232 942 241 971 241 c 2
 1033 241 l 2
 1061 241 1076 240 1076 264 c 2
 1076 398 l 2
 1076 421 1064 422 1038 422 c 2
 677 422 l 2
 650 422 641 421 641 397 c 2
 641 269 l 2
 641 242 649 241 681 241 c 2
 772 241 l 2
 808 241 820 239 820 204 c 2
 820 58 l 2
 820 6 798 0 748 0 c 2
 97 0 l 2
 44 0 35 7 35 60 c 2
 35 184 l 2
 35 224 37 241 77 241 c 2
 173 241 l 2
 210 241 231 238 231 270 c 2
 231 772 l 2
 231 800 215 799 183 799 c 2
 93 799 l 2
 46 799 35 804 35 853 c 2
 35 990 l 2
 35 1033 55 1040 97 1040 c 2
 748 1040 l 2
 800 1040 820 1033 820 979 c 2
 820 842 l 2
 820 804 816 799 778 799 c 2
 679 799 l 2
 653 799 641 801 641 780 c 2
EndSplineSet
EndChar

StartChar: hyphen.sc
Encoding: 65590 -1 492
Width: 920
Flags: W
Fore
SplineSet
154 650 m 2
 766 650 l 2
 781 650 790 647 794 642 c 128
 798 637 800 627 800 611 c 2
 800 461 l 2
 800 444 798 433 795 428 c 128
 792 423 781 420 764 420 c 2
 162 420 l 2
 144 420 133 422 128 427 c 128
 123 432 120 443 120 460 c 2
 120 609 l 2
 120 625 122 636 125 642 c 128
 128 648 138 650 154 650 c 2
EndSplineSet
EndChar

StartChar: i.sc
Encoding: 65591 -1 493
Width: 970
Flags: W
AnchorPoint: "Anchor-0" 473 1040 basechar 0
AnchorPoint: "Anchor-1" 470 0 basechar 0
AnchorPoint: "Anchor-2" 470 0 basechar 0
Fore
SplineSet
686 786 m 2
 686 249 l 2
 686 220 701 223 734 223 c 2
 876 223 l 2
 906 223 919 223 919 193 c 2
 919 45 l 2
 919 5 913 0 874 0 c 2
 97 0 l 2
 55 0 52 8 52 50 c 2
 52 179 l 2
 52 219 62 223 101 223 c 2
 224 223 l 2
 254 223 266 224 266 251 c 2
 266 785 l 2
 266 816 261 817 226 817 c 2
 99 817 l 2
 61 817 52 821 52 860 c 2
 52 989 l 2
 52 1032 54 1040 97 1040 c 2
 871 1040 l 2
 913 1040 919 1031 919 990 c 2
 919 865 l 2
 919 822 914 817 872 817 c 2
 731 817 l 2
 697 817 686 815 686 786 c 2
EndSplineSet
EndChar

StartChar: j.sc
Encoding: 65600 -1 502
Width: 1161
Flags: W
AnchorPoint: "Anchor-0" 682 1040 basechar 0
AnchorPoint: "Anchor-1" 459 8 basechar 0
Fore
SplineSet
0 267 m 0
 0 337 22 394 68 439 c 0
 114 484 175 506 250 506 c 0
 315 506 365 494 402 469 c 0
 439 444 458 413 458 376 c 0
 458 341 450 316 433 300 c 0
 416 284 399 272 382 265 c 0
 365 258 357 248 357 237 c 0
 357 227 364 215 376 200 c 0
 388 185 412 178 448 178 c 0
 483 178 514 191 540 216 c 0
 566 241 580 286 580 351 c 2
 580 764 l 2
 580 799 569 799 532 799 c 2
 399 799 l 2
 365 799 358 804 358 842 c 2
 358 988 l 2
 358 1028 356 1040 393 1040 c 2
 1113 1040 l 2
 1145 1040 1148 1029 1148 994 c 2
 1148 836 l 2
 1148 801 1143 799 1111 799 c 2
 1008 799 l 2
 984 799 982 790 982 767 c 2
 982 350 l 2
 982 221 916 129 832 71 c 0
 738 7 600 -28 446 -28 c 0
 359 -28 281 -14 214 14 c 0
 147 42 94 79 56 124 c 0
 18 169 0 217 0 267 c 0
EndSplineSet
EndChar

StartChar: k.sc
Encoding: 65602 -1 504
Width: 1439
Flags: W
AnchorPoint: "Anchor-0" 785 1040 basechar 0
AnchorPoint: "Anchor-1" 788 0 basechar 0
Fore
SplineSet
35 48 m 2
 35 200 l 2
 35 231 36 241 64 241 c 2
 152 241 l 2
 183 241 188 243 188 272 c 2
 188 778 l 2
 188 799 177 799 155 799 c 2
 62 799 l 2
 33 799 35 814 35 845 c 2
 35 999 l 2
 35 1032 41 1040 71 1040 c 2
 739 1040 l 2
 768 1040 774 1033 774 1001 c 2
 774 853 l 2
 774 813 775 799 738 799 c 2
 641 799 l 2
 614 799 608 796 608 770 c 2
 608 603 l 2
 608 562 614 556 644 576 c 2
 945 780 l 2
 968 796 961 799 914 799 c 2
 880 799 l 2
 841 799 837 804 837 847 c 2
 837 1003 l 2
 837 1029 838 1040 862 1040 c 2
 1369 1040 l 2
 1393 1040 1391 1020 1391 995 c 2
 1391 850 l 2
 1391 814 1392 799 1359 799 c 2
 1262 799 l 2
 1221 799 1220 792 1196 776 c 2
 1018 653 l 2
 990 634 981 631 1001 607 c 2
 1292 267 l 2
 1312 244 1316 241 1361 241 c 2
 1440 241 l 2
 1464 241 1468 232 1468 206 c 2
 1468 36 l 2
 1468 7 1459 0 1432 0 c 2
 845 0 l 2
 817 0 816 11 816 41 c 2
 816 199 l 2
 816 234 825 241 856 241 c 2
 921 241 l 2
 969 241 949 252 934 271 c 2
 784 462 l 2
 774 475 760 476 742 463 c 2
 633 387 l 2
 617 375 608 368 608 343 c 2
 608 264 l 2
 608 241 616 241 640 241 c 2
 733 241 l 2
 760 241 760 231 760 202 c 2
 760 50 l 2
 760 9 756 0 719 0 c 2
 67 0 l 2
 34 0 35 12 35 48 c 2
EndSplineSet
EndChar

StartChar: l.sc
Encoding: 65603 -1 505
Width: 1224
Flags: W
AnchorPoint: "Anchor-0" 343 1040 basechar 0
AnchorPoint: "Anchor-1" 640 0 basechar 0
AnchorPoint: "Anchor-3" 801 632 basechar 0
Fore
SplineSet
158 799 m 2
 59 799 l 2
 35 799 35 807 35 833 c 2
 35 992 l 2
 35 1028 33 1040 67 1040 c 2
 754 1040 l 2
 786 1040 788 1032 788 997 c 2
 788 842 l 2
 788 807 783 799 751 799 c 2
 642 799 l 2
 617 799 608 800 608 776 c 2
 608 274 l 2
 608 245 610 241 642 241 c 2
 726 241 l 2
 891 241 967 295 975 460 c 0
 978 487 978 485 1012 485 c 2
 1153 485 l 2
 1178 485 1190 486 1190 464 c 2
 1190 46 l 2
 1190 9 1189 0 1153 0 c 2
 66 0 l 2
 35 0 35 9 35 43 c 2
 35 209 l 2
 35 230 36 241 55 241 c 2
 151 241 l 2
 180 241 188 244 188 272 c 2
 188 770 l 2
 188 796 185 799 158 799 c 2
EndSplineSet
EndChar

